/* XPM */
static char *e073b3bef695466d838f09a6976fb856F1oBiZ4IUwGAhRBr[] = {
/* columns rows colors chars-per-pixel */
"32 32 213 2 ",
"   c #110D1C",
".  c #0E132E",
"X  c #141429",
"o  c #151A35",
"O  c #121C3B",
"+  c #161931",
"@  c #0A1233",
"#  c #281D29",
"$  c #261F30",
"%  c #1C2039",
"&  c #2F222E",
"*  c #2C2534",
"=  c #28263B",
"-  c #362A37",
";  c #392428",
":  c #71351E",
">  c #472C2B",
",  c #452E33",
"<  c #4C3434",
"1  c #493F38",
"2  c #593F3A",
"3  c #593A36",
"4  c #45362E",
"5  c #713F2E",
"6  c #51493B",
"7  c #76452D",
"8  c #694938",
"9  c #734736",
"0  c #7C6438",
"q  c #121D43",
"w  c #2B2E49",
"e  c #232640",
"r  c #3C3D54",
"t  c #38385B",
"y  c #323A50",
"u  c #2A2E67",
"i  c #302E61",
"p  c #2E3061",
"a  c #323162",
"s  c #3B3562",
"d  c #493C49",
"f  c #4F3D5C",
"g  c #533D57",
"h  c #4B2C4B",
"j  c #7C3F5C",
"k  c #543C68",
"l  c #7A3F62",
"z  c #3F4659",
"x  c #3C4567",
"c  c #574759",
"v  c #564B4D",
"b  c #634845",
"n  c #795544",
"m  c #705253",
"M  c #484A65",
"N  c #4C516F",
"B  c #5F5D6A",
"V  c #484D74",
"C  c #464C73",
"Z  c #525475",
"A  c #555A7B",
"S  c #7B4267",
"D  c #645865",
"F  c #68676E",
"G  c #776E4B",
"H  c #864927",
"J  c #A35935",
"K  c #806636",
"L  c #8B713F",
"P  c #91713E",
"I  c #B1602A",
"U  c #B4613C",
"Y  c #BA6636",
"T  c #B4763E",
"R  c #C66932",
"E  c #C46C3C",
"W  c #C56838",
"Q  c #D26F34",
"!  c #CC7437",
"~  c #D87638",
"^  c #A93768",
"/  c #8A5645",
"(  c #9A5549",
")  c #8B5E51",
"_  c #934B4E",
"`  c #B55D41",
"'  c #966648",
"]  c #8F7F53",
"[  c #92635B",
"{  c #A06C4F",
"}  c #BA6845",
"|  c #AD704E",
" . c #BB7548",
".. c #B47A5B",
"X. c #8B4764",
"o. c #954964",
"O. c #887B67",
"+. c #9F6762",
"@. c #B47F61",
"#. c #C97C4E",
"$. c #D77C47",
"%. c #C7724F",
"&. c #E07E54",
"*. c #998141",
"=. c #BF9148",
"-. c #8D8269",
";. c #A2936D",
":. c #DF894E",
">. c #DD8746",
",. c #C88354",
"<. c #DD8B53",
"1. c #D58658",
"2. c #D08C54",
"3. c #E08B4F",
"4. c #E38E53",
"5. c #E59157",
"6. c #E59459",
"7. c #ED9A5A",
"8. c #E79455",
"9. c #FF9E5A",
"0. c #F49C5B",
"q. c #EB9E47",
"w. c #C8A754",
"e. c #ECAB58",
"r. c #FAA857",
"t. c #F3BC5D",
"y. c #F8B75C",
"u. c #F4A247",
"i. c #D69361",
"p. c #C7A763",
"a. c #EFB178",
"s. c #F4AB6A",
"d. c #F5C459",
"f. c #F6C85F",
"g. c #F9C557",
"h. c #F7C967",
"j. c #FFD165",
"k. c #FFDA75",
"l. c #F5CA7D",
"z. c #FFE779",
"x. c #646684",
"c. c #6D7397",
"v. c #74799C",
"b. c #7E7F9B",
"n. c #757595",
"m. c #7B7FA0",
"M. c #827E94",
"N. c #857B8C",
"B. c #82819A",
"V. c #8D859B",
"C. c #AE8D91",
"Z. c #8484A0",
"A. c #8789A7",
"S. c #918CA5",
"D. c #9894AA",
"F. c #8D91B5",
"G. c #9595B6",
"H. c #9B9AB9",
"J. c #A89EAF",
"K. c #A19CB2",
"L. c #ACA5BA",
"P. c #AEA8BE",
"I. c #B2AABD",
"U. c #AEABAD",
"Y. c #C5908A",
"T. c #C7B789",
"R. c #CBB094",
"E. c #F7BB8E",
"W. c #EAABA5",
"Q. c #CCC29B",
"!. c #FAC68A",
"~. c #FEDD84",
"^. c #FBD787",
"/. c #F9CA97",
"(. c #FBDB97",
"). c #FFE58D",
"_. c #FFF090",
"`. c #FFEB94",
"'. c #F5D2B7",
"]. c #FFE4A7",
"[. c #FEE7AD",
"{. c #FCE5B5",
"}. c #FFF7B3",
"|. c #9B9CC1",
" X c #9FA0C2",
".X c #A4A4C6",
"XX c #A7A7C9",
"oX c #ABAACC",
"OX c #ABA8C5",
"+X c #B0ADCB",
"@X c #B0ACC4",
"#X c #BBB2C6",
"$X c #BDB6CD",
"%X c #B3B2D4",
"&X c #BCBADA",
"*X c #C4BACE",
"=X c #C7BDD0",
"-X c #C8BED1",
";X c #C1BEDE",
":X c #EFB9D2",
">X c #CCC1D4",
",X c #D1C6D9",
"<X c #D5CADC",
"1X c #D5CADC",
"2X c #FFEACD",
"3X c #FFFEC1",
"4X c #FBEFDE",
"5X c #FEF3D7",
"6X c #FCF1DC",
"7X c #DACFE1",
"8X c #DCD0E1",
"9X c #E6D8EB",
"0X c #FAFFFF",
/* pixels */
"XXXXXXXXXXXXXXXXXXXXXXXXXXXXXXXX*X-X-X-X-X-X-X-X-X-X-X-X-X-X-X-X",
"XXXXXXXXXXXXXXXXXXXXXXXXXXXXXXXX*X-X-X-X-X-X-X-X-X-X-X-X-X-X-X-X",
"XXXXXXXXXXXXXXXXXXXXXXXXXXXXXXXX*X-X-X-X-X-X-X-X-X-X-X-X-X-X-X-X",
"XXXXXXXXXXXXXXXXXXXXXXXXXXXXXXXX*X-X-X-X=X-X-X-X-X-X-X-X-X-X-X-X",
"XXXXXXXXXXXXXXXXXXXXXXXXXXXXXXXX*X-X-X-X-X=X-X-X-X-X-X-X-X-X-X-X",
"XXXXXXXXXXXXXXXXXXXXXXXXXXXXXXXX*X-X-X-X-X-X-X-X-X-X-X-X-X-X-X-X",
"XXXXXXXXXXXXXXXXXXXXXXXXXXXXXXXX*X-X-X-X-X-X-X-X-X-X-X-X-X-X-X-X",
"XXXXXXXXXXXXXXXXXXXXXX.X.X.X.X.X$X-X-X-X-X-X-X-X-X-X-X-X-X-X-X-X",
"XXXXXXXXXXXXXXXXXXXX.X%X%X%X%X%X,X>X*X=X-X-X=X*X*X-X-X-X-X-X-X-X",
"XXXXXXXXXXXXXXXXXXXXoXA C V V V N I.8X-X*X*X>X8X,X*X-X-X-X-X-X-X",
"XXXXXXXXXXXXXXXXXXoXA 9 K K K 0 9 D A L.,X1XH.M S.7X*X-X-X-X-X-X",
"XXXXXXXXXXXXXXXXoXA 0 /.[.).~._.k.' 8 D @XP.m n F V.<X*X-X-X-X-X",
"XXXXXXXXXXXXoXXXA 8 ].0X0X{.5XC.G 6.9.H D t 9 ^.T.B D.>X=X-X-X-X",
"XXXXXXXXXXXX Xx.9 s.4X6X5X[.U.m v m Y %./ = n u.z.;.y <X*X-X-X-X",
"XXXXXXXX.XoXA.& 0.h.].[.[.{.- =.}.O.7 _ &.+.h T j.*.M 1X*X-X-X-X",
"+X+X+X+XoX&XG.- 6.h.(.(.(.(.y  .!.z.6 7 I ( m n r.P x 1X#X$X$X$X",
"-X-X-X-X-X*XM.- <.f.d.d.d.g.8 / e.g.n 9 3 ' r.s.E.@.d F.oX.XXXXX",
"=X-X-X*X,XJ.@ s ! t.f.f.t.p.! > ) 1.9.n ' y.h.'.9X'...d G.oXXXXX",
"-X-X=X-X>XM.o g W 3.t.t.5.f J ~ c ..1.1.y.g.[.:X^ C.2X .M G.oXXX",
"-X=X-X>XV.$ 3 E X.W :.<.<.E R <.5.0.m [ y.d.~.W.^ C./.s.Q.r H.XX",
"=X=X>XM.2 7.5.#.i X.W R R o.` >.4.4.Y $.y.d.~.R.o.Y.!.i.}.T.w XX",
"*X1XB.< e.t.1.j % s X.U Y t S } R Q g [ 8.e.d.l.{.!./ 1 k.T.w XX",
"*X1Xb.< 0.:.J o * U s p a a a S o.o.k q ( 0.6.5.7.{ O , >.w.w XX",
"*X1XM.> ~ J = + - 4.,.= l U Y f u u ( < n E.^.q.5 M oXc.6 w.w XX",
"1XB.b | X c D.* 2.t.<.* = #.y.6.d O # n.Z L `.a.: x ;Xv.< ,.w XX",
"1XM.  D @X#XL.& ~ 7.1.* . - ,.7.E ; x.oXXXM -.3XO.t &Xb.X d H.XX",
">X#XK.P.,X1XL.. - E E = D.e  .$.Q , O Z.%X.XZ ] h./ Z XXA.F.oXXX",
"=X>X,X>X>XK.d ,.#.R , + #XI.d # J #.,.b c.%X|.B 4 # r %XoXoXXXXX",
"-X=X*X=X-X$XN.< < ; + S.*X,XD.D.v > 2   x.%XoXH.v.m.F.XX.XXXXXXX",
"-X-X-X-X=X>X=XB.Z.A.D.>X>X*X,X<XA.c.c.n.G.oX.XoX%X%XoXXXXXXXXXXX",
"-X=X-X-X-X=X-X1X1X1X,X=X-X-X=X*X%X%X%X%XoXXXXXXXXXXXXXXXXXXXXXXX",
"=X=X-X-X-X-X=X*X*X*X*X-X-X-X=X-XoX.X.X.XXXXXXXXXXXXXXXXXXXXXXXXX"
};
