/* XPM */
static char *banana[] = {
/* columns rows colors chars-per-pixel */
"80 80 31 1 ",
"  c #043A11",
". c #3C270B",
"X c #39280B",
"o c #3C280B",
"O c #392E0B",
"+ c #3C2C0B",
"@ c #47340B",
"# c #325C0D",
"$ c #1A720B",
"% c #128209",
"& c #128309",
"* c #11820A",
"= c #12830A",
"- c #13830A",
"; c #12820B",
": c #12830B",
"> c #12850A",
", c #12850B",
"< c #12860B",
"1 c #3D9708",
"2 c #D1C803",
"3 c #DBCE03",
"4 c #EEE601",
"5 c #EFEB00",
"6 c #F3E900",
"7 c #F2EC00",
"8 c #F3ED00",
"9 c #FEF100",
"0 c #FEF200",
"q c #FEF300",
"w c #FFF300",
/* pixels */
"====$<<**====<<%*&***===;==$,&,&*,===&&&=$<=$<&,***&,&,*,*===*=;%*&*&&&,*===;<==",
"======<***==$<*<,&,*=*====&<&&****==$<,&==<<&&,&&,*,&&,*,*======<***&**,==**;;==",
"==$<====*%%=****&,$=*===**,,&&==;*==,*&,====&&&,,&*&&&==*<=;====<&==&&&&<;**=;=*",
"=<<<====**==%%<*&&<==*==*,,&<$==*<*=*&**====&&,&***,<$==*;*=====<<$=&&&&=***==*<",
"*=****==**&**=======**,&*,=====;&,&<*;<*========**======**&,;=======<%=<;====$**",
"==*<**==&&&*========&,&&=*;;====,&&$*=;=====*===**=;====,,*&;=======%<*<=*==&<*,",
"=$<<=%==&&*&<<==*==**,&&*;*=;===,* ===*====***<%*=;;====**&,$==;==%***=$*===&*&*",
"==<=*===,&&*%<$==*  **<$=;<*====   =======****%%***<====<*&&<======***======,,*&",
"====*****&=$<<**, *< *===*=*&&== ** ===$<<*****%&** ,$&*;===$&&&<  <<*==========",
"=====****,==<<*  ,** =====*<&<$ *,* ====<<**<*%%&* * *,,====<&&,$ < **==========",
"$<====*<======< ,&&< =*===**&& =;=;* =*<==*<**=<&  ,, *,*===,*,*  = *%==$<==$<==",
"<<====<<=====  *&&&$* ====*,&, =<;;< ==*=***<**<  &,& *&=*==*&*  ===  ==<<*=<<==",
"***<===<%%<  =======, &&=;==  ====>& *<<==**===$ &,*$, <,&&&=*= ====<< =****====",
"<**%===$%* *====;===,, <;;$XOO$===&>& <$$=**==== &<***, $,&<*=* ====<$ =*<**====",
"==*&====  **=<=====<,* $==OX..O====<* <=<***==  <<==&,&< ,=$== ==%*<<*=  =*=====",
"==**=== ==*<*<$===**&* ===X...O====$&* *<<<*= ==<<$=*,*,, === ==******=== =====<",
"==**&* *==========%=== ==;X....=<$==*% <==<& &<$****==$<=  *= ==&&,*,*===; ;;=<=",
"==*%  &&==========<&=== =$.....=<===&< <==% *<&=***===<<** % ===&<&*,*<*=;  ;<;<",
"=$<<,&**=========$<&=== =Xoo...=<&==**$ == &<*====*=====**  =====$==*<;;==; =;*<",
"==<<*&&&========-==%==== O.o..o<**==<*= = ****==========<*< ========;*;*;=<;*;**",
"====<==$====&%*<,,**==$14@ooXX@=*%**==== ===%=====***<=======<<<=*==&&==;=====*&",
"======<<====&%*<<$&,==<5w3@oX@2=*<*&========<%====*<**=======$*<*===&<$=====<$**",
"=====*=<===%&&<<,**&&&1qwwww99w<==*<==<**<$<****=<<**=======****=*&*,&======&&,,",
"====%<**==%<&&$=**,&,&5qwwwww991=====%****<<**<*$<=<%===<$==%****,***,=;====&&&*",
"$=**<<<<%*<%====&&&,=19wwwwwwww5====$<<*%===%=*<%<%<<<==<<%*====&&,,**===***&<==",
"<<<*$=&**%======&&**=59wwwwwwwww1===<<**=*=*==&<=*%*&$==*%%*====&&&*&*==*<*,&$==",
"==**========<%&&==&,=7wwwwwwwwww5====*<*%===%==&==**<&==***%====$<==*=*===**&&==",
"=%%*======= &&&&===*<9www9wwwwww951==***=*=*==$<==****==<**<========<*=*==,*&,==",
"==<<<<===== ==*%====19wwwwwwwwww994=====%===*%&  ===**<======<<<====*  ====$==*=",
"==$=*%=*==   =*&====79wwwwwwww9w9991=====*=*%<*  ===***%=====$<*====<  *==&<===*",
"====***%== == <<====79ww9wwww959ww95====%===%*  < ==<*<<==%=****==;=*  **&&&==,*",
"====***<== =$ <&====99www7wwww79ww97=====*=*=  <<$ =**<$==<%%***===* =* ,,&,<;**",
"=**<====== <, ,&==;=7www5wwwwwwwwww9<%==*<=== **** <<*<***====<<>&>* &<; =;<&,*,",
"=***$==== *<*& ,===;wwww9wwwwwwwwww91===&*=* ==<*** =<***<==$<**<$&  *;; ;==,&**",
"==**<<=== $<<= &==;<7wwwwwwwwwwwwwww5===**& ======* $<<**===**=*=== ,;<== ;=&&$=",
"==%<<=== =====, ==;<wwww9wwwwwwwwwww91==,*& ==$<===% ==,====**<*== =**;*== =,&<=",
"=======  ===&&& ====79wwwwwwwwwwwwww95<=** &$*&&==&< %&&**<<%===== =&*&>== =====",
"=====*= ==*=&<& ====9wwwwwwwwwwwwwww991=* **,,&&==<=* &&**<<%<=== ==*&><=== ==;=",
"=$==** <=====$== =  7wwwwwwwwwwwwwww997= ,**&<&&===<&* &<*=$==== ==*&*=$=== ====",
"<===* <<$=======  ==wwww9wwwwwwwwwwww9941***&,&&===$**& **===== *=***,=====* ;==",
"&<&& &,**&***<=== =$7www9wwwwwwwwwwwwww95<==****><<$==== *=$<%* ;;======*,** ===",
"*%&& ,<*&>,*;=;=====wwqqwwwwwwwwwww9wwww7<==>*>*><<<====  ==<< *==;======**,$ ==",
"&*  ====>&==;*======7qqqw7wwwwwwwwww9www9===>*$=>>=$===== ==% **==*<====*=&*<& =",
"****====<$==;<======5qqqw7wwwwwwwwwwwwww951=><<<*%======== = **<===;=====*>&>&= ",
"==*==<=<*===>&$=====1wwww79wwwwww9wwwwww995===<<&$&<****===  <%==;==<$======<===",
"====$<<*=*==&><=====<9wwww7wwwwww7wwwwww997===$=&&&<***==== %%==*,=*&======;;;==",
"====*****=*&*&===*==<7wwww7wwwwww79wwwwwww9<====**>&=*=*========&*,*&&======<;*=",
"**===***<*&*&*===*===5wwww79wwwwwwwwwwwwwww51===,***============***&>,=;;=;=*;=*",
"***=*=====***<<;===<>199ww00wwwwwwwwwwwwwwww5===>&&,==;===&,&*&*==$&>&*=====*&**",
"**=*<*==<$,*<$*<===$>&5900wwwwwwwwwwwwwwww9w91==****=*;===&&,**,==<>&*=*====&*,*",
"><==***&>&*&; ***=*<&*150www9wwwwwwwwwww9www95<=*,&,**=====&=***==*=*,*=><==>&$=",
">$==,*&*&>&*  **=*=**&&*5wwww9wwwwwwwwwwwwwwww51*&**======$<==*====*&***&$==&><=",
">%*=*=*&=*==  =**&**==*=10wwwwwwwwwwwwwwwwwwwww951==**==*,,,====*<  ====>&<;<*==",
"&*<*==&>==*=  =*&>,*=*==*59wwwwwwwwwwwwwwwwwwwww05=<=*==&,,$====*   $===&*<$*<==",
"*&*&==$&==== < *>&======,#59wwwwwwwwwwwwwwwwwwww099751<=,**&&&=$  ,& <==***<***=",
"&*&*==<>=== =; ;<$======* *1wwwwwwwwwwwwwwwwwwww09ww9951&*,&,&< *,&&& **,*******",
"====<<===$* <* =*&*<*;=  ===5ww9wwwwwwwwwwwwwwwwwwwwwwww059751< <=;;;= *&*,*====",
"=====<$=>< &*= ***&*== =====19w9wwww9wwwwwwwwwwwwwwwwwwww9wwww97w751** =***&====",
"$<======&& *== =&,><== ==*;==799wwwwwwwwwwwwwwwwwww9wwwwwwwwww99www5;== <*&,=$==",
"<=======> *&=== &>&$= ===**==1779wwwwww9wwwwwwwwwwww9wwwwwwwwwwwwww5<=== =&&&<==",
"<<**===== <*=$< ==== <*,====***=<599w9wwwwwwwwwwwwwwwwwwwww9wwwwwww5*,&&* *=;<==",
"****==== *;;==& <;== ***====*====179wwwwwwwwwwwwwwwwwwwwwwwwwwwwww91*&,&= ==;;==",
"==*<;;== =**&,& ;;= *=*&>&=====*===#59wwwwwwwwwwwwwwwwwwwwwwwwww995=*&$<=  =;;==",
"===*==; ;=,*,&&  ;= =*&*&><$===*===< 5wwwwwwwww9wwwwwwwwwww9wwww951*,*====  ====",
"==***== *<***<== $ <=====$**<===*%*= 159999999wwwwwwwwwwwwwwww991<======,**  *=;",
"=$***< =<<****==  =<=====<&*====**<=   1579999wwwwwwwwwwwwwwww95======$=,&*& ,=*",
"<<%&====<<======**<*%=**<***<<==*&<*= ====<15999wwwwwwwwww99w951====,&<&<&==  *<",
"<=**====$=======**<****<%&**&<$=**%&=========15797w7w7w7w79751<=====,&,&$===* ;*",
",&&&========****======***<$=*<%*==$<<*&<==**=%==<$==<===;===<***<$==****=;==,&<$",
"*,&&==$==*==*<*<======*<<<<=***&==<<%**<==**====>=========;<;=*,&===*,*==*==&&&=",
"*<**&*<<&,&&<<&*=======<**==&&**==<**&=$=$<=====&>======;;;==;&*&,=====**=*,,*==",
"==***%<%&&&&%%<&======$<*<=*,&&&===***====<<====*&=**========**&,&====*==*=***==",
"====*<***======<**<$&&%%**=====$$<<*<%====**<$==&**,=$<>&*,*<>&**,**=*==========",
"==$=*&***======$*<<=&&&***====<===&**&====%*<===&,**==>&*&**$=>&&*=**<*===$=*===",
"<*<<%<==&<====%<<*==&,**====**<*====***===*=<<====&,======**======*=&*,*,&<&;**&",
"**<=<$==<$=====%**===**&====****===<**<===****===<**======*<=====*=****&*,&&*<**",
"**$<=<==&*====***===<**%**%<*===****==**=========*&>&*===$***;;===;==;&,**====**",
"**==**==**==<$***===<$*<****=%==&%**===*====*=====><*&*=;<;*===*======&&*&====,,",
"*===<*<****%&*<*<<======%*<*====*<<$==****=$**<*===$&***<==*===*==;;===&,*=*=$<&",
"====*****<*<<&***<$=======<<$===*&<===*%<<<<*<**====*,*=<======*======$<*=*===&&"
};
