/* XPM */
static char *banana_4_[] = {
/* columns rows colors chars-per-pixel */
"50 50 71 1 ",
"  c #3C260B",
". c #3B2B0B",
"X c #2C3B0C",
"o c #31330C",
"O c #313E0B",
"+ c #084F0F",
"@ c #09540F",
"# c #075F0D",
"$ c #0B5C0E",
"% c #18580C",
"& c #064410",
"* c #074910",
"= c #225F0A",
"- c #07630D",
"; c #0C640D",
": c #0D6B0C",
"> c #126C0C",
", c #0F720C",
"< c #0C7C0B",
"1 c #10770B",
"2 c #18760A",
"3 c #117C0B",
"4 c #22620A",
"5 c #6F5D08",
"6 c #5F6F0A",
"7 c #457C0B",
"8 c #8E7C07",
"9 c #0E810A",
"0 c #12830A",
"q c #1B860A",
"w c #1D890A",
"e c #248B09",
"r c #298D09",
"t c #31840A",
"y c #2E9009",
"u c #339209",
"i c #399508",
"p c #419908",
"a c #4A9D08",
"s c #569D07",
"d c #559408",
"f c #659409",
"g c #56A307",
"h c #5BA607",
"j c #60A707",
"k c #6BAC06",
"l c #74B206",
"z c #7FB605",
"x c #83AD06",
"c c #80B705",
"v c #85B905",
"b c #8EBD05",
"n c #95BF04",
"m c #93C004",
"M c #9BC204",
"N c #A9CA03",
"B c #B0C404",
"V c #B3CE03",
"C c #BCD303",
"Z c #C3D702",
"A c #CFDC02",
"S c #D3DC02",
"D c #E4DF02",
"F c #D6E002",
"G c #DBE201",
"H c #E3E501",
"J c #EFE701",
"K c #EDEA01",
"L c #F4EE00",
"P c #F8EF00",
"I c #FFF300",
/* pixels */
"00003000003000000000000003000000000000000000000000",
"00000000000000000000000000000000000000000000000000",
"00000000000000000000000000000000000000000000000000",
"00000000000000000000030000000000000000000000000000",
"00000000003;:0000003$@3000000000300000000000003000",
"000000000,:,$<00000::,;00030000:;3000000:@10000000",
"000000001$,0:>00001;30;1000000:@1$000003@:@3000000",
"0000003;;3003$000>$100;,000003+30;10000@:0,#100000",
"000031;130000::0>oX2003$00003:;000:,003$000,$10000",
"0000::3000000::0O  4000:1003::30003:,3;10000,;1300",
"001;100000000,;3O  =000,;03;1000000:@,:0000000@100",
"00110000000000;%.  40003$1:100000000@$30000000::00",
"00000000000000r6   40000:;30000000003,000000000000",
"00000000000000nJ858d900003000000000000000000000000",
"0000000000003iGIIIIv000000000000000000000000000000",
"0030000000000nIIIIIGr00000000000000000000000000000",
"000000030000qAIIIIIImw0000000000000000000000000000",
"0000001$0000eFIIIIIIIm0000000::000000000003:,00000",
"000000$@,009lIIIIIIIIHp900000*$300000000000&:00000",
"000000@3;009vIIIIIIPIIv90000@$,;0000000000:;:30000",
"00000<;3;<09vIIIIIIIIIb0000,;30:1000000003@11$0000",
"00000;10,;09vIIIIIIIIIGu00<;000,;330000001$00::000",
"0000:@000$39vIIIIIIIIIIv03::0000;10000000$3000$300",
"0003;,000;,,xIIIIIIIIIISu;,00000<;300003::0000::00",
"003:100003@-xIIIIIIIIIIIVt00000003:3000:,000003;30",
"00;1030000:,vIIIIIIIIIIIIm90000000,@303;0000000::0",
"0::300000009vIIIPIIIIIIIINw00000003::3;300000000::",
"033000000000gKIIIIIIIIIIIImq00000000:+,0000000000,",
"000000000003wSIIPIIIIIIIIIS000000000<;000000000000",
"000000000000qZIIPIIIIIIIIIKl0000000000000000000000",
"0000000000000kPIIPIIIIIIIIIKi900000000000000000000",
"00300003;0009eNIIIIIIIIIIIIINe30000000000000000000",
"0000000$*00000eVIIIIIIIIIIIIICj0000000000:,9000000",
"0000000$@300009sJIIIIIIIIIIIIIKlae<09000;&;0000000",
"0000003;::00003>dZIIIIIIIIIIIIIIPCjryr0-#,,;300000",
"000000::::0003$:9jPIIIIIIIIIIIIIIIPHHGbfkhq::00000",
"000003$0,:000::00wCIIIIIIIIIIIIIIIIIIIIIIPk<:,0000",
"00000:,00$10,:0000pcVIIIIIIIIIIIIIIIIIIIIIc93;3000",
"00003$300$10#100000<eMDIIIIIIIIIIIIIIIIIIGi00:;000",
"0000:>000$:::0000000007SIIIIIIIIIIIIIIIIKv0033*:00",
"0001;3000,@;3000000000$7BLIIIIIIIIIIIIIKa00000<+,0",
"0000100000:000000000003@0agMHIIIIIIIIIHvq000000:$0",
"0000000000000000000000030990pvvvvvvvvzi000000003:0",
"00000000000000000000000000000999999999000000000000",
"00000000000000000000000000000000000000000000000000",
"00000000000000000000000000000000000000000003000000",
"00000000000000000000000000000000000030000000000000",
"00000300000000000000000000000003000000000000000000",
"00000000000000000000000000000000000000000000000000",
"00000000000000000300000000000000000000000000000000"
};
