/* XPM */
static char *peanuts[] = {
/* columns rows colors chars-per-pixel */
"90 60 251 2 ",
"   c #1A0F09",
".  c #23170C",
"X  c #311C10",
"o  c #2F2318",
"O  c #342416",
"+  c #1F2130",
"@  c #37312F",
"#  c #53160E",
"$  c #661F13",
"%  c #4A2E17",
"&  c #582914",
"*  c #5B361C",
"=  c #6A2C10",
"-  c #66371A",
";  c #763A15",
":  c #46392A",
">  c #573A27",
",  c #633B25",
"<  c #7C431A",
"1  c #5A4424",
"2  c #554A3E",
"3  c #674829",
"4  c #774B27",
"5  c #71502D",
"6  c #73552D",
"7  c #684A36",
"8  c #6B543A",
"9  c #765532",
"0  c #74553B",
"q  c #77583C",
"w  c #795A3D",
"e  c #7E6039",
"r  c #1D2F55",
"t  c #35384B",
"y  c #1B3978",
"u  c #1C3C7C",
"i  c #243D6F",
"p  c #223A76",
"a  c #233C7B",
"s  c #463E46",
"d  c #3B4258",
"f  c #1E407F",
"g  c #28437A",
"h  c #374C72",
"j  c #354A79",
"k  c #464858",
"l  c #554E51",
"z  c #675143",
"x  c #735742",
"c  c #7D5D41",
"v  c #685958",
"b  c #7F6043",
"n  c #7B614F",
"m  c #766958",
"M  c #494E6C",
"N  c #56586D",
"B  c #4B5677",
"V  c #545975",
"C  c #645C67",
"Z  c #635F7F",
"A  c #59637D",
"S  c #766966",
"D  c #797366",
"F  c #706871",
"G  c #853D16",
"H  c #AB392E",
"J  c #854619",
"K  c #8C4B1C",
"L  c #974B1D",
"P  c #97521D",
"I  c #A95F1F",
"U  c #864C25",
"Y  c #895428",
"T  c #9A5623",
"R  c #9C5B25",
"E  c #96552A",
"W  c #975828",
"Q  c #865A36",
"!  c #A35B24",
"~  c #A45A27",
"^  c #AD4E38",
"/  c #9B632C",
"(  c #9B672C",
")  c #8B6638",
"_  c #986835",
"`  c #9B6C3B",
"'  c #9C733A",
"]  c #A66629",
"[  c #A4642C",
"{  c #AB6D2C",
"}  c #AF6E2D",
"|  c #B4732C",
" . c #A66934",
".. c #AC6D33",
"X. c #AD7334",
"o. c #A2743D",
"O. c #AC753B",
"+. c #A47A3C",
"@. c #AC7B3D",
"#. c #B67836",
"$. c #B47C3C",
"%. c #815F42",
"&. c #9F5E59",
"*. c #AB5147",
"=. c #B35447",
"-. c #846345",
";. c #896546",
":. c #896947",
">. c #856549",
",. c #8A6749",
"<. c #8D6A4B",
"1. c #996B45",
"2. c #916E4E",
"3. c #827A4C",
"4. c #967046",
"5. c #94714E",
"6. c #9A744E",
"7. c #8E6E51",
"8. c #866B58",
"9. c #916F51",
"0. c #8D7258",
"q. c #947254",
"w. c #9C7654",
"e. c #9C7956",
"r. c #957559",
"t. c #997759",
"y. c #96795B",
"u. c #9D7B5C",
"i. c #A77844",
"p. c #AA7C42",
"a. c #B37C44",
"s. c #B47E47",
"d. c #AA6F5A",
"f. c #B6695C",
"g. c #A07754",
"h. c #A17955",
"j. c #A17E5D",
"k. c #875B65",
"l. c #877568",
"z. c #9A7C63",
"x. c #927071",
"c. c #A17E60",
"v. c #A7776C",
"b. c #AE756E",
"n. c #B97567",
"m. c #AF8C32",
"M. c #B6813D",
"N. c #BC8338",
"B. c #BA823D",
"V. c #BAA132",
"C. c #C39038",
"Z. c #CDA92A",
"A. c #C8A435",
"S. c #96854E",
"D. c #AC8243",
"F. c #AB8648",
"G. c #B48444",
"H. c #BA8443",
"J. c #B78748",
"K. c #B68C4B",
"L. c #BC8B4B",
"P. c #A2934F",
"I. c #BA934B",
"U. c #A3805E",
"Y. c #AC8858",
"T. c #B88A55",
"R. c #BC9154",
"E. c #BD935C",
"W. c #BF9959",
"Q. c #93816F",
"!. c #948A7D",
"~. c #A48262",
"^. c #A98566",
"/. c #A78B69",
"(. c #B18F6F",
"). c #BB9666",
"_. c #B88578",
"`. c #AA967A",
"'. c #BFA077",
"]. c #C28B45",
"[. c #C28C4A",
"{. c #C4924B",
"}. c #C28E54",
"|. c #C39254",
" X c #C59759",
".X c #CAAC54",
"XX c #C49B65",
"oX c #C28E78",
"OX c #CCAE6E",
"+X c #C9A977",
"@X c #1C3E81",
"#X c #213E80",
"$X c #1E4284",
"%X c #1E448A",
"&X c #234485",
"*X c #294684",
"=X c #2C4A85",
"-X c #234689",
";X c #284788",
":X c #25498C",
">X c #2B4B8C",
",X c #334D84",
"<X c #3A4F82",
"1X c #314E8C",
"2X c #3C5384",
"3X c #375289",
"4X c #254A92",
"5X c #2C4E92",
"6X c #314F91",
"7X c #375493",
"8X c #475986",
"9X c #485E91",
"0X c #4C6189",
"qX c #576588",
"wX c #4B6395",
"eX c #566B97",
"rX c #666A86",
"tX c #69758D",
"yX c #777888",
"uX c #68789A",
"iX c #6B7FA2",
"pX c #847885",
"aX c #947C83",
"sX c #7A8291",
"dX c #988B83",
"fX c #9B9285",
"gX c #9C9489",
"hX c #868897",
"jX c #938F94",
"kX c #A3988A",
"lX c #B2908A",
"zX c #A79A96",
"xX c #AAA395",
"cX c #B6AB93",
"vX c #B6A89B",
"bX c #8A94A7",
"nX c #9CA4B5",
"mX c #B6AFA6",
"MX c #C39384",
"NX c #D0B58F",
"BX c #C5BAAB",
"VX c #D0BDA9",
"CX c #BEC0B4",
"ZX c #D9C195",
"AX c #E5D398",
"SX c #D8C4A6",
"DX c #D3C6B7",
"FX c #E5CEA8",
"GX c #E8D9B6",
"HX c #D6D4CB",
"JX c #EBE6D9",
/* pixels */
"q.0.9.0.9.,.;.;.;.;.;.;.;.;.;.;.-.x w 0 w q <.0.0.q.r.7.%.%.<.%.,.;.%.<.,.,.%.9.q.q.q.q.8.q.r.0.q.0.%.,.%.,.;.%.,.;.;.;.;.%.c q w w w c w w q q w c 0 0 q 8 b :.;.-.;.;.w q w q q c ",
"7.q.q.9.0.,.>.;.;.;.;.;.;.;.;.;.-.c c c c w 7.r.r.9.r.9.<.,.<.<.,.,.9.%.,.<.,.9.r.q.r.r.7.q.q.q.r.q.2.<.,.,.,.;.<.1.,.<.<.;.c c w c c -.c c c c %.c w w w q -.<.;.,.;.;.%.w w w q c ",
"0.q.7.q.q.>.:.<.,.;.;.<.;.;.,.<.>.-.-.%.%.c 7.y.r.r.r.9.<.<.<.<.1.<.2.2.2.<.<.q.z.t.r.y.q.r.q.t.r.r.7.%.,.<.,.,.<.1.7.<.<.,.%.%.n b b >.c c %.c -.b w w w w >.<.:.:.<.:.%.c %.c c c ",
"7.7.9.0.q.<.:.<.<.<.:.<.2.<.<.2.<.-.-.>.>.-.7.y.y.y.y.q.9.2.2.9.2.2.2.2.9.9.<.t.t.u.y.y.r.r.r.r.t.t.9.9.9.7.1.<.9.9.9.2.9.7.>.>.-.>.>.>.-.-.-.-.-.b b b c w >.7.<.<.<.<.%.c %.c c %.",
"7.7.q.q.7.<.<.<.<.<.<.2.2.2.2.2.<.,.>.>.,.>.q.u.u.t.u.r.9.9.9.6.q.9.q.9.6.q.9.w.c.u.y.y.q.y.y.y.t.t.9.9.9.9.9.9.9.6.q.q.q.9.,.,.>.>.<.>.-.;.;.;.>.-.c b b c >.7.2.<.2.<.-.%.%.%.%.c ",
"7.7.7.7.0.<.7.<.2.2.<.9.2.2.9.2.9.<.<.<.<.<.r.u.u.u.c.u.q.6.t.g.w.q.w.t.q.q.q.t.z.c.u.c.y.t.u.y.g.t.9.9.9.6.6.9.r.e.&.q.q.q.7.<.<.<.<.<.:.;.,.:.:.>.-.-.b -.:.r.7.9.9.7.>.%.%.%.%.%.",
"7.<.q.7.7.<.7.<.2.2.9.9.6.9.6.6.7.<.<.<.7.<.q.c.z.u.z.y.r.q.q.t.q.9.r.r.r.r.t.r.z.z.z.z.r.r.y.y.r.z.9.9.0.7.0.8.0.r.r.r.r.0.8.8.8.7.7.<.<.<.:.:.:.,.;.-.;.-.:.q.q.9.q.9.,.%.-.%.%.%.",
"7.7.7.q.0.<.q.2.9.2.9.9.9.q.t.9.q.q.q.9.q.9.t.u.8.S S S S S C v S C S S S S S S l.D F F F C C C V N V V V V B B B 8X8X8X9X0X9X8X8XpXq.q.<.<.4.<.<.<.,.;.>.;.<.q.q.q.9.9.;.-.-.-.-.Q ",
"7.<.7.q.0.<.q.5.q.q.5.q.w.q.w.t.q.r.w.q.q.q.t.r.v i g =Xj k k k s M M B k k t k k M =XV F B -X&X&X&X;X-X-X-X;X-X;X-X;X>X;X>X6X;X*XyXq.5.2.2.2.<.2.2.<.<.<.;.<.e.t.q.t.q.;.-.-.-.-.%.",
"7.q.<.7.q.2.q.q.q.w.q.q.t.t.t.e.q.t.q.t.t.q.u.q.l p &X-X=Xk : k s M k k @ @ @ : k d ;XF 0.N :X%X-X-X-X-X;X;X;X-X-X;X;X;X6X6X7X7X=XyXr.q.2.2.5.2.2.1.2.2.<.2.5.e.t.t.t.q.,.;.;.-.-.%.",
"<.q.9.q.q.<.q.q.q.q.q.w.t.t.e.u.t.t.t.t.t.t.u.r.l #X@X&X-Xh g *Xj ;X,X,Xj j j j j =X%X;X,X%X-X-X-X&X-X;X6X>X;X;X&X;XwX*X;XwX9X7X3XyXt.q.4.5.5.5.2.q.1.q.4.2.q.u.t.t.t.q.<.;.;.;.-.-.",
"7.<.2.q.9.q.q.q.w.t.q.e.j.u.h.j.t.t.u.u.u.t.j.r.M $X&X-X-X%X4X%X%X-X:X:X%X:X:X&X-X:X-X-X:X-X:X>X-X;X-X;XwX6X-X6X&X1XnX*X;X>XwX>X>XZ t.w.6.5.w.5.5.w.2.w.w.1.q.u.u.u.t.t.2.,.;.;.;.;.",
"<.q.7.q.9.q.t.q.t.t.t.u.j.j.j.j.t.u.u.u.u.t.c.c h 4X-X%X4X%X%X%X%X-X-X-X-X-X:X-X-X:X4X:X>X4X>X5X:X7X>X:X9X4X;X6X;X>XwX>X>X6X6X*X*XV c.r.w.6.5.w.6.w.w.w.6.2.w.u.u.u.y.t.<.<.;.%.-.%.",
"9.<.7.5.9.q.t.w.t.e.r.h.j.j.j.c.j.z.j.u.c.u.j.l #X@X%X@X%X@X%X%X%X%X%X-X-X4X-X;X:X:X:X:X-X:X:X:X:X;X:X:X-X-X-X-X4X4X>X;X>X7XeX3X=XrX/.t.6.6.w.1.6.e.w.w.w.w.w.u.u.u.u.t.<.;.,.;.%.;.",
"<.2.<.q.2.q.t.t.e.u.t.j.j.j.c.c.u.c.c.c.j.j.u.C %X@X@X%X4X%X-X%X$Xj F V <X>X:X&X=X=Xj 3X2X2Xj -X&X$X#X@X>X9X;X;X;X;X;X;X>XuXiXeXuXbX`.e.w.w.6.w.w.h.e.e.e.w.t.j.j.z.j.t.9.,.;.;.;.;.",
"<.7.<.5.9.q.t.e.u.u.h.j.c.~.j.v.c.c.c.c.c.j.z.F 4X4X4X@X%X%X-X&XM k._._._.k.rXhXjXfXxXxXxXxXxXzXsXF 0X=XuXnXwX,X;X6X6X;X*X9XwX,X7XrX~.e.w.w.w.w.6.u.h.g.g.w.t.~.j.u.u.u.7.<.<.;.;.;.",
"<.7.2.q.2.q.t.t.y.u.u.u.~.~.~.^.~.~.~.~.~.~.y.A -X4X#X#X%X%X%X=Xk.n.v._._.v.v.vXfXkXxXkXfXzXgXxX!.!.BXjXhXuX1X>X>X>X6X6X7X9X4X-X:X8Xz.h.e.g.g.6.6.h.j.h.h.e.e.j.j.z.c.u.9.<.1.,.,.,.",
"<.<.2.2.5.q.u.u.u.u.u.j.~.^.~.~.z.~.~.~.~.~.9.B 4X4X-X#X#X#X-X:XM M v x z 0.vXzXfX!.!.fXfX!.kX!.!.kXBXVXhX#X;X>X6X6X6X7X5X4X4X4X>X1Xl.g.w.w.g.6.6.j.d.j.j.e.t.~.c.c.u.u.9.<.,.;.;.%.",
"<.<.7.q.q.q.u.u.u.~.u.u.~.~.^.^.U.~.^.~.~.U.0.8X4X4X#X#X@X$X-X-X-X;Xl 0 > l pXzXfXkXgXxXdXx.zXl.!.x.BXzX8X@X-X;X>X;X:X-X:X:X4X:X-X1Xl.u.g.g.w.g.w.U.j.j.j.h.e.~.c.c.c.t.<.<.,.,.;.%.",
"<.7.7.9.9.q.u.u.u.U.u.~.~.~.~.^.u.~.~.~.^.^.l.2X4X4X#X#X@X$X:X:X;X-Xa B N a #X<XqXyXhXjXjXzXjXpXyXrXqX*X%X@X%X;X;X-X-X-X:X:X4X4X-X;X8.h.g.g.g.6.w.U.j.j.j.u.t.~.c.c.c.u.2.<.<.,.,.,.",
",.<.7.9.9.q.z.u.~.u.u.u.~.~.~.^.j.^.~.^.^.~.l.1X-X-X#X#XB rXrXeXrXrXqXqXwX6XwXqX8X8X0XqX8XqX8XB 2Xg 6X8X>X,X8X7X3X6X=X;X&X-X:X:X&X:XS g.g.6.g.g.6.U.U.j.j.j.t.~.c.c.j.t.2.<.<.<.;.,.",
",.<.2.9.9.q.u.j.u.U.u.U.^.~.~.~.j.^.^.^.^.j.S >X4X-X#XqX&.n.f.*.b.=.b.n.vXpXb.=.jXjXb.b.pXlXaXlXdXqXjXv.aX&.&.f.lXx.x.aXqX:X;X&X@X-XC r.g.g.g.g.w.U.U.U.U.j.t.~.c.c.c.u.2.7.<.,.;.%.",
"<.7.2.9.9.q.z.j.z.U.u.z.~.~.^./.U.^.^.~.v.t.C 4X4X-X#XpX*.lXn.=.=.=._.MXzXzXH =.f.VX*.H MXoXf.n.n.yXvXH vXMX=.lXMX=.MXoXlX0X:X&X-X-XN e.g.g.g.&.w.U.~.U.U.j.h.~.c.c.c.t.9.1.1.,.;.;.",
",.,.<.2.9.q.u.j.U.~.u.~.~.~.~.~.U.~.^.^.^.t.V 4X;X;X#XaX*.x.F vX=.f.oXaXBXf.=.n.H MX=.MXf.f.f._.f.hXlX*.VXHX^ zXzXn.n.n.n.qX&X&X#X-XM e.g.g.g.6.w.U.~.~.j.c.u.~.c.c.c.u.9.<.<.,.;.;.",
"<.,.<.9.2.q.j.c.c.c.u.j.~.~.~.^.j.~.^.^.^.t.8X4X:X%Xa dXx.8X*XhXn.b.b.b.lXf.jXpXP.lXd.mXlX^ n.lX=.b.d.n.HXBXY.xXzXf.n.n.f.uX=X;X&X&Xh t.g.g.g.g.h.U.^.c.c.j.u.~.c.c.z.u.2.<.<.,.1.%.",
",.7.<.2.2.q.j.u.c.c.u.j.~.~.~.~.~.^.^.^.v.z.<X>X-X-Xy 8Xj u u &X1X8X8X8X9X8X,X,X0XsXyXqXqXyXyXqXyXpXpXhXHXmXhXA 2XrXpXaXyX3X:X3X&X$Xj 0.g.g.g.g.g.^.c.c.c.j.u.~.c.c.c.t.2.2.<.<.;.;.",
",.<.<.2.2.q.c.j.u.~.u.c.~.~.~.~.U.^.^.^.^.8.>X4X4X#Xy y u $X$X%X#X#X-X*X$X$X,XqXwX0X3XwXqXj 2X=X2X8X,X,XbXsXf f u u $X$X$X$X&X1X#X@Xa 8.g.g.g.6.g.j.c.^.c.c.u.j.c.z.c.u.2.1.,.,.<.%.",
",.<.<.<.2.q.z.j.c.~.u.j.~.~.~.~.u.^.^.^.c.S >X-X-X#Xy u a $X$X$Xp p p p g &X=X9Xh eX0X7X0Xj 0Xj 0Xj &Xg &X$Xf f @X;X=X$X$X&X*X1X*X#Xa m g.g.g.g.g.U.~.^.~.~.u.~.c.c.j.u.2.<.<.<.;.%.",
",.<.<.5.<.q.c.z.c.~.u.U.~.~.~.~.U.~.^./.c.v 4X4X4X#Xp a #Xp r @ 2 8 x z l t g =XwXsXsXsXsXsXsXsXsXtXB g f f f f $X,X=X:X&X*X&XwX=Xf g m g.g.g.6.6.~.^.~.~.c.u.U.c.c.c.y.2.2.<.<.;.;.",
",.,.<.2.2.q.u.c.z.c.u.j.~.~.~.~.u./.^.^.u.C 4X%X-X#Xa a p + 5 p.F.I.K.R.@.) @ h 0XnXJXCXxX!.!.gX!.!.cXjXB f f h h A h j g f f uXg f y C 6.g.g.g.g.U.~.~.~.~.u.~.c.c.j.u.9.<.<.;.<.%.",
",.,.:.<.<.q.~.u.j.c.u.j.U.~.~.~.~.^.^.^.q.M 4X4X-X*Xa a r 4 ) 5 ' F.e ) F.I.m.@ j sXmXmXxXD D D xXD mXCXmXS.V.Z..XOXZ.V.m.3.N sXj g i F g.g.g.g.e.~.^.~.~.c.u.c.c.c.j.u.2.2.<.,.;.;.",
";.,.<.<.<.q.z.j.j.~.u.j.~.~.~.~.u.^.^.^.,.M 4X4X-X#Xp a s i.i.) 6 ) F.F.I.W.R.@ h N BXCXmXD gXxXQ.!.xXcXCX/.Z.Z..XAXOXV.Z.Z.Z..XP.3.v l.h.g.g.g.w.U.~.~.~.~.u.c.c.c.j.t.2.2.<.,.,.%.",
",.,.<.<.<.q.j.z.u.~.u.u.U.U.U.~.j.^.^.~.c M &X#X=Xf f B l m.G.G.S.+.K.K.m.W.P.z 3.S.xXSXxXD fXxXD !.!.xXmXe.X.G. XGXNX| N.| A..X.XZ.A.W.j.w.g.g.6.~.^.^.~.~.u.~.z.~.u.u.9.2.<.<.;.;.",
";.;.<.<.2.q.c.c.~.~.u.U.U.Q.~.~.j.^.^.~.7 m.S.3.D l v yXv F.G.K.D.M.K.p.4.+XBXV.Z.m.S.`.xXxXgXgXgXxXxXkXU.M.m.W.|.+XNX/ ] { R.R.ZX).J.OXU.g.6.g.w.c.^.^.~.~.u.~.~.u.j.u.2.<.<.;.;.;.",
";.;.<.<.<.q.c.u.u.~.u.u.U.u.U.~.j.^.^.j.5 m.Z.Z..XV.V.ZXl ' K.I.+.' K.M.D.P.`.V.C.{.C.B.P.(.`.`.`./.P.Y.H.{ { s.{.}.NXB.#.] K.K.ZXVX).lX(.g.g.g.w.~.^.~./.~.U.U.u.j.j.u.2.2.<.,.<.-.",
";.;.<.2.2.q.u.u.u.~.u.y.U.~.U.U.j.^.^.j.4 ! ] C.G.( ( /.1 M.D.G.D.D.K.@.M.e > ] $.B.#.B.m.H.m.O.@.G.E.I.$.] K ..X.$.NXB.X.E W o.T.MX'.NXcXi.w.g.w.~.^.~.~.~.y.U.~.z.z.u.2.2.,.<.;.-.",
";.;.1.<.2.q.u.j.z.U.u.u.u.~.U.U.j.^.^.q.Q ..O.s.X.K P 1 6 ' m.@.M.p.I.@.e e   < X.M.{ / J.[.].s.@.+X XK.M.R ~ C.N.| ].~ ] H... .p.NXSXVXDXh.h.h.w.^.~.~.^.~.u.U.c.c.j.u.2.2.:.,.;.;.",
";.;.<.<.<.q.u.z.u.~.u.u.U.U.U.U.u.^.^.<.) E a.#.( ; 3 1 6 ( S.* % * ) p.3 6 * O ] G.} J Y L.E.NX).SXGXNXG.L T ].C.N.N.| ! }.[.} R VXGXVXJXj.h.h.w.U./.~.~.~.y.U.c.c.u.u.2.2.2.2.:.>.",
";.;.,.<.<.q.u.z.u.U.u.U.U.y.U.U.u.^.^.;.U L T L G Y % Y 3 Q ) # > & $ ) 3 3 ' o ; [ M.s.F.R.R.R.NXGXFXFXFXn.I #.].].].#.L  .|.H./ _.NXNXJX(.h.h.h.~.^.^.^.~.U.U.c.c.u.t.2.2.2.<.<.>.",
";.;.,.<.<.q.u.u.u.U.u.t.U.u.U.u.u.^.^.%._ a.@.[ L 9 * ' 3 1 ) # $ - 6 ' 3 8 m.1 % X.R.).XXR.I.R.I.XXZXFXFXSXM.} | N.} ~ T ~ [.}. .J.Y.J.VX(.j.h.h.~.^.~.~.~.U.U.j.z.j.u.q.2.2.<.<.>.",
"%.1.,.,.<.q.j.t.u.U.u.e.u.U.U.U.u.^.v.;.E p.p.X.] - 6 ' _ 6 _ & $ ) H.` 1 ) D.) . ] ] M.].a.a.s...~ +XFXGXGXXX$.N.N.{ ..}.H.T. .a.XXJ.J.).(.h.Y.U.~.^.~.^.~.u.U.j.z.j.t.q.2.q.2.2.,.",
"%.,.,.<.<.9.t.j.u.z.u.u.U.e.e.U.u.~.c.%.& ;  .O.{ * 6 _ @.+.M.5 $ 9 K.` Q D.+.' . ( K W N.L U J.O.~ s.XXOXZXZXXXB.].} ..}.[.+Xi.^.+X}.T.i.^.j.j.e.~.~.^.~.~.u.j.c.u.j.t.5.q.2.2.7.,.",
",.,.,.<.9.9.t.j.u.u.t.u.e.u.u.U.u.c.~.w ; G J Y / * 6 +.+.( m.4._ p.G.i.p.K.m.S.. o.] a.[.} a.XX|.[.].].].].].O.^  .^ L [ J.+XT.).E.[.[ ~ Y.j.j.e.~.^.~.~.~.u.u.j.z.u.t.q.q.9.9.9.,.",
";.;.,.1.<.9.t.t.t.u.u.t.e.S.e.U.u.j.j.>.[ K G _ ( 3 %  .' ' M.' o.G.p.i.+.K.@.e X { ~ s.].| [ T.].].{.].].} | #.~ G T ..p.M.oXY.i.#.[.#.} &.j.~.U.~.~.~.~.~.u.U.u.u.u.t.q.r.q.9.q.<.",
"%.;.,.<.<.9.t.t.t.u.t.t.u.S.e.e.t.c.~.z.W ; J E _ 4 X 1 ) _ M.+.@.G.F.+.F.G.' % Y } P a.[.N.! ~ ..[ ..#.M.{ {  X[.} I $.{.].s.5.a.{.{.H.R 2.U.~.U.~.~.~.~.U.y.u.u.u.u.t.q.q.q.9.9.<.",
";.;.,.,.<.9.9.t.t.t.t.e.e.e.e.e.u.j.fX!.< = J W ( J = % O 1 ) ) ' ' ' ' ' 1 O ) M.| ]  .L.H...E.R.H.X.[ P P T H.{.{.N.] X.X.E ~ ].]...! R 6.~.~.e.U.~.~.U.U.y.y.t.u.t.t.q.r.w.9.9.<.",
";.;.,.,.<.9.t.t.e.r.e.q.t.e.e.e.e.u.gX,.; = < ` ( ( / _ 5   5 . : * % O 1 o ' D.O. .] K J E U a.T.K.J.a.O.R ] } ].].[.#.~ C.s.} [ d.#.I H.w.c.~.u.U.~.U.U.U.e.e.t.t.t.q.q.r.q.q.q.<.",
";.;.,.,.,.9.9.9.q.y.q.q.6.q.w.w.r.t.z.Q K ; = _ ( ( ( ( <   3   e @._ . 6 O M.{ ] W ( / ;  .p.#.@.G.T.K.J./ R ......[.$.X.T.}...E E.H.~ #.5.~.~.u.U.~.U.u.U.t.t.t.t.t.q.w.q.r.9.0.<.",
";.1.%.<.,.<.9.q.q.q.q.q.q.w.q.e.r.r.%.Q E K = J ( ( ) ) 4 o % . 8 4.-.o 5 o g.6.` 1.T.T.O. ./ #.$.$.G.$.X.~ E ] R T R.[.H.#.[ L #.}.H...L.e.c.c.j.c.c.j.u.U.q.t.t.r.r.9.9.r.t.9.0.<.",
";.%.,.,.<.7.9.9.9.q.9.q.q.5.6.6.q.9.4 U Y K < = = 1 7 7 z @ o . z v m o : @ l.8.m %.T.T.s.#.G O...L G R #.a.#.{ I K R ~  .#.! ;  .H.~ [  Xe.c.~.h.j.u.u.u.u.q.e.q.q.q.7.6.r.r.9.q.,.",
";.;.;.,.:.<.7.7.9.9.9.9.5.5.5.5.9.8.w - 6 K 4 < J ; 4 ) Q 9 3 w :.y.r.<.Q Q Q i.i.~ } O.a...~ }.[.} E J.}.H.$.O.O.M./ E s.T.$.T.K.p...[ X.g.j.j.u.u.u.u.t.t.q.q.q.q.7.<.9.t.q.0.q.>.",
";.;.;.,.:.:.<.<.7.7.<.2.7.7.5.5.9.8 - & & < J ; J P ( +.( R G K / E.E.G.X.T p.T.T.J.} L U K R J.s.#.$...E  .T. XR.W.j.h.).s.XX+XoXs./ L @.e.u.j.e.u.u.t.e.e.q.q.q.7.9.7.0.r.r.q.q.7.",
";.;.;.;.-.:.<.>.>.7.<.<.2.5.5.2.7.7 % ; < < K J ; J _ i./ ( / / T T.).J.$. .E.E.T.O.T ~  .O.{ T s.#.$.$.L a.XX}.|.(.T.|.a.1. XT.i.E ; U i.2.u.j.t.t.e.t.q.e.q.2.<.7.<.<.0.r.q.q.0.>.",
";.%.;.;.;.;.>.>.>.<.>.<.:.:.<.3.<.7 % - - & * 4 J = < J W 6.i.p./ ` i._ _ Y 4 5 9 - , Q 2._ _ G ~ H.a.a.~ a.}.}.s.a.J.$.Y ; i.` ` ;.,.r.j.j.z.j.t.w.q.q.q.q.5.<.<.<.7.>.9.0.q.0.q.7.",
";.-.;.-.-.;.;.>.>.>.;.:.:.:.:.:.:.c > 1 > % > > * % > * , 1 > > > 3 7 7 7 8 8 0 x q 0 0 0 7 3 , 3 3 5 Q E ) g.i.1.1.Q ;.Q %.<.2.6.9.2.w.h.z.z.j.t.q.q.q.5.q.<.<.>.>.>.>.0.r.q.0.q.8.",
"%.;.-.-.-.;.-.-.b :.;.:.:.:.:.:.:.8.n b :.:.>.;.) -.;.,.-.-.>.-.%.:.<.<.<.>.<.:.;.-.-.;.;.2.<.;.2.<.9.9.q.q.6.9.2.2.9.9.6.2.9.9.2.9.2.r.u.t.y.u.q.5.5.q.5.<.<.:.>.:.8.b 0.q.q.q.q.7.",
"%.-.-.-.b b b b n -.b :.>.:.-.:.>.b -.b >.b ;.-.-.-.-.;.-.%.-.c %.>.>.>.>.>.-.:.%.-.%.>.-.<.;.,.,.,.<.9.2.2.2.4.<.2.2.<.2.2.2.2.2.2.<.9.u.t.r.y.q.<.5.<.7.<.:.;.>.>.b n 7.0.q.q.q.7.",
"c -.c c b b b b c c b >.b -.:.e -.b b b b b -.-.c -.%.-.%.w w c w -.>.-.;.-.b >.%.%.%.%.-.;.-.;.;.%.;.9.2.2.<.<.<.<.<.<.,.:.2.,.<.<.<.9.r.r.r.r.q.<.<.<.<.:.,.n b b b c 7.r.q.0.0.7.",
"w c c c c b b e w w b b b b b e -.c w c c c c c c w c c w w c 0 w %.c c c c c b c c Q w c %.%.%.%.%.;.7.<.;.:.;.;.:.:.;.;.;.,.,.,.,.:.7.r.q.q.r.7.<.:.:.:.<.>.c c c c c 7.q.q.0.q.7.",
"w w w w w c x e w w q b e b e b c w q w w w c x w w w w w q w 0 0 c c 0 w w c c q 0 c w c w w w w 0 %.;.;.;.-.;.;.-.;.;.;.;.;.;.;.;.-.<.q.q.0.q.7.:.;.;.;.;.b 0 w q q q 7.q.0.q.q.7."
};
