/* XPM */
static char *_646628a958c477ea4f5eb19fd678680VMVNfFV3hPd8FAaQ[] = {
/* columns rows colors chars-per-pixel */
"44 44 227 2 ",
"   c None",
".  c #1C1C34",
"X  c #1E1E3A",
"o  c #1B173A",
"O  c #221D34",
"+  c #231C3B",
"@  c #1E203B",
"#  c #1B2133",
"$  c #23213B",
"%  c #272539",
"&  c #32233B",
"*  c #1F1F41",
"=  c #241D42",
"-  c #311D42",
";  c #232343",
":  c #2C2448",
">  c #2A2748",
",  c #362648",
"<  c #282450",
"1  c #352557",
"2  c #363657",
"3  c #34374A",
"4  c #3C3C65",
"5  c #482B57",
"6  c #46335D",
"7  c #543255",
"8  c #623D5E",
"9  c #463665",
"0  c #593767",
"q  c #5C3973",
"w  c #443274",
"e  c #643F67",
"r  c #64357E",
"t  c #3F4057",
"y  c #414052",
"u  c #4A4769",
"i  c #584A67",
"p  c #53546A",
"a  c #4B4975",
"s  c #514C7A",
"d  c #5A5B7B",
"f  c #535375",
"g  c #69486D",
"h  c #6E4B7B",
"j  c #79567A",
"k  c #6E507C",
"l  c #67677B",
"z  c #523888",
"x  c #583D96",
"c  c #5E3EA5",
"v  c #6B3CA4",
"b  c #595785",
"n  c #5E459D",
"m  c #5F408B",
"M  c #6C4285",
"N  c #625C89",
"B  c #764B9D",
"V  c #64449F",
"C  c #646689",
"Z  c #6E748D",
"A  c #676591",
"S  c #717293",
"D  c #78779C",
"F  c #717190",
"G  c #5D41A3",
"H  c #6C45AE",
"J  c #6442A9",
"K  c #7A47A7",
"L  c #6853A9",
"P  c #6B44B1",
"I  c #794CB3",
"U  c #746FA9",
"Y  c #7E77B6",
"T  c #7E7DA3",
"R  c #7A4EC2",
"E  c #7A52C3",
"W  c #7B55CB",
"Q  c #7855C7",
"!  c #7D54D1",
"~  c #894D9B",
"^  c #8B5998",
"/  c #965B97",
"(  c #9C6597",
")  c #8E6098",
"_  c #A76897",
"`  c #A7739F",
"'  c #945AA3",
"]  c #8E5BBC",
"[  c #8A53AA",
"{  c #A75BAC",
"}  c #A35CB5",
"|  c #A45AB9",
" . c #A95AB8",
".. c #B35BB9",
"X. c #9D63B5",
"o. c #877CB5",
"O. c #9070AE",
"+. c #B979AA",
"@. c #A865B6",
"#. c #B769B6",
"$. c #B172B4",
"%. c #C86EB4",
"&. c #CB7BBB",
"*. c #D073BE",
"=. c #8254CC",
"-. c #855ACA",
";. c #8054D0",
":. c #A15CC0",
">. c #9961CA",
",. c #8B7AC6",
"<. c #886BD2",
"1. c #926FD6",
"2. c #A966C8",
"3. c #B96EC4",
"4. c #B678C7",
"5. c #AC7ECB",
"6. c #CD7BC4",
"7. c #C477C7",
"8. c #D37AC9",
"9. c #D07DD1",
"0. c #E77FC8",
"q. c #7E8197",
"w. c #91949E",
"e. c #848898",
"r. c #8583A6",
"t. c #8A88B8",
"y. c #908FAB",
"u. c #A9AAB2",
"i. c #A9AAB7",
"p. c #B6B6BD",
"a. c #C589B7",
"s. c #D788BA",
"d. c #E389BF",
"f. c #8A84C9",
"g. c #938DC7",
"h. c #9999C9",
"j. c #958DD3",
"k. c #9D94D6",
"l. c #B783C7",
"z. c #A79CD7",
"x. c #BA98D9",
"c. c #BA93D0",
"v. c #AEA9DD",
"b. c #A9A7D4",
"n. c #B4ADDB",
"m. c #B5B6D9",
"M. c #ABA9CC",
"N. c #9F98E1",
"B. c #ABA6E2",
"V. c #B6ABE3",
"C. c #B9B7E5",
"Z. c #BFBEF2",
"A. c #DA8CC6",
"S. c #DA85CA",
"D. c #D986C6",
"F. c #C194CD",
"G. c #DC95C6",
"H. c #DD95CA",
"J. c #DE87D1",
"K. c #D79AD5",
"L. c #E586C4",
"P. c #E38AC2",
"I. c #E285CA",
"U. c #E688C9",
"Y. c #EC9CCC",
"T. c #E993CC",
"R. c #F19DCE",
"E. c #E68AD1",
"W. c #EC9FD5",
"Q. c #E496D4",
"!. c #F19DD4",
"~. c #D6ACDB",
"^. c #C7BBDD",
"/. c #D0AAD3",
"(. c #E7A7D5",
"). c #F4AADA",
"_. c #FCBADF",
"`. c #F8B4DB",
"'. c #C4BEEB",
"]. c #C8B8E5",
"[. c #CCB5E5",
"{. c #FEB6E4",
"}. c #FCBAE2",
"|. c #FABCE4",
" X c #E7BFE4",
".X c #BEC0E7",
"XX c #C7C9DD",
"oX c #C9C9CE",
"OX c #CBCBE3",
"+X c #C5C5EC",
"@X c #CACCEB",
"#X c #C8C6E9",
"$X c #D3CEEC",
"%X c #D4C8E7",
"&X c #D4D3EC",
"*X c #DDDBEC",
"=X c #D8D3E6",
"-X c #CBCDF2",
";X c #C6C8F2",
":X c #D3D2F2",
">X c #DAD8F4",
",X c #CED1EF",
"<X c #E8C8E3",
"1X c #FBC3E2",
"2X c #FBCAE4",
"3X c #F9C6E8",
"4X c #FAD4EC",
"5X c #E2DDF3",
"6X c #EFDAEE",
"7X c #DDE1EE",
"8X c #DDE2F1",
"9X c #E2E3EE",
"0X c #E9EAE9",
"qX c #E2E5F2",
"wX c #ECECF6",
"eX c #ECECFA",
"rX c #E6E5F6",
"tX c #F3E9F4",
"yX c #FCEDF9",
"uX c #F6E8F8",
"iX c #EFF1FA",
"pX c #F4F3FB",
"aX c #FBF4FB",
"sX c #F6FAFC",
"dX c #FBFCFD",
"fX c #F7F7F6",
"gX c #F0F0EC",
/* pixels */
"                                                                                        ",
"                                                                                        ",
"                                                                                        ",
"                                                                                        ",
"                                    + + + + O O                                         ",
"                                , k _ _ _ _ _ ( i & &                                   ",
"                                g ` (.Y.R.Y.R.Y.( g i                                   ",
"                              5 +.).{.1X1X3X3X{.{.(.a.7                                 ",
"                            7 &.).{.3XyXaXaXyX|.{.}.).s.g &                             ",
"                          k ` P.`._.2XaXdXdXaX|.{.{.{.).+.j &                           ",
"                        6 ( E.Y.`._.2XaXdXdXaX1X_.{.{.|.W.+.8                           ",
"                      , / *.Q._.|.}.1XyXaXaXyX1X{._.1X|.(.P.a.5                         ",
"                    6 ^ 6.0.T.}.{.{.{.1X1X1X1X{.}.2XyXyX=X~.S./ 0 ,                     ",
"                  @ 6 @.S.L.T.}.{.{.{.{._._.{.{.}.4XdXdX*X[.J.6.^ e -                   ",
"                  6 r  .D.G.(.2X}.{.{.|.3X3X_.{.}.4XdXwX:X[.S.U.*./ 5                   ",
"                X h | ..D.~.$XuX2X_.{._.uX4X_.{.{.2XuX%X].~.A.P.E.6.) ,                 ",
"                o M |  .[.+X+X$XuX4X{.|.1X1X_.{.!.T.Y.G.H.T.A.~.Q.6.' ,                 ",
"                q O.l.@.].;X+X+X5X<X(.!.!.!.W.W.T.P.L.L.I.U.I.K.Q.8.{ M 9               ",
"              : ' x.x.X.x.].+X+X^.K.s.L.L.L.L.L.P.d.P.L.I.I.L.D.S.7... .q :             ",
"              : ' >.:.| X.x.#X].K.A.L.D.S.J.I.I.I.S.S.S.S.D.D.L.%.{  .} q >             ",
"              > z.4. . .} @.4.K.J.E.6.~ ] >.>.>.>.] K K K B ~ 8.I.7.} X.q :             ",
"              3 m.l.}  .3.%.#.@.3.3.2.K E W ! ! ;.R P H H H I 2.2.@.3.@.q :             ",
"              > x.5.| ..7.8.3.v R =.=.Q <.1.1.<.<.<.<.<.-.Q Q =.H [ 7.' 0 ,             ",
"              : ' } #.9.B I -.W W =.E n z.:XrX#X.X'.'.'.O.x c E E I m 1 ,               ",
"                5 ( 7.2.E W E J G ,.V.^.qX8X=XwXwXwXeXwX^.o.x V w 1 <                   ",
"                  j ^ I ! Q P x L z.rXdXwX7X*X<X<X<X^.aXeXM.9 4 1 = ;                   ",
"                  , 1 z L n z x ,.#XdXsX&X*XuXG.A.7.$.tXdXi.. =                         ",
"                      + = = = < Y %XdXfX&X*XuXT.U.8.#.tXsXu.O                           ",
"                            3 @ Y %XdXfX$X8XtX$.#...@.tXsXu.. > ;                       ",
"                            u a ,.].wXdX5X7X*XF.c.F.F.pXdXu.O 4 a d                     ",
"                          > u k.k.V.:XsXdX9X=XuXpXpXpXfXsXu.> t.C.h.2                   ",
"                        + Z m.Z.N.B.:XsXdXfXiX,X@XOX=XpX5Xy.< f.k.b.b.4                 ",
"                      > b h.n.C f.z.v.C.:XwXsXrXrXqXqX*X-Xn.T s u A B.U a               ",
"                    p a f.h.r.p g.v.n.n.V.$XwXwXwXeXrXC.Z.+X'.l p d U j.b ;             ",
"                  % u j.j.b p XXOX5XsXpXn.v.+X;X+X+X.Xg.V.@X@XwXpXp.2 o.s >             ",
"                  % 9 g.4 S m.+XeXsXdXdXeXOXb.;X;X-Xm.4 y.&XpXdXdXgXoXu ; >             ",
"                    u a X D :XqXsXdXsX9XsXi.f C C C b $ r.>XsX9XwXdX0Xy .               ",
"                      > . D -XsXiXfXpXOXpXw.o ; % ; ; . r.:XfXOX9XsX*Xt                 ",
"                        + N V.eX&X9XiXOXeXw.@         @ A m.iX@XqXeXm.2 @               ",
"                        O N B.:X@XqXpX@X:Xq.X           2 C :X-X:X+Xh.2 #               ",
"                          u N F Z q.e.F F d               p S S S A d 2                 ",
"                            $ $ $ $ $ $ $                   ; $ * ; ;                   ",
"                                                                                        ",
"                                                                                        "
};
