/* XPM */
static char *_23b4f0969ee46d5e213b814c39ca14chWxZNDutyfpJ8NRr[] = {
/* columns rows colors chars-per-pixel */
"32 47 200 2 ",
"   c None",
".  c #191E39",
"X  c #1D2435",
"o  c #17273E",
"O  c #222536",
"+  c #292737",
"@  c #24253B",
"#  c #25303C",
"$  c #1D2C42",
"%  c #1B3344",
"&  c #1F3D4E",
"*  c #2A2D46",
"=  c #232844",
"-  c #2D354C",
";  c #243C4B",
":  c #2B3B4C",
">  c #273947",
",  c #323245",
"<  c #34364C",
"1  c #393849",
"2  c #253C52",
"3  c #413F4E",
"4  c #23404A",
"5  c #35434F",
"6  c #294858",
"7  c #334758",
"8  c #32525C",
"9  c #364F65",
"0  c #334D68",
"q  c #2F5865",
"w  c #365469",
"e  c #355C6C",
"r  c #3A5965",
"t  c #3D636E",
"y  c #3F6877",
"u  c #4C4D5C",
"i  c #464452",
"p  c #4C4D63",
"a  c #415467",
"s  c #4D5C67",
"d  c #4B526A",
"f  c #565661",
"g  c #5C5B6B",
"h  c #405F7A",
"j  c #42606A",
"k  c #44696F",
"l  c #4A6D74",
"z  c #42677A",
"x  c #446C79",
"c  c #466072",
"v  c #506672",
"b  c #467A7F",
"n  c #646A7A",
"m  c #BF804F",
"M  c #DB9A5C",
"N  c #D69C61",
"B  c #C19378",
"V  c #C99D6B",
"C  c #D2A873",
"Z  c #E0A963",
"A  c #ECBA61",
"S  c #E4B16D",
"D  c #E9B76A",
"F  c #F1B968",
"G  c #F1C36A",
"H  c #F5C976",
"J  c #4F7483",
"K  c #537681",
"L  c #697B87",
"P  c #797A84",
"I  c #737587",
"U  c #4C878B",
"Y  c #56888E",
"T  c #4B8C90",
"R  c #548292",
"E  c #5B8690",
"W  c #5E9397",
"Q  c #7F9D86",
"!  c #6D909D",
"~  c #7A989D",
"^  c #6D8594",
"/  c #5C9DA4",
"(  c #5D96A4",
")  c #619AA1",
"_  c #6A9FA5",
"`  c #609CAE",
"'  c #7C96A0",
"]  c #5AA4A4",
"[  c #65A2A9",
"{  c #7EABAA",
"}  c #6AB1AD",
"|  c #6EA5B1",
" . c #63ABB0",
".. c #7BABB6",
"X. c #67BBBC",
"o. c #74B0BC",
"O. c #6ECACC",
"+. c #78C5C9",
"@. c #77C9D7",
"#. c #84818C",
"$. c #838286",
"%. c #878B94",
"&. c #8F919B",
"*. c #94969D",
"=. c #969B9D",
"-. c #AE9089",
";. c #ADB196",
":. c #BABC9E",
">. c #8A9EA7",
",. c #999CA3",
"<. c #82A3A8",
"1. c #98A2A7",
"2. c #86B9B8",
"3. c #A3A4AB",
"4. c #ACA9AE",
"5. c #A8ACB3",
"6. c #ACBFBA",
"7. c #CA9A89",
"8. c #D7AB8D",
"9. c #DEB98D",
"0. c #C4BFA2",
"q. c #8BC0BF",
"w. c #B2C8BA",
"e. c #D7C194",
"r. c #EAC68C",
"t. c #E6C88B",
"y. c #F3D48C",
"u. c #F4D699",
"i. c #F4CD89",
"p. c #D9C5B8",
"a. c #E3C7A9",
"s. c #EFD4BA",
"d. c #F6D9A1",
"f. c #86B8C6",
"g. c #97BEC5",
"h. c #BBB9C1",
"j. c #A9BBC2",
"k. c #8CCCCC",
"l. c #87C3C5",
"z. c #92C4CE",
"x. c #99C2C0",
"c. c #9DD0CD",
"v. c #86D2D4",
"b. c #8ED3D1",
"n. c #96D3D5",
"m. c #93DCDC",
"M. c #8FCAD6",
"N. c #AACFC9",
"B. c #BAC6C9",
"V. c #BEC2DB",
"C. c #A2D9DC",
"Z. c #A6D4D4",
"A. c #BBD5D5",
"S. c #96D5E2",
"D. c #A5DDE3",
"F. c #AEDAE2",
"G. c #ACD4E2",
"H. c #B9DCE3",
"J. c #ABE3EA",
"K. c #BEE3E1",
"L. c #C3C6C9",
"P. c #C3CDDA",
"I. c #CCD7DC",
"U. c #C8D8DA",
"Y. c #DCDBDE",
"T. c #D7D4D9",
"R. c #DBCCC8",
"E. c #E3D7CE",
"W. c #E0D4D4",
"Q. c #F8E8C9",
"!. c #FDF5DA",
"~. c #D0CDE1",
"^. c #C6DEE0",
"/. c #D8DBE1",
"(. c #E2DFE6",
"). c #CDE4EC",
"_. c #C5EAEC",
"`. c #C8E7E8",
"'. c #D3E4E9",
"]. c #D8E9E9",
"[. c #CDEFF1",
"{. c #D2ECF0",
"}. c #DBF3F5",
"|. c #D6F4F8",
" X c #E4EAEB",
".X c #EFEEEF",
"XX c #E4E4E7",
"oX c #ECF7EF",
"OX c #FDF9EB",
"+X c #F7F4E7",
"@X c #E3F3F3",
"#X c #EAF1F4",
"$X c #E6F6FB",
"%X c #EDF9FA",
"&X c #F4F5F5",
"*X c #FAF9F6",
"=X c #F5FAFB",
"-X c #FBFBFA",
";X c #F8F6F9",
":X c #EAECF3",
/* pixels */
"                                                                ",
"                                                                ",
"                                                                ",
"                                                                ",
"                                                                ",
"                                                                ",
"                                                                ",
"                                                                ",
"                                                                ",
"                                                                ",
"                                        +                       ",
"                                      f u g                     ",
"                                    i 3.I.n                     ",
"                                    %./.A.s                     ",
"                                  f h.=XN.l                     ",
"        @ O X @                 : 5.&X-X@X2.r     > X           ",
"        &.,.*.I                 E U.-X-X-X`...c * K ' I         ",
"      n U.#X    ,             - | |.-X*XT.'._.^ u <.{.#.        ",
"    p B.G.        *           : | |.-X#XP 4.%X X(.@X=X#.,       ",
"      n J         O           2 ( [.&X=.1 3.-X-X-X-X=X#.,       ",
"      @ 2 o.      a           2 R `.&X$.u h.-X*XY.XX@XL ,       ",
"        2 [ ).~.V.f.9       < % Y K.=X XY..X-X.X#.1.N.t -       ",
"        ; / D.P.).M.w I d p %.! x { ].&X3.L.=X3.3 *.>.r         ",
"        ; ] C.I._.+.0 n a s L.H.L ~ ].&X%.*.XX&.u 1.L -         ",
"        4 [ [.}.D. .2 - ..^.+XoX X X%X-XXXP 4.:X'.x.j           ",
"          k q.J.F.l % R F./.a.u.u.a.U.}.;XB.I.[.C.E 8           ",
"          5 Y v.`.n 8 l.].p.8.r.y.S :.`.%X}._.z.) r             ",
"            6 _ [.^.2.H.T.8.s.+X!.i.C w.[.c.} t $ 7             ",
"              x M.n.k.{.W.9.Q.-XOXy.D 0.}.C.U % $               ",
"              7 ` X.m.}.E.t.Q.-XOXy.G e.$XJ.z .                 ",
"                6 ) `.=XE.t.Q.OX!.y.G   $XJ.y                   ",
"                  v I.=XR.V r.d.u.H S   @Xn.e                   ",
"                  : j.}.T.B Z F A A M 7._.l.q                   ",
"                  ; / m.{.p.C N M M m -.S.X.e                   ",
"                  ~ +.O.D.'.B.6.p.;.Q f.@.b...h                 ",
"                < g.v./ o.F.z.S._.{ T  ./ k.m.z                 ",
"                > W ] 6 & E j g.D.t o % % U  .e                 ",
"                  r r r   8 > _ +.q *     w q 9                 ",
"                  O X     + # b T 8         o                   ",
"                              < =                               ",
"                                                                ",
"                                                                ",
"                                                                ",
"                                                                ",
"                                                                ",
"                                                                ",
"                                                                "
};
