/* XPM */
static char *ab92200474184f10801d964825ca9aa2nyv758kWQhejjv1i[] = {
/* columns rows colors chars-per-pixel */
"85 85 243 2 ",
"   c #00000F",
".  c #010014",
"X  c #02031B",
"o  c #0B031B",
"O  c #0A061C",
"+  c #11021C",
"@  c #060A22",
"#  c #0B0C24",
"$  c #0B0D27",
"%  c #130D25",
"&  c #170925",
"*  c #0B1026",
"=  c #0E1229",
"-  c #0F182E",
";  c #14142B",
":  c #1A132D",
">  c #15172D",
",  c #1B1C33",
"<  c #181931",
"1  c #231E36",
"2  c #1D2037",
"3  c #1E233A",
"4  c #16273B",
"5  c #23253C",
"6  c #26293E",
"7  c #2C243D",
"8  c #2B2C44",
"9  c #222A40",
"0  c #312E46",
"q  c #283749",
"w  c #35354B",
"e  c #383A53",
"r  c #2F3F52",
"t  c #1F3D4B",
"y  c #403A50",
"u  c #284956",
"i  c #3F4255",
"p  c #274653",
"a  c #385669",
"s  c #385C73",
"d  c #305862",
"f  c #35656C",
"g  c #3B7579",
"h  c #38797A",
"j  c #3B637A",
"k  c #44445B",
"l  c #4B4C65",
"z  c #4E5065",
"x  c #53536C",
"c  c #59576B",
"v  c #595972",
"b  c #645F75",
"n  c #4D6776",
"m  c #646275",
"M  c #6C6D7C",
"N  c #68667B",
"B  c #6D707E",
"V  c #71697E",
"C  c #BD6231",
"Z  c #BB5A31",
"A  c #CD6D30",
"S  c #C85C1F",
"D  c #CF7744",
"F  c #ED833B",
"G  c #D48337",
"H  c #DE8858",
"J  c #DF874D",
"K  c #E8894A",
"L  c #E18C59",
"P  c #E78C52",
"I  c #EB9356",
"U  c #F3BD4E",
"Y  c #EBA759",
"T  c #EBA957",
"R  c #EFB35C",
"E  c #F4BB57",
"W  c #EFA94F",
"Q  c #D29D7D",
"!  c #F5C251",
"~  c #F6C55C",
"^  c #FACA57",
"/  c #F9D15F",
"(  c #F6C961",
")  c #F7CA61",
"_  c #F6CF6E",
"`  c #3D728A",
"'  c #507C8A",
"]  c #696987",
"[  c #77758A",
"{  c #787998",
"}  c #6E6E84",
"|  c #837E95",
" . c #3D9D94",
".. c #3D8887",
"X. c #3BA69A",
"o. c #2EA499",
"O. c #3EABA1",
"+. c #45918E",
"@. c #489A95",
"#. c #4C8991",
"$. c #768C98",
"%. c #48A69D",
"&. c #5BA897",
"*. c #61AC9D",
"=. c #5493A9",
"-. c #4DACA3",
";. c #49A9A1",
":. c #51AAA3",
">. c #49B6AA",
",. c #54B5AC",
"<. c #55B8AB",
"1. c #4EBCB2",
"2. c #54BEB2",
"3. c #59BCB6",
"4. c #5DADBA",
"5. c #69B4B3",
"6. c #6A9CA8",
"7. c #53C3B5",
"8. c #59C3B6",
"9. c #5BC7BB",
"0. c #4DC1B4",
"q. c #6EC3BA",
"w. c #67B8CE",
"e. c #5CCCCE",
"r. c #64CAC8",
"t. c #77CDC4",
"y. c #6AC5D7",
"u. c #73CADD",
"i. c #68D2DB",
"p. c #67D6CB",
"a. c #5ED3EC",
"s. c #72CCE2",
"d. c #6BD7EB",
"f. c #76D6E7",
"g. c #68DBF3",
"h. c #7ADEF2",
"j. c #73DEF5",
"k. c #6ECCE1",
"l. c #6CE3FB",
"z. c #74E3FA",
"x. c #7BE7F9",
"c. c #7CF2FE",
"v. c #73EBF7",
"b. c #888696",
"n. c #8F909B",
"m. c #92939D",
"M. c #90889D",
"N. c #8686A6",
"B. c #9B95A7",
"V. c #9B9BBC",
"C. c #9494B6",
"Z. c #938FA8",
"A. c #A69CAE",
"S. c #A89CAF",
"D. c #ABA8B7",
"F. c #B4A9B5",
"G. c #B5B4BB",
"H. c #A8B2B1",
"J. c #97B9AC",
"K. c #D2AF97",
"L. c #EDB48F",
"P. c #CFADA9",
"I. c #C5988E",
"U. c #81C7BE",
"Y. c #F8DA97",
"T. c #F6D291",
"R. c #F9E7BF",
"E. c #9F9FC1",
"W. c #A49DC6",
"Q. c #98B3D5",
"!. c #A3A3C5",
"~. c #A7A7C9",
"^. c #ABAACA",
"/. c #A8A7CA",
"(. c #B2AFCC",
"). c #B8AFC3",
"_. c #BCB5CD",
"`. c #B9B5C5",
"'. c #AEAED1",
"]. c #A6AAD0",
"[. c #B2B2D4",
"{. c #B5B5D8",
"}. c #BABADB",
"|. c #ABB3D4",
" X c #BDBDE1",
".X c #C1B7CA",
"XX c #C3BACE",
"oX c #C9BBCB",
"OX c #C6BDD0",
"+X c #C8BED1",
"@X c #D3BDCF",
"#X c #91CFCC",
"$X c #AED6D4",
"%X c #BCE1DD",
"&X c #A5E1D9",
"*X c #88D6E6",
"=X c #89DBEE",
"-X c #B3D8E5",
";X c #83EAFE",
":X c #89E5F8",
">X c #95E5F6",
",X c #88F8FF",
"<X c #99F2F9",
"1X c #A6EAF8",
"2X c #B5EDF9",
"3X c #ABF5FF",
"4X c #B7F5FE",
"5X c #B8E7E8",
"6X c #CCC1D2",
"7X c #C4C4D8",
"8X c #D1C7D9",
"9X c #D5CADC",
"0X c #D8CDDF",
"qX c #D7D8DC",
"wX c #C7CDD2",
"eX c #D0E3DC",
"rX c #FAEED3",
"tX c #FAF0DC",
"yX c #C3C5E7",
"uX c #D9CEE1",
"iX c #DDD1E4",
"pX c #DBDCE3",
"aX c #CEDEE3",
"sX c #E4DAE9",
"dX c #EADFF1",
"fX c #C6E9E8",
"gX c #D8E9EC",
"hX c #CAF2FA",
"jX c #D7F4FA",
"kX c #D1EFF1",
"lX c #EBEBED",
"zX c #E7E5E9",
"xX c #FAF3EB",
"cX c #FBF3E1",
"vX c #EEE5F3",
"bX c #ECF9FB",
"nX c #E7F5F6",
"mX c #F4F5F5",
"MX c #FBFAF7",
"NX c #F5FAFA",
"BX c #FDFDFD",
"VX c #F8F6F5",
"CX c #E3F0EF",
/* pixels */
"~.~.~.~.~.~.~.~.~.~.~.~.~.~.~.~.~.~.~.~.~.~.~.~.~.~.~.~.~.~.~.~.~.~.~.~.~.~.~.!._.+XOX+X+X+X+X+X+X+X+X+X+X+X+X+X+X+X+X+X+X+X+X+X+X+X+X+X+X+X+X+X+X+X+X+X+X+X+X+X+XOX+XXX!.",
"~.~.~.~.~.~.~.~.~.~.~.~.~.~.~.~.~.~.~.~.~.~.~.~.~.~.~.~.~.~.~.~.~.~.~.~.~.~.~.!._.+XOX+X+X+X+X+X+X+X+X+X+X+X+X+X+X+X+X+X+X+X+X+X+X+X+X+X+X+X+X+X+X+X+X+X+X+X+X+X+XOX+XXX!.",
"~.~.~.~.~.~.~.~.~.~.~.~.~.~.~.~.~.~.~.~.~.~.~.~.~.~.~.~.~.~.~.~.~.~.~.~.~.~.~.!._.+XOX+X+X+X+X+X+X+X+X+X+X+X+X+X+X+X+X+X+X+X+X+X+X+X+X+X+X+X+X+X+X+X+X+X+X+X+X+X+XOX+XXX!.",
"~.~.~.~.~.~.~.~.~.~.~.~.~.~.~.~.~.~.~.~.~.~.~.~.~.~.~.~.~.~.~.~.~.~.~.~.~.~.~.!._.+XOX+X+X+X+X+X+X+X+X+X+X+X+X+X+X+X+X+X+X+X+X+X+X+X+X+X+X+X+X+X+X+X+X+X+X+X+X+X+XOX+XXX!.",
"~.~.~.~.~.~.~.~.~.~.~.~.~.~.~.~.~.~.~.~.~.~.~.~.~.~.~.~.~.~.~.~.~.~.~.~.~.~.~.!._.+XOX+X+X+X+X+X+X+X+X+X+X+X+X+X+X+X+X+X+X+X+X+X+X+X+X+X+X+X+X+X+X+X+X+X+X+X+X+X+XOX+XOX!.",
"~.~.~.~.~.~.~.~.~.~.~.~.~.~.~.~.~.~.~.~.~.~.~.~.~.~.~.~.~.~.~.~.~.~.~.~.~.~.~.!._.+XOX+X+X+X+X+X+X+X+X+X+X+X+X+X+X+X+X+X+X+X+X+X+X+X+X+X+X+X+X+X+X+X+X+X+X+X+X+X+XOX+XXX!.",
"~.~.~.~.~.~.~.~.~.~.~.~.~.~.~.~.~.~.~.~.~.~.~.~.~.~.~.~.~.~.~.~.~.~.~.~.~.~.~.!._.+XOX+X+X+X+X+X+X+X+X+X+X+X+X+X+X+X+X+X+X+X+X+X+X+X+X+X+X+X+X+X+X+X+X+X+X+X+X+X+XOX+XXX!.",
"~.~.~.~.~.~.~.~.~.~.~.~.~.~.~.~.~.~.~.~.~.~.~.~.~.~.~.~.~.~.~.~.~.~.~.~.~.~.~.!._.+XOX+X+X+X+X+X+X+X+X+X+X+X+X+X+X+X+X+X+X+X+X+X+X+X+X+X+X+X+X+X+X+X+X+X+X+X+X+X+XOX+XXX!.",
"~.~.~.~.~.~.~.~.~.~.~.~.~.~.~.~.~.~.~.~.~.~.~.~.~.~.~.~.~.~.~.~.~.~.~.~.~.~.~.!._.+XOX+X+X+X+X+X+X+X+X+X+X+X+X+X+X+X+X+X+X+X+X+X+X+X+X+X+X+X+X+X+X+X+X+X+X+X+X+XOXOX+XXX!.",
"~.~.~.~.~.~.~.~.~.~.~.~.~.~.~.~.~.~.~.~.~.~.~.~.~.~.~.~.~.~.~.~.~.~.~.~.~.~.~.!._.+XOX+X+X+X+X+X+X+X+X+X+X+X+X+X+X+X+X+X+X+X+X+X+X+X+X+X+X+X+X+X+X+X+X+X+X+X+X+X+XOX+XXX!.",
"~.~.~.~.~.~.~.~.~.~.~.~.~.~.~.~.~.~.~.~.~.~.~.~.~.~.~.~.~.~.~.~.~.~.~.~.~.~.~.!._.+XOX+X+X+X+X+X+X+X+X+X+X+X+X+X+X+X+X+X+X+X+X+X+X+X+X+X+X+X+X+X+X+X+X+X+X+X+X+X+XOX+XXX!.",
"~.~.~.~.~.~.~.~.~.~.~.~.~.~.~.~.~.~.~.~.~.~.~.~.~.~.~.~.~.~.~.~.~.~.~.~.~.~.~.!._.+XOX+X+X+X+X+X+X+X+X+X+X+X+X+X+X+X+X+X+X+X+X+X+X+X+X+X+X+X+X+X+X+X+X+X+X+X+X+X+XOX+XXX!.",
"~.~.~.~.~.~.~.~.~.~.~.~.~.~.~.~.~.~.~.~.~.~.~.~.~.~.~.~.~.~.~.~.~.~.~.~.~.~.~.!._.+XOX+X+X+X+X+X+X+X+X+X+X+X+X+X+X+X+X+X+X+X+X+X+X+X+X+X+X+X+X+X+X+X+X+X+X+X+X+X+XOX+XXX!.",
"~.~.~.~.~.~.~.~.~.~.~.~.~.~.~.~.~.~.~.~.~.~.~.~.~.~.~.~.~.~.~.~.~.~.~.~.~.~.~.!._.+XOX+X+X+X+X+X+X+X+X+X+X+X+X+X+X+X+X+X+X+X+X+X+X+X+X+X+X+X+X+X+X+X+X+X+X+X+X+X+XOX+XXX!.",
"~.~.~.~.~.~.~.~.~.~.~.~.~.~.~.~.~.~.~.~.~.~.~.~.~.~.~.~.~.~.~.~.~.~.~.~.~.~.~.!._.+XOX+X+X+X+X+X+X+X+X+X+X+X+X+X+X+X+X+X+X+X+X+X+X+X+X+X+X+X+X+X+X+X+X+X+X+X+X+X+XOX+XXX!.",
"~.~.~.~.~.~.~.~.~.~.~.~.~.~.~.~.~.~.~.~.~.~.~.~.~.~.~.~.~.~.~.~.~.~.~.~.~.~.~.!._.+XOX+X+X+X+X+X+X+X+X+X+X+X+X+X+X+X+X+X+X+X+X+X+X+X+X+X+X+X+X+X+X+X+X+X+X+X+X+X+XOX+XXX!.",
"~.~.~.~.~.~.~.~.~.~.~.~.~.~.~.~.~.~.~.~.~.~.~.~.~.~.~.~.~.~.~.~.~.~.~.~.~.~.~.!._.+XOX+X+X+X+X+X+XOX+XXXOXXXXXXXOXOXOX+X+X+X+X+X+X+X+X+X+X+X+X+X+X+X+X+X+X+X+X+X+XOX+XXX!.",
"~.~.~.~.~.~.~.~.~.~.~.~.~.~.~.~.~.~.~.~.~.~.~.~.~.~.~.~.~.~.~.~.~.~.~.~.~.~.~.!._.+XOX+X+X+X+X+X+X+XOX6X8X8X8X8X6XOX+X+X+X+X+X+X+X+X+X+X+X+X+X+X+X+X+X+X+X+X+X+X+XOX+XXX!.",
"~.~.~.~.~.~.~.~.~.~.~.~.~.~.~.~.~.~.~.~.~.~.~.~.~.~.~.~.~.~.~.~.~.~.~.~.~.~.~.!._.+XOX+X+X+X+X+X+XOX6XD.A.S.S.A.F.6XOX+X+X+X+X+X+X+X+X+X+X+X+X+X+X+X+X+X+X+X+X+X+XOX+XXX!.",
"~.~.~.~.~.~.~.~.~.~.~.~.~.~.~.~.~.~.~.~.~.~.~.~.~.~.~.~.~.~.~.~.~.~.~.~.~.~.~.!._.+XOX+X+X+XOX+XXX_.8Xw # > > X l 9X_.XX+XOX+X+X+X+X+X+X+X+X+X+X+X+X+X+X+X+X+X+X+XOX+XXX!.",
"~.~.~.~.~.~.~.~.~.~.~.~.~.~.~.~.~.~.~.~.~.~.~.~.~.~.~.~.~.~.~.~.~.~.~.~.~.~.~.!._.+XOX+X+X+X+XXX8X9XdX0 . @ $ . l vX9X6XXX+X+X+X+X+X+X+X+X+X+X+X+X+X+X+X+X+X+X+X+XOX+XXX!.",
"~.~.~.~.~.~.~.~.~.~.~.~.~.~.~.~.~.~.~.~.~.~.~.~.~.~.~.~.~.~.~.~.~.~.~.~.~.~.~.!._.+XOX+X+X+XXX8XB.m M b.n.n.n.n.b.M m D.6XXX+X+X+X+X+X+X+X+X+X+X+X+X+X+X+X+X+X+X+XOX+XXX!.",
"~.~.~.~.~.~.~.~.~.~.~.~.~.~.~.~.~.~.~.~.~.~.~.~.~.~.~.~.~.~.~.~.~.~.~.~.~.~.~.!._.+XOXOX+XOX_.9XN X . 9XBXBXBXBXD.. . b.0XXX+X+X+X+X+X+X+X+X+X+X+X+X+X+X+X+X+X+X+XOX+XXX!.",
"~.~.~.~.~.~.~.~.~.~.~.~.~.~.~.~.~.~.~.~.~.~.~.~.~.~.~.~.~.~.~.~.~.~.~.~.~.~.~.!._.+XOX+XOX6X8XdX} . . wXBXVXNXBXG.$ > M.9XXX+X+X+X+X+X+X+X+X+X+X+X+X+X+X+X+X+X+X+XOX+XXX!.",
"~.~.~.~.~.~.~.~.~.~.~.~.~.~.~.~.~.~.~.~.~.~.~.~.~.~.~.~.~.~.~.~.~.~.~.~.~.~.~.!._.+XOXXX6XD.0 8 b.zXwXVXBXmX5.t.#.: * M.9XXXOX+X+XOXOXOXOXOXOXOXOX+XOX+X+X+X+X+X+XOX+XXX!.",
"~.~.~.~.~.~.~.~.~.~./.^.^.^.^.^.^.^.^.^.^./.~.~.~.~.~.~.~.~.~.~.~.~.~.~.~.~.~.!._.+XOX6X9XD.X . b.BXNXBXBXmX;.1.h : @ M.uX+X+XOX+X+XOX6X6X6X6X6X6XOX+X+X+X+X+X+X+XOX+XXX!.",
"~.~.~.~.~.~.~.~.~./.!.V.V.V.V.V.V.V.V.V.V.!./.~.~.~.~.~.~.~.~.~.~.~.~.~.~.~.~.!._.+XOX`..XA.6 , n.BXVXBXBXmX<.q.#., - b.XX).+X+XOXOX+X.X).`.`.`.`.+XOX+X+X+X+X+X+XOX+XXX!.",
"~.~.~.~.~.~.~.~.!.[.] # , , , , , , , , # } [.!.~.~.~.~.~.~.~.~.~.~.~.~.~.~.~.!._.XX6X6 @ i BXNXBXNXBXBXBXBXBXBXfX>.9.u % - `.+XXX.X9XN @ , , > 5 6XXXXX+XOX+X+X+XOX+XXX!.",
"~.~.~.~.~.~.~./.'.yX] . * @ @ @ @ @ @ * . [ yX[./.~.~.~.~.~.~.~.~.~.~.~.~.~./.!.+X0XiX1 . w BXVXNXBXNXBXBXNXNXBX%Xo.0.p + % 6XuX9X8XvXV . : $ X , iX9X8XXX+X+X+X+XOX+XOX!.",
"~.~.~.~.~.~./.!.[ { } M M M M M M M M M M } { [ !./.~.~.~.~.~.~.~.~.~.~.~.~.~.^.Z.| b.n s ' BXNXBXBXBXBXBXNXNXBXgX#X&X#.s j b.b.b.b.M.] j j M M B b.| B.6XXX+X+X+XOX+XXX!.",
"~.~.~.~.~.!./.C.* . [ BXNXBXBXBXBXBXBXNXBXM . = C.~.!.~.~.~.~.~.~.~.~.~.~.~.!.{.k . X h.,X<XBXBXBXBXBXNXNXNXVXVXNXBXBX3Xc.,X, $ = - . #.<Xc.bXBXlXX . l iXXXOX+X+XOX+XXX!.",
"~.~.~.~.~.[.}.E.X . } BXxXBXBXBXBXBXBXVXBXN . X ~.}.[.~.~.~.~.~.~.~.~.~.~.~.!.{.x > , s.j.>XBXNXBXBXBXBXNXBXBXBXBXNXBX>Xa.j.- @ @ $   ` c.a.jXBXzX, > v uXXXOXOX+XOX+XXX!.",
"~.~.~.~.^.x e x $XG.$X1X1X-XOX7X7X7X7X7X7X`.G.`.x e v '.~.~.~.~.~.~.~.~.~.~.!.{.l = : f.z.>XBXNXBXBXBXBXBXmXv x B.BXMXnXjXjX`.G.G.`.G.aXjXjXNXBXlX> = c uXXX+X+X+XOX+XXX!.",
"~.~.~.~.'.5 X 0 BXBXhXg.z.Q.W.!.!.!.!.!.V.pXBXBX6 X 8 [.~.~.~.~.~.~.~.~.~.~.!.{.l = : f.z.>XBXNXBXBXNXBXBXlX@ . v BXVXBXBXBXBXBXBXBXBXBXBXBXBXBXlX> = c uXXX+X+X+XOX+XXX!.",
"~.~./.~.'.8 $ e BXMXhXj.x.Q./././././.^.E.pXBXBXw ; w [.~.~.~.~.~.~.~.~.~.~.!.{.l = < f.z.>XBXNXBXBXBXBXBXmX, $ N BXVXNXNXNXNXNXVXNXMXNXBXNXNXBXlX> = c uXXX+X+X+XOX+XXX!.",
"~.~.~.~.~.!.~.C., 6 5 6 : w.;Xh.~.~././.~././.[.8 ; w '.!.~.~.~.~.~.~.~.~.~.!.{.l = , :.>.q.BXNXBXVXBXz , 6 5 $ N BXVXBXBXBXNXBXNXNXNXNXBXBXNXBXlX> = c uXXXOXOXOXOX+XXX~.",
"~.~.~.~.~.~.'.C.X = ; , O w.;Xx.!.!.!.~.~.~.!.^.1 O 8 }.^.^.!.~.~.~.~.~.~./.^. Xx * , -.>.q.BXNXBXVXBXe . $ ; . b BXVXBXBXBXBXBXBXBXBXBXNXNXBXBXlX> = c iXXX+X+X+X+X6XXX!.",
"^.^.^.^.^.^.(.V.e k 0 , % 4.z.f.}.}.[.^.^.^.^.(.a p a Z.N.C.(.^.^.^.^.^.(.D.N.C.k ; , -.>.q.BXNXBXNXBXB k z z i b.BXVXBXBXBXBXBXmXwXwXzXBXBXgXgXaX> = x 9X_.XXXXXXXXXX_.^.",
"6X6X6X6X6X6X+X6X9XdX| $ : +.<.,.BXBXlXXX6X6X6X+X:X,Xu.o . m iXXXXXXXXX.X8XM.X < , 3 , ;.-.5.BXmXNXBXNXBXBXBXBXBXBXNXBXBXNXBXVXBXwX. . b.BXBX5.X.X., > x [.!.!.!.!.~.!.^.6X",
"OXOXOXOXOXOXOXOX_.9X[ $ : +.2.<.BXBXlX.X+XXX.X.Xh.x.w.: - M uX.X9XuXuX9XdXZ.  $ # % o <.7.t.BXBXBXNXBXVXVXVXBXBXBXNXBXBXBXNXBXBX9X> ; m.BXBXt.9.<.# . l }.!.~.~.~./.~.^.+X",
"+X+X+X+X+X+X+X+XXX0X[ * : +.2.,.2X2X5XoXXX0XzXsX=Xx.y.: = N 0X6X[ m N N m [ B.B.$.#.=.f d n &X#XfXBXNXNXBXVXb.[ D.BXNXBXBXBXb.b.M < @ n.BXBX' d f ] N { '.~.~.~.~.~.~.^.6X",
"+X+X+X+X+X+X+X+XXX0X[ * : +.2.,.j.l.*X@XXXzXBXBX:Xx.y.: = N 8X8Xw X = ; . c BXBX4Xc.,X5 & 9 1.o.&XBXNXNXBXlX@ . c BXmXNXBXBX, X * 6 @ n.BXBXw X 1 }.{.'.~.~.~.~.~.~.~.^.6X",
"+X+X+X+X+X+X+X+XXX0X[ * : +.2.,.j.z.*XoX_.zXBXBX:Xc.y.: $ } sXsXy O : > . c BXVX>Xd.z.4 X 4 7.X.$XBXNXNXBXlX$ . m BXNXBXNXBX, $ = ;   b.BXBXk = 8 /.!.~.~.~.~.~.~.~.~.^.6X",
"+X+X+X+X+X+X+X+XXX0X[ * : +.2.,.bXbXbXmXMX2X:X>X3.8.;.: , 5 e 7 4.k.y.qXqXzXBXBXbXnXbXpXqXpXCXCXmXBXNXNXBXNXqXzXA.0 8 `.BXNXpXqXqXqXsX#X<.t.q ; 9 ^.~.~.~.~.~.~.~.~.~.^.6X",
"+X+X+X+X+X+X+X+XXXuX[ @ % +.7.<.BXBXBXBXBX1Xg.z.2.2.@.: 2 > ; . w.c.;XBXBXBXBXBXBXBXBXBXBXBXBXBXBXBXBXBXBXBXNXBXD.. . D.BXNXBXBXBXBXBX&XO.7.9 % 5 ^.~.~.~.~.~.~.~.~.~.^.6X",
"+X+X+X+X+X+X+X+XXX9X| 2 7 +.-.:.nXnXnXbXNX2Xx.:X:.-.+.; , 3 q 2 w.;X:XVXmXVXxXxXxXxXxXxXxXxXxXxXmXbXbXNXBXNXmXBXG.5 5 `.BXNXbXbXbXCXNX#X .,.r 5 w ^.~.~.~.~.~.~.~.~.~.^.6X",
"+X+X+X+X+X+X+X+X+XOX6X6XsXk # , -.%.3.x.g.hXBXBX0 ; , 3 % ' ,Xz.nXBXBXoXOXP.K L R ^ ~ ~ ~ E J F H.l.d.nXBXNXBXNXBXBXBXBXNXBXh.j.k.%.1.f : % C.{.^.~.~.~.~.~.~.~.~.~.~.^.6X",
"+X+X+X+X+X+X+X+XOX+XOX.X0Xe X > 8.7.r.;Xz.hXBXBX2 X $ : o ` c.a.jXBXBX7XyXP.F J W ! ! ! ! E H K H.v.l.nXBXBXBXBXBXBXBXBXBXBX,X,Xx.<.p.f o @ Z.^.~.~.~.~.~.~.~.~.~.~.~.^.6X",
"+X+X+X+X+X+X+X+X+X+X+XXX8X[ c v h g @.f.e.fXBXBX$.} B d u 6.4X1XgXzXzXK.P.K.L.L.T.Y.Y.Y.Y.T.Y W K.#XH.fXhXhXBXBXCX$X%X%X%X%X=.=.=.g h n x l V.^.~.~.~.~.~.~.~.~.~.~.~.^.6X",
"+X+X+X+X+X+X+X+X+X+X+X+XXX9XiX9X: & q 2. .%XBXNXBXBXnX7.0.&XBXBX6X_..XK F L.BXBXBXBXBXBXBXcX! / W K F #Xl.h.BXBX%Xo.>.O.X.O.= o % : o ] yX[./.~.~.~.~.~.~.~.~.~.~.~.~.^.6X",
"+X+X+X+X+X+X+X+X+X+X+XOX+XXXXX_.= X p p.>.%XBXBXBXBXCX%.%.#XBXBX9XOXoXL J L.BXVXMXMXNXMXBXtXU ( T H K *Xv.;XNXBXfX%.,.3.9.9.6 2 , ; X v [.E.~.~.~.~.~.~.~.~.~.~.~.~.~.^.6X",
"+X+X+X+X+X+X+X+X+X+X+X+X+XOX+XXXZ.B.[ p q 5.3X>X#XU.t.f.i.5XBXBX9XOXoXR W T.BXMXBXBXBXNXBXcX! ( E R U G.Q.Q.BXBXkXi.x.' q u 2 > 0 N.{ C.^.~.~.~.~.~.~.~.~.~.~.~.~.~.~.^.6X",
"+X+X+X+X+X+X+X+X+X+X+X+X+X+XOX+X8XsXB.X + =.c.j.>.%.1.;Xl.2XBXBX8XOXoX~ ! Y.BXMXBXBXBXNXBXcX! ( ~ ( ^ F.W.^.BXBXjXg.,Xs o : , ; e  X'.^.~.~.~.~.~.~.~.~.~.~.~.~.~.~.~.^.6X",
"+X+X+X+X+X+X+X+X+X+X+X+X+X+X+XOXXX8XZ.= % =.;Xh.3.,.3.;Xg.2XBXBX9XOXoX~ ! T.BXMXBXBXBXNXBXcX! ( ~ ( ^ F.~.^.BXBXhXd.,Xs % 3 , > e [.!.~.~.~.~.~.~.~.~.~.~.~.~.~.~.~.~.^.+X",
"+X+X+X+X+X+X+X+X+X+X+X+X+X+X+X+XOX+XOX_.9Xv > , %.>.5.BXNXNXNXBX9XOXoX~ ! T.BXMXNXNXNXNXBXtX! ( ~ ( ^ F.~.^.BXBXhXd.,Xs % , V.~.~.~.~.~.~.~.~.~.~.~.~.~.~.~.~.~.~.~.~.^.+X",
"+X+X+X+X+X+X+X+X+X+X+X+X+X+X+X+X+XOX+XXXiXx . # -.7.q.BXNXBXNXBX9XOX6X) ^ Y.BXBXBXBXBXBXBXcX! ( ~ ( ^ F.~.^.BXBXjXg.,Xs % , !.^.~.~.~.~.~.~.~.~.~.~.~.~.~.~.~.~.~.~.~.^.+X",
"+X+X+X+X+X+X+X+X+X+X+X+X+X+X+X+X+X+XOXXX9X[ e k +...&.BXNXBXNXBX9XOXoXT W _ cXrXrXrXrXrXtXR.! ( E R E F.~.^.BXBXkXi.x.s % , V./.~.~.~.~.~.~.~.~.~.~.~.~.~.~.~.~.~.~.~.^.6X",
"+X+X+X+X+X+X+X+X+X+X+X+X+X+X+X+X+X+X+X+XXX8X0XsX7 X w BXmXNXNXBX9XOXoXC Z A ^ U ! ! ! U U ! ~ ~ Y H K F.~.^.BXBX%XX.8.u : , E./.~.~.~.~.~.~.~.~.~.~.~.~.~.~.~.~.~.~.~.^.6X",
"+X+X+X+X+X+X+X+X+X+X+X+X+X+X+X+X+X+X+XOX+XXX.X6X8 = k BXNXBXBXBX6X_..XS S G / ( ) ) ) ) ) ) ~ / R L I F.~.^.BXBXfXO.9.u : , !./.~.~.~.~.~.~.~.~.~.~.~.~.~.~.~.~.~.~.~.^.6X",
"+X+X+X+X+X+X+X+X+X+X+X+X+X+X+X+X+X+X+X+X+X+XXX8X8 ; w &X#X&X2X1XgXzXsXI.I.Q T Y T Y Y Y Y Y Y T J D A S././.2X4X*X%.9.u : , E./.~.~.~.~.~.~.~.~.~.~.~.~.~.~.~.~.~.~.~.^.6X",
"+X+X+X+X+X+X+X+X+X+X+X+X+X+X+X+X+X+X+XOX+XXXXX6X8 : q >.X.e.z.g.jXBXBX7XyXP.K L L L L L L L L L D C S S.].~.g.l.i.:.9.d : 2 V.~.~.~.~.~.~.~.~.~.~.~.~.~.~.~.~.~.~.~.~.^.6X",
"+X+X+X+X+X+X+X+X+X+X+X+X+X+X+X+X+X+X+X+XXX6X8XiX3 X 4 3.%.r.;Xz.nXBXBX.XOXP.K P K K K K K K P I A S S S./.~.x.;Xi.X.0.p + % ~.[.'.~.~.~.~.~.~.~.~.~.~.~.~.~.~.~.~.~.~.^.6X",
"+X+X+X+X+X+X+X+X+X+X+X+X+X+X+X+X+X+X+XXX0XN 5 8 wXzXaXd.h.y.<.,.f.:X>XmXMXkXf.*X*X*X*XlXxXpX&.*.*.*.&.s.=Xf.3.>.#XmXmX*Xy.s.w 5 l [.~.~.~.~.~.~.~.~.~.~.~.~.~.~.~.~.~.^.6X",
"+X+X+X+X+X+X+X+X+X+X+X+X+X+X+X+X+X+X+XXXuXc @ $ lXBXbXz.;Xi.>.,.d.x.x.BXBXjXl.c.z.z.l.NXBXjX>.2.2.2.1.z.;Xx.<.>.#XBXBX3Xz.;X3 @ w [.!.~.~.~.~.~.~.~.~.~.~.~.~.~.~.~.~.^.6X",
"+X+X+X+X+X+X+X+X+X+X+X+X+X+X+X+X+X+X+XXXuXv = > qXmXkXd.x.r.@.%.y.s.u.CXmXfXy.u.=X:X:XnXNXkX .%.%.%.@.y.s.y.%. .U.NXmX>Xd.h.9 = e [.!.~.~.~.~.~.~.~.~.~.~.~.~.~.~.~.~.^.6X",
"+X+X+X+X+X+X+X+X+X+X+X+X+X+X+X+X+X+X+XXXuXv ; , %.>.;.-.2.f & , : : , ;.>.h & . D.BXMXh.z.w.+ < : < < : : : , % u 1.;.-.-.-.6 ; e [.!.~.~.~.~.~.~.~.~.~.~.~.~.~.~.~.~.^.6X",
"+X+X+X+X+X+X+X+X+X+X+X+X+X+X+X+X+X+X+XXXiXz . @ ,.9.8.2.p.g . = = $ - 8.r.+.: @ D.BXBX:X;Xy.% 3 > * = = = = ; o u p.2.8.7.9.- X 8 {.!.~.~.~.~.~.~.~.~.~.~.~.~.~.~.~.~.^.6X",
"+X+X+X+X+X+X+X+X+X+X+X+X+X+X+X+X+X+X+XXX8Xb.c m g g g g h n b m m m m g h d , @ $.fX$Xi.i.4.: < e v v v v v v v n g g g g g v x ] '.~.~.~.~.~.~.~.~.~.~.~.~.~.~.~.~.~.^.6X",
"+X+X+X+X+X+X+X+X+X+X+X+X+X+X+X+X+X+X+X+XXX9XuXsX7 % : : X } vX9XuXiX8X% : : 5 : h >.X.%.-.+., ; ] yX[.{.{.{.[.yX{ X : : : % ^.}.[.~.~.~.~.~.~.~.~.~.~.~.~.~.~.~.~.~.~.^.6X",
"+X+X+X+X+X+X+X+X+X+X+X+X+X+X+X+X+X+X+XOX+XXX.X6X2 @ = ; . b 9X_.XXXX`.$ = * = . ..p.8.8.9.%.O X v [.E.!.!.!.E.'.[ X > = = * V.~.!.~.~.~.~.~.~.~.~.~.~.~.~.~.~.~.~.~.~.^.6X",
"+X+X+X+X+X+X+X+X+X+X+X+X+X+X+X+X+X+X+X+X+X+XOX+XA.B.B.B.Z.D.6XXXOX+XXXB.B.B.B.S.n q p p p a N.{ C.^.~.~.~.~.~.^.V.$.N.N.N.N.~.~.~.~.~.~.~.~.~.~.~.~.~.~.~.~.~.~.~.~.~.^.6X",
"+X+X+X+X+X+X+X+X+X+X+X+X+X+X+X+X+X+X+X+X+X+X+XOX8X9X9X9X9X6XXX+X+XOX+X9X9X9X6XsXc X : : # 0  X'.^.~.~.~.~.~.~.~.^.[.'.[.[.[.~.~.~.~.~.~.~.~.~.~.~.~.~.~.~.~.~.~.~.~.~.^.6X",
"+X+X+X+X+X+X+X+X+X+X+X+X+X+X+X+X+X+X+X+X+X+XOX+XXXXXXXXXXXOX+XOX+X+XOXXXXXXX.X0Xc = 5 3 < e [.!.~.~.~.~.~.~.~.~.~.~.~.~.~.~.~.~.~.~.~.~.~.~.~.~.~.~.~.~.~.~.~.~.~.~.~.^.6X",
"+X+X+X+X+X+X+X+X+X+X+X+X+X+X+X+X+X+X+X+X+X+X+X+X+X+X+X+X+X+X+X+X+X+X+X+X+X+XOX6X(.!.~.~.~.~.~.~.~.~.~.~.~.~.~.~.~.~.~.~.~.~.~.~.~.~.~.~.~.~.~.~.~.~.~.~.~.~.~.~.~.~.~.^.6X",
"+X+X+X+X+X+X+X+X+X+X+X+X+X+X+X+X+X+X+X+X+X+X+X+X+X+X+X+X+X+X+X+X+X+X+X+X+X+XOX6X(.~./.~.~.~.~.~.~.~.~.~.~.~.~.~.~.~.~.~.~.~.~.~.~.~.~.~.~.~.~.~.~.~.~.~.~.~.~.~.~.~.~.^.6X",
"+X+X+X+X+X+X+X+X+X+X+X+X+X+X+X+X+X+X+X+X+X+X+X+X+X+X+X+X+X+X+X+X+X+X+X+X+X+XOX6X(.~.~.~.~.~.~.~.~.~.~.~.~.~.~.~.~.~.~.~.~.~.~.~.~.~.~.~.~.~.~.~.~.~.~.~.~.~.~.~.~.~.~.^.6X",
"+X+X+X+X+X+X+X+X+X+X+X+X+X+X+X+X+X+X+X+X+X+X+X+X+X+X+X+X+X+X+X+X+X+X+X+X+X+XOX6X(.~.~.~.~.~.~.~.~.~.~.~.~.~.~.~.~.~.~.~.~.~.~.~.~.~.~.~.~.~.~.~.~.~.~.~.~.~.~.~.~.~.~.^.6X",
"+X+X+X+X+X+X+X+X+X+X+X+X+X+X+X+X+X+X+X+X+X+X+X+X+X+X+X+X+X+X+X+X+X+X+X+X+X+XOX6X(.~.~.~.~.~.~.~.~.~.~.~.~.~.~.~.~.~.~.~.~.~.~.~.~.~.~.~.~.~.~.~.~.~.~.~.~.~.~.~.~.~.~.^.6X",
"+X+X+X+X+X+X+X+X+X+X+X+X+X+X+X+X+X+X+X+X+X+X+X+X+X+X+X+X+X+X+X+X+X+X+X+X+X+XOX6X(.~.~.~.~.~.~.~.~.~.~.~.~.~.~.~.~.~.~.~.~.~.~.~.~.~.~.~.~.~.~.~.~.~.~.~.~.~.~.~.~.~.~.^.6X",
"OXOXOXOXOXOXOXOXOXOXOXOXOXOXOXOXOXOXOXOXOXOXOXOXOXOXOXOXOXOXOXOXOXOXOXOXOXOXOX6X(.~.~.~.~.~.~.~.~.~.~.~.~.~.~.~.~.~.~.~.~.~.~.~.~.~.~.~.~.~.~.~.~.~.~.~.~.~.~.~.~.~.~.^.+X",
"+X+X6X+X+X+X+X+X+X+X+X+X+X+X+X+X+X+X+X+X+X+X+X+X+X+X+X+X+X+X+X+X+X+X+X+X+X+X+X6X(.!.~.~.~.~.~.~.~.~.~.~.~.~.~.~.~.~.~.~.~.~.~.~.~.~.~.~.~.~.~.~.~.~.~.~.~.~.~.~.~.~.!.^.6X",
"/././././././././././././././././././././././././././././././././././././././.~._.OXOXOXOXOXOXOXOXOXOXOXOXOXOXOXOXOXOXOXOXOXOXOXOXOXOXOXOXOXOXOXOXOXOXOXOXOXOXOXOXOXOX_./.",
"~.~.~.~.~.~.~.~.~.~.~.~.~.~.~.~.~.~.~.~.~.~.~.~.~.~.~.~.~.~.~.~.~.~.~.~.~.~.~.!._.6X+X+X+X+X+X+X+X+X+X+X+X+X+X+X+X+X+X+X+X+X+X+X+X+X+X+X+X+X+X+X+X+X+X+X+X+X+X+X+X+X6XXX!.",
"~.~.~.~.~.~.~.~.~.~.~.~.~.~.~.~.~.~.~.~.~.~.~.~.~.~./.~././././.~.~.~.~.~.~./.!._.+XOXOXOXOXOXOXOXOXOXOXOXOXOXOXOXOXOXOXOXOXOXOXOXOXOXOXOXOXOXOXOXOXOXOXOXOXOXOXOXOX+XXX~.",
"~.~.~.~././././.~.~.~./.~.~.~.~.~./.~.~.~.~.~.~.~.~.~.~./././.~.~.~.~.~.~.~.~.!._.XXXXXXXXXX+XOX+X+X+XOXOXOXOX+X+X+X+XOX+X+X+X+X+X+X+XOXOXOXOX+X+X+X+XOX+X+X+X+X+XOX+XXX!."
};
