/* XPM */
static char *exit2[] = {
/* columns rows colors chars-per-pixel */
"90 60 247 2 ",
"   c #353C3D",
".  c #55322D",
"X  c #583934",
"o  c #662D2B",
"O  c #792A2B",
"+  c #653734",
"@  c #77363A",
"#  c #39443F",
"$  c #4C473B",
"%  c #76403D",
"&  c #76573A",
"*  c #76583B",
"=  c #795A3D",
"-  c #394747",
";  c #3F4F54",
":  c #454947",
">  c #554D43",
",  c #46514D",
"<  c #575347",
"1  c #465151",
"2  c #565B57",
"3  c #774645",
"4  c #69594C",
"5  c #7D5D41",
"6  c #70534F",
"7  c #675C55",
"8  c #58645F",
"9  c #7F6044",
"0  c #74614C",
"q  c #686459",
"w  c #766A58",
"e  c #586762",
"r  c #676A67",
"t  c #716C68",
"y  c #7A746B",
"u  c #7B7774",
"i  c #892A2E",
"p  c #962A2F",
"a  c #8C2D31",
"s  c #952D34",
"d  c #9A2C33",
"f  c #932E38",
"g  c #8B3638",
"h  c #953439",
"j  c #9C3439",
"k  c #A0292E",
"l  c #A72D35",
"z  c #A6353C",
"x  c #B2363D",
"c  c #8C3D41",
"v  c #9A3D42",
"b  c #A93B43",
"n  c #B73C44",
"m  c #C73F4C",
"M  c #8B4645",
"N  c #974244",
"B  c #815E43",
"V  c #895648",
"C  c #95584D",
"Z  c #8F5157",
"A  c #9B5757",
"S  c #A7454A",
"D  c #AB4A4E",
"F  c #B3444B",
"G  c #B8474B",
"H  c #BB454C",
"J  c #AD524D",
"K  c #AB4E52",
"L  c #B74B53",
"P  c #BC4B53",
"I  c #A95556",
"U  c #B35354",
"Y  c #B9565A",
"T  c #846345",
"R  c #896546",
"E  c #85654A",
"W  c #8A6749",
"Q  c #886849",
"!  c #8D6A4B",
"~  c #916E4E",
"^  c #94714E",
"/  c #99734F",
"(  c #846E57",
")  c #8E6E51",
"_  c #9A6657",
"`  c #916E51",
"'  c #8A7158",
"]  c #937254",
"[  c #9B7553",
"{  c #9C7956",
"}  c #957559",
"|  c #997659",
" . c #97785A",
".. c #9D7B5C",
"X. c #A7645C",
"o. c #A07754",
"O. c #A17A56",
"+. c #A2765C",
"@. c #A27D5C",
"#. c #AD5D60",
"$. c #976967",
"%. c #877867",
"&. c #947B63",
"*. c #9B7D62",
"=. c #857B76",
"-. c #A76867",
";. c #B86665",
":. c #A17E60",
">. c #AC756B",
",. c #B07471",
"<. c #C3434C",
"1. c #C5474D",
"2. c #C44C53",
"3. c #C94956",
"4. c #CC4A54",
"5. c #C75258",
"6. c #D15058",
"7. c #C46D70",
"8. c #78837E",
"9. c #A4815E",
"0. c #998169",
"q. c #9D836B",
"w. c #87837A",
"e. c #8C837C",
"r. c #998979",
"t. c #9F907D",
"y. c #A48262",
"u. c #A98565",
"i. c #A2856B",
"p. c #A98669",
"a. c #A5886E",
"s. c #AC8A6C",
"d. c #A58B72",
"f. c #AB8D73",
"g. c #A68C79",
"h. c #B58978",
"j. c #AB9379",
"k. c #B49479",
"l. c #B07F82",
"z. c #7F8784",
"x. c #8A8983",
"c. c #938B84",
"v. c #978C86",
"b. c #9C938B",
"n. c #989489",
"m. c #9B9894",
"M. c #9D9A94",
"N. c #AA8882",
"B. c #B88C88",
"V. c #A79789",
"C. c #A39A8C",
"Z. c #B49B86",
"A. c #A69993",
"S. c #A49B94",
"D. c #AC9D94",
"F. c #A69E9A",
"G. c #B69B95",
"H. c #ACA18E",
"J. c #B8A28B",
"K. c #ACA295",
"L. c #A6A299",
"P. c #ACA49B",
"I. c #B7A795",
"U. c #B3A59B",
"Y. c #BCA49D",
"T. c #B4AA9D",
"R. c #B9AC9D",
"E. c #BAB19C",
"W. c #9FA7A0",
"Q. c #ABA9A3",
"!. c #B1A6A1",
"~. c #B4ABA4",
"^. c #BAADA4",
"/. c #B6AEA9",
"(. c #BAAEA9",
"). c #ABB6AE",
"_. c #BCB2A5",
"`. c #BDB3AC",
"'. c #B8B4AC",
"]. c #BDB5B1",
"[. c #B1BCB4",
"{. c #BDBBB3",
"}. c #C69595",
"|. c #C9A390",
" X c #C3A996",
".X c #C5B29C",
"XX c #C7A8A4",
"oX c #C2ACA4",
"OX c #D4ABA8",
"+X c #C2B3A5",
"@X c #CAB5A7",
"#X c #C2B5AC",
"$X c #C4BAAC",
"%X c #CBBCAC",
"&X c #D5BCA7",
"*X c #C1B6B1",
"=X c #C4BAB3",
"-X c #CBBDB3",
";X c #C7BDB8",
":X c #D4BEB5",
">X c #BFC0BB",
",X c #C7C1AC",
"<X c #CAC2AF",
"1X c #CCC3B4",
"2X c #CAC7BA",
"3X c #CDC5BC",
"4X c #D3C5B5",
"5X c #D3C5BB",
"6X c #D4CBBA",
"7X c #D8C8BA",
"8X c #D8D1BF",
"9X c #F8C1BC",
"0X c #C9C9C1",
"qX c #D4CCC3",
"wX c #D4CAC7",
"eX c #DACCC3",
"rX c #CDD5CD",
"tX c #DDD3C4",
"yX c #D6D2CC",
"uX c #DBD4CB",
"iX c #DCD9D2",
"pX c #E4CCC4",
"aX c #F5CEC9",
"sX c #E4D7C5",
"dX c #E3D4CA",
"fX c #E5DBCB",
"gX c #EADDCD",
"hX c #F5D6CE",
"jX c #E4DCD5",
"kX c #EBDCD2",
"lX c #F3DBD6",
"zX c #EDE2D4",
"xX c #E7E4DB",
"cX c #EBE4DC",
"vX c #F2E5D4",
"bX c #F2E6D4",
"nX c #F4E9D6",
"mX c #F3E4DB",
"MX c #F5EADB",
"NX c #FBE8D8",
"BX c #FAECDC",
"VX c #EBE9E2",
"CX c #F4EBE3",
"ZX c #F9EBE3",
"AX c #F4EDEB",
"SX c #F7F3EA",
"DX c #F2F4EF",
/* pixels */
"] ) ] ' ) E Q R R R T R T R R R T * * * * * Q } ] } ] ) Q T R R R R R R R W R ! } _ ) ] ) ' ] ] ' ] ' i.k..XE.E..XE.H.d.9.Q = = * = = 5 * 5 = * = = * * * * 9 Q T R R R = = * * * = ",
") ] ) ] ] E Q R R R R R R R R R Q 5 5 5 5 5 ) } ] ' } ) ! Q Q W W W ~ W W W W ] } } }  .) ] ] } } *.j.+X6X8X2X6X8X,X2X,XE.q.9 9 5 9 5 T 5 5 5 5 B 5 = = * * 9 E R Q R R B = = = * 5 ",
"' ] ] ' ] Q W Q Q W ! ! R R ! R Q B T 9 B 5 ' } } } } ] ! ! ! ! ~ W ~ W ! ! W ] } }  . .] } } } { J.4X6X8X<X,X2X8X8X6X6X6XI.' 9 9 9 9 E 5 5 B 5 9 9 = 5 5 * E ! W W ! ! R = B = 5 5 ",
"` ) ] ` ] W ! ! W W ! ! ~ ! ~ ~ Q E T E T 5 ` *. . . .] ~ ! ^ ~ ~ ~ ~ ~ ^ ^ ! | *. . .{ ] }  .} j.+X6X3X,X,X6X8X8X8X,X,X8XE.q.Q E 9 T E 9 T T T T 9 5 9 5 = E ) ! ! ! ! T = B B 5 5 ",
") ) ] ) ] ! ! ! ! ! W ! ^ ~ ~ ~ ! Q Q E E E ] ..| .. .} ] ] ] ] ] ` ] ] ] ^ ^ | *.......} |  ...J.%X8X6X,XE.,X1X8X6X2XtX6X8XZ.] Q Q E Q R R T R Q T 5 5 T 5 E ) ~ ! ` ! T T 5 9 5 B ",
") ) ) ) ) ) ! ! ! ~ ~ ~ ~ ~ ~ ^ ) ! Q ! ) ! ] ....*.9.9.q.r.0.} [ ` [ ] ] | ] | ........| { { i. X6X8X1X2X<X,X2XE.T.1XtX2X2XI. .! ! ! ! Q R Q Q Q T T T T 9 Q ] ` ` ` ! R = T B B B ",
") ) ) ] ) ) ) ] ^ ^ ~ ^ ^ ] ^ ^ ` ~ ! ) ~ ! } 9...*.0.t q y y q ' ] | | | | ] { *...@.*.|  .{ y..XsXsX1X2X,X,XE.H.C.E.$X,X,XI.0.) ) ~ ~ ! Q Q Q Q W Q R T T Q ] ] ] ` ) R B B T B B ",
") ) ` ` ) ) ) ! ~ ] ~ ` ] ] [ _ ] ] ` ` ` ` } 9.&.%.u W.2XrX0X).e.%.| { [ ..| ..y.:.:.*.{ { ..@.I.1X6X,XE.E.,X8XfX8X2XE.2X,XI.u.] / ~ ^ ! ~ ^ ! ! W R Q R T ! { ] ] ^ ^ R T T T B B ",
") ) ) ] ) ` ` ^ ] ] ~ ] [ ] { | ] | ] ] ] ] ..q.w.z.[.VXDXDXVXDXyXn.w.9.@...[ ..y.*.@.@.......{ H.E.,X,X,X8XzXnXnXnXfX,X,XE.H.t. .] ] ] ~ ~ ! ! ! ! ! ! ! ! ! | } ] | ] W R R T T B ",
") ` ` ` ) ! ] ^ ] ] ] [ } { | { ] | | | | ] ..q.W.rXVXrX).W.[.[.VXiXn.0.*.@.+...y.@.@.y.{ ....@.j.H.E.,XfXMXMXnXnXbXfX,X,XE.E.j...} } ^ ~ ~ ^ ^ ^ ^ ~ ! ~ W ^ { { | | ] W R T T B T ",
") ~ ` ` ] ` ] ] ] } ] [ { { { ..| | | { | | *.r.{.rXW.z.e e e e z.rX[.V.q.@.@.@.y.:.:.y...O.....a.j.E.,XfXnXbXnXnXtX8X8X,X,Xt.t...} [ ] ^ ^ ^ ^ ^ / / ^ ~ ~ ^ ..{  .} | ! R R T T T ",
"~ ) ` ] ] ` | [ [ { ] [ ......@.| ......{ { q.T.0XW.e ; - - - - ; 8.2XT.d.y.@...:.:.:.y.....9.9.d.j.H.,X8X8XfXnXnXfXtXnXsX8XE.j.9...{ [ / / ^ ^ ^ / ^ / / / ] ..{ { } | ! R R R R T ",
"! ! ~ ] ` ] | ] | | } { +...+.y.............r.{.[.r # - - - - - - - W.).j.a.9.@.u.y.u.u.O.@.9.O.q.t.j.,X8X8XzXnXnXfX,X6X8XbX,Xj.0.....{ [ / / / ^ / o./ / / ] @.....| | ! Q R R T T ",
") ) ` ~ ] ` | ] | { | { @.:.@.:.........9...t.Q.z.- # ,   - - - , , 8.W.H.d.0.9.u.:.:.u.+.@...9.9.j.E.2X8X8X8XgXnXgXE.k.,XfX,Xj.y.@.@.[ / / / / / o.o.o.[ [ [ @.......| ! W W W R T ",
"! ) ~ ~ ~ ] | | ....[ @.:.:.:.y.*.:.0.9.9. .n.n.8   , , ; - ; ; , e r m.L.d.y.9.u.u.:.u.@.@.9...9.j.E.,XE.H.E.fXbXnXsXgXbXbX.Xk.y...@.{ o.[ / / ] O.o.o.{ [ | @.*...@.| ` W W W R R ",
"! ) ~ ] ^ ] | { ......@.y.:.y.y...@.9.9.9.%.V.e.,   # , ; - ;   r 1 8 z.C.j.y.9.@.9.9.9.O.@.@.9.9.j.J.,X4X4XsXbXfXnXnXBXnXbX.Xs.y.y.@.O.[ o.o./ / ..o.+.{ [ | y.@.*.*...` W W W R B ",
"! ) ~ ] ~ ]  .......{ ..y.y.u.u.0.9.y.y.y.%.e.q ; 1 2 r r -   2 ).e : q w.a.y.@.9.9.9.u.O.u.O.u.9.9.j.E.sXnXnXnXbXnXnXnXbXgX&Xs.y.y.:.@.[ o.o./ / O.+.O.O.[ ..@.@.:.*.| ^ R R ~ R R ",
"! ! ~ ~ ~ ] ....{ 9...9.y.y.y.u.9.0.y.y.y.&.8.2 8 z.F.m.u - ; m.0Xn.2 2 %.d.u.9.9.9.9.9.O.O.@.@.9.9.j.J.6XnXbXbXgXnXNXnXNXsX&Xk.y.y.y.O.o./ o./ [ +.@.@.@.[ [ y.y.*.+...~ ^ R R R V ",
"! ! ` ] ` ] ......0.....y.y.y.y.9.y.y.y.q.' %.q e W.F.m.l.e z.>X).'.M.w w &.u.@.9.9.9.9.O.9.@.@.9.9.9.k.4XbXBXnXgXnXnXnXnXsX&Xk.u.y.9.@.o.o.o.o./ @.9.@.@.@.{ y.:.*.:...~ ! R R R R ",
"! ! ) ` ` ] ......9.{ 9.y.u.u.u...y.u.y.y.0.w.r l.Q.Q./.0XrXwX].c.n.L.q w 0.u...9.O.@.u.O.O.@.9.9.9.9.j..XsXnXBXgXsXsXgXbX8X&Xk.p.u.y.{ o.o.[ / [ 9.9.@.*...{ y.:.@.@.+.~ ! ~ R R R ",
"! ! ` ` ` ] ......9.....y.y.y.i.9.y.u.u.y.' 8.q m.VXcXcXcXVXkXjXVXxX,Xw w i.u.9.9.9.O.u.O.9.O.O.9.9.9.u.|.&XgX8X%X%X<X6XsX&X<X.Xk.p.u.@.o.o.o.o./ 9.9.9.@...{ y.y.@.:...~ ! ! R R R ",
"! ! ! ` ] ] ..0.9.9...0.y.y.u.y.9.y.u.u.u.( q q m.cXAXAXCXVXlXVXMXxX2Xq 4 *.u...O.O.O.O.O.O.9.9.9./ 9.u.k.&X6X8X4X%X1XzX7X&XbX4X Xk.p.@.o.o.o.o.o.9.y.9.9.@.{ y.:.*.*...~ ~ R ! R R ",
"! ! ! ] ] ] .... .9.9.9.u.y.u.u.y.u.u.u.u.w > , m.VXCXZXlXlXlXCXzXSX,X> w a.u.+.O.O.O.O.O.O.9.O.9.O.9.u.k.k.E.8XtXMXMXfX_.1XnX8X%XoX Xk.@.o.o.o.[ 9.u.9.9.@...9.:.:.....~ ~ ! ! R T ",
"Q ) ! ~ ! ] ..9.9.0.9.9.y.y.y.y.9.u.u.u.u.' $ > v.jXmXVXZXZXZXZXMXcXK.2 0.k.h.O.O.O.O.O.O.9.O.O.O.O.O.9.k..XE.,X2XtX6X3X,XsXBX8X#X+X+X@X|.k.y.o.[ 9.9.y.:.:...y.:.@.*...~ ~ R W R R ",
"Q ) ! ~ ~ ] +.:.:.9...@.y.y.y.u.9.y.y.u.u.q.& $ y qXSXcXkXCXZXjXCXqXy $ t.@X|.s.9.@.o.O.o.O.@.O.O.9.:.Z.R.R._.$X$X~.M.E.qXMXSX6X'._.$X-X-XoXJ.s.o.y.y.:.:.@.{ y.:.:.....~ W W W R R ",
"Q ! ! ! ~ ] *.@.*.y...@.y.y.y.u.9.q.u.u.u.u.0 # < M.jXBXlXlXlXkXMXc.2 $ c.1X%XI.k.k.h.s.s.s.s.p.u.s.Z..X^.~._.=X`.T.P.].xXSXuX$X_.#X=X=X-X%X#XY.u.y.u.y.y.:...y.:.:.*...` ~ W ~ R R ",
"W ! ! ~ ~ ] @.:.*.y...9.y.y.y.y.9.a.u.u.u.y.' < $ y 1XCXZXmXlXZX'.t q > w.=X5X%X@X@X.X X|.|. XJ.J.J._.$X_.T.#X3X~.!.=XqXAXAX3X~./.$X=X=X*X=X*X(.Z.d.u.y.y.:...9.:.:.*...~ ! ~ W R B ",
"W ! ! ! ~ ] *.*.@.y.....y.y.u.y.9.u.u.u.u.9.' 4 < e.=XeXmXAXmXuXP.L.c.2 y {.iX3X-X5XpX:X4X4X4X7X:X$X$X$X'.~.=XqX].~.2XiXxXyX].~./.*X;X=X;X=X].(.G.U.p.y.y.:...y.:.:.@...~ ~ ! ! R R ",
"W W ! ! ^ ] @...*.y...9.y.y.y.y.9.q.u.u.u.u.' $ 7 L.=X`.-XdX:X(.cXyX(.r t ].VXwX;X0XiXwXwXfXdXfXeX1X-X`.~.!.~.{.3XwXiXyX0X'.Q.~.'.].=X2X*X*X].].].`.j.y.y.9...y.:.:.....~ ! ! R R R ",
"W W ! ~ ! ] @.@.:.9...9.y.y.y.y.9.9.u.y.u.s.0.$ < M.=XT.A.V.A.*XjX3X/.q r Q.iXiXjXjXwX(.5XcX5XeXdXqX3X1X=X^.~.^.*X3X3X/.].'.~.].`.].=X=X*X].].*X;X(.G.a.0.y...9.:.:.*...~ ~ ! ! R R ",
"W R W ! ! ] 9.0.*.y.....y.y.y.y.9.u.u.s.k.k.g.q > n.yX1X^.D.oXoX5X;XA.7 r /.iXiXqX3X*XY.#XpX^.V.-XkXdX;X#X#X#X^./.!./.~./.'.].{.].].;X*X].].#X*X;X!.^.f.y.y.{ y.:.:.@...~ ~ ! R R B ",
"W ! ! ~ ~ ] ....@.y.....y.y.y.y...u.k.|.<X4X2Xw.< x.iXeX#X:X+X#XpX:XG.%.A.yXiX2X`.=X1X#X:X7X+XG.Y.eXmXeX-X-X#X^.(.^.^.^.(.'.'.;X]./.`.(.].-X-X#X!.!.(.Z.y.y...y.:.:.@.{ ~ ~ R ! ! B ",
"W W W ~ ~ ] @.*.*.9...@.@.y.@.u.9.B.|.:XkXZXlXv.> y yXlX*X+X#XmXdX;Xc.r.wXCXjX2X*X5XeX-X7XaX:XY.G.7XmXdX1X-X#X#X#X+X`.(.`.`.`.]./.*X;X(./.#X*X'.C.~.(.G.p.y...y.@.*.@...~ ~ W W R R ",
"W W W ! ! ] ..:.@.y.....y.@.u.:.>.A -.,.}.aXlXA.< 7 ].AXdX4XpXBXkXlXU.3XmXdX;X#X*XwX-XXX@XpX%XU._.7XmXbX3X#X*X*X*X*X#X#X*X`.].;X/./.].].*X*XU.C.A.(.*XD.d.y...y.y.@.*...~ ! W W ! B ",
"R W ! ~ ! ] *.@.:.y.@...:.y.:.u.,.;.;.;.;.}.9XY.6 < D.lXlXhXBXvXSXNXdXlXZXiX-X#XoX:X:XXXXX:X@XU.#X5XbXCXeX-X%X=X*X-X#X*X#X].`.=X~.Q./.`.`.~.K.S.(.(.;X!.d.y...:.:.@.*...` W ~ W W R ",
"R R W ~ ~ ] ..@...:.@.@.:.@.:.:.;.U L ;.;.I }.B.6 X N.lXdXhXBXZXpX7XlXlXZXpXoXY.!.oXOXY.XX@XoX#X@X1XlXMXkX4X`.*X#X#X#X*X*X*X*X/.F.P.'./.D.F.P._.*X(.=X!.f.y...y.:.*.@.@.~ ~ ~ W W B ",
"R R R ^ ~ ] *.*.:.y.....y...y.@.J 5.U G Y ;.#.-.6 X =.aXaXhXaXaXB.OXlXAXlX:XOXoXY.XXXXG.XX@XoX$X+X-XgXMXzXeX+X#X$X#X#X#X*X#X`.(.F.M.P.P.L.T.^.$X*X!.*XD.d.:...y.:.:.*...^ ~ W W Q R ",
"R R ! ! ! ` +...*.9.....y.....@.J 5.G x H Y #.A 3 X 6 XXaXaXOX7.$.}.hXmXpXOX}.Y.G. XY.G.G.Y.R.R.+X$XdXMXMXkX5X$X#X#X*X#X#X#X`.].P.S.F.S.F.~._.`.#X*X*Xv.i.:.@.:.:.:.....~ ! ~ ~ Q T ",
"R R ! R ! ] @.*...@.....9...@.@.U 5.2.1.n L U Z 3 X + $.B.7.,.I A ,.OX:XXXN.l.B.G.G. XV.A.XXoXK.K.E.%XtXzXzXgXqX-X`.=X#X#X@X(.`.Q.M.b.F.T.'.`.$X*X`.!.b.d.:.*.y.:.*.@.{ ` ~ ~ W ! Q ",
"V R ^ R ! ] ......9.....@.@.....J 5.6.1.H n L I M + . 3 I #.P U K I -.l.Z Z -.l.B.B.G.Z.N.Y.^.K.C.U.~.-XdXmXmXkX4X#X#X+X$X#X`.(.P.M.S.~.$X`.`.$X=X(.F.D.g.:...:.:.:.*.{ ] ^ ~ ~ ) E ",
"R R R ~ ~ ~ @.{ ..9. .....9.9.{ J 5.6.4.4.2.L J V o o @ I 5.P L U K M % X % Z -.>.g.h.g.q.j.K.K.C.U.R._.eXkXZXmXdX4X@X`.+X$X@X~.~.P.~.'.$X'._.{.`.~.L.V.d.y...9.....+...] ^ ` ~ ! W ",
"R R R R ! ^ ......9... .{ 9.9.{ C 2.6.6.4.H D S M O O g U 5.H L Y S c o o @ Z A *.:.:.:...0.V.T.D.K.~.^.-XtXzXBXvXdX7X-X+X_.$X_.'.'.'.~.P.P.P.~.`.P.F.v.a.y...@.@.*.*.{ ^ ] ^ ` ` ! ",
"R R R ~ ! ` { ...... .{ { 9.{ { C F 1.4.<.x F S N g g S Y 6.3.2.L v O o o @ Z $.+.o.o.o.9.0.N._.K.K._.`.`.1XtXMXBXvXgXgX4X+X+X/.~.).P.C.C.C.C.T.'.v.v.r.q.y...@...*...{ ] ] ` ` ` Q ",
"R R R ~ ! ` ..}  .....{ 9.{ { { _ x n 4.1.<.G J S S F P 5.3.6.5.F v g + . @ Z A +.[ o.o.[ a.V.$XP.C.^.$X`.+X1XfXMXMXnXBXnXsX4X1X'.P.L.L.P.P.T._.K.=.e.b.d.y...0....... .] } ] ] ` Q ",
"R R W W ! ` | | { 9.' { ^ 9. .9._ N x 1.1.5.5.G G G 1.2.6.1.5.G b v M + + @ Z -.+.[ o.[ / u.Z.$X~.b.U.$X#X`.+X%XgXBXnXnXBXNXgXbXiX1XP.P.'.,X$X_.b.e.F.K.g.i.{ ......{ | ] ] ] ` ] ! ",
"B R ! ~ ! ` | |  .{ } { 9.{ { { ^ z l x 1.1.G 1.G <.1.4.4.5.1.z j c @ + . @ A -.+.o.[ [ [ @.V.`.`.b.D.'.+X+X_._.4XgXnXgXbXNXMXBXSXxX{.S.K.`.'.P.S.T.;XU.d.y.{ ....| | | ] | ] ] ` ! ",
"R R W W W ` ` | 9.' ( 9.^ ^ { [ _ b k x G G G n 1.m m 4.6.1.G z S I M o . @ I -.| ] [ / / @.g._.-XK.S.^.`.#X$X$XE.4XbXBXbXbXbXzXCXDXqX~.S.P.T.T.T.`.'.D.a.@.{ { | | | | ] ] ] ] ` Q ",
"R R W W W ` ] ` ] ] ^ ^ ^ 9.{ ] C v k k z z b b x m 6.1.1.1.x z L K g o o c I -.+.[ [ / / +.N.`.=X`.F.~.$X'.-X$X_..X8XbXnXnXzXxXSXDXyX/.T.P.M.U.'.`.'.G.a.*.{ { | | | ] ] | ] ] ] ) ",
"R R R R W ! ] ] ] ] ] ] ] [ / ] V v p k d l F L n m 3.3.1.x x 1.Y I v O @ v L ;.+.[ / / ` +.Z.^.*X`.A.P.*X*X*X(.*X#X_.1XzXBXnXxXDXSXyX~.Q.T.c.C.'.].].G.a.*.| ] | | | ` ` ] } ` ) E ",
"R R R R W ! ^ ` ] ] ` ] ^ ] ^ / C v p d d f n P P 3.3.m <.x n 1.L b v c v K Y Y X._ ~ / ] *.XX(.].=XF.A.*X;X*X#X=X#X^.+X5XgXMXcXCXDXiX_.L./.n.P.`.`.`.F.a.{ ] | ] } ) ) ` } } ] ] ) ",
"R R R R W ! ) ) ! ` ` ] ^ ^ ^ ) C v d p d p b b P 3.3.<.n n 2.2.L F S Z K Y Y L #.[ [ ~ [ a.!.!.].;X!.A.!.*X#X*X(.^.$X$X_.,XiXuXjXDXVX'.n.L.b._.`.`.`.D.i.{ ] ] ] ` ) ) } | } ` ] ( ",
"T R R ! Q Q ! ) ! ` ! ` ) ~ ~ ! M v d d d s a v b H H x l x H G F D K S L Y 3.Y #._ ` ` ` @.v.A.!./.!.v.b.(.*X].'.#X#X`.R.E.].%XyXcXcX1Xn.n.C.'.`.`.].K.q.{ ^ ] ` ` ) ! ] } ] } ] ! ",
"R T R R R R Q Q Q ) Q ~ ~ ~ ! Q M N j d s s s s z b x l d l z z b b v v S L 3.P U _ ~ ! ! *.x.b.S.F.m.x.c.F.].].$X*X+X`._.^.U.~.].2X3X'.e.c.P.`.`.`.].K.q.| ] ~ ` ) ) Q ` } } ' ) ) ",
"R T R B R R Q Q E Q E ! ! ! W B M S j d d s s f f d d d p d k d s f a f n P n b S ! ~ ! ! N.c.A.m.b.c.x.l.b.!.].*X*X#X+X+X_.~.P.L.M.M.n.e.n.U.#X`.].*XD.q.] ~ ~ ! Q ) E ' } ] ] } ) ",
"T R R R T R R T E E E ! W W R V N K j j s d f f d d p d d k d p p s a f b n b x S C ~ R ) g.A.F.S.v.v.8.t l.m.P.(.*X*X#X$X_._./.M.c.e.x.b.U.~.`.#X`.*XD...] ! ! E Q E E ` } } ' ' E ",
"T T B R T R T T T E T Q R R R V N D b j d s f f f f d d p p p p i a a s l l n F J A ! T E >./.*X/.m.v.l.z.u z.m.^.*X#X#X+X+X$X`.!.P.L.K.~.`.`.#X`.].].U.0.~ W Q E ( Q 9 ' ] ] ] ] ) ",
"B T T T T 9 9 9 5 9 9 E E T T C c j J j p j s f h s h p p s a i i i i f j n n n U _ ! E ) Z.uXVXjX[.m.z.l.u u x.U.(.*X#X@X#X*X#X`.`.'.`._.#X_.(.`.].~.P.r.) ! E E T 9 9 ) ] ' ] ] ) ",
"5 B B T 5 9 5 5 9 9 9 T 9 T M M N h z j j s s f g g p h s a a a i i f b n L <.Y Y _ E E *.eXAXAXDXiX).l.r u =.N.b.D.^.*X*XoX#X#X`.`.`.`.`.`.#X`.*X~.S.V.g.} E B 9 9 5 5 ' ] ] } ) ) ",
"= T = 5 = 9 5 5 5 = 5 9 9 V V c g h h j d d s f a h p p s i a a O O g S 2.2.3.P U V E C *.SXDXAXDXAXwXm.u u u =.=.=.D.^.#XoX#X#X`.`.`.`.#X#XoX`.~.P.v.V.F...E 5 5 5 5 5 ' ] ' ] ] ) ",
"= = = = = 5 * * * * 5 9 5 5 V c N h h p s h h g g g g g a i a g O O c F Y P L U K V 5 6 &.jXAXjXAXAXrXm.N.u %.=.=.=.v.G.Y.!.^.^./.^.R.^.^.^.^.R.R.e.e.v.^.q.B * * 5 * & ) ] ' ] ] ! "
};
