/* XPM */
static char *exit_2_[] = {
/* columns rows colors chars-per-pixel */
"50 50 112 2 ",
"   c #4F3B04",
".  c #4F3C04",
"X  c #543103",
"o  c #553103",
"O  c #543303",
"+  c #573203",
"@  c #553403",
"#  c #543503",
"$  c #583003",
"%  c #583303",
"&  c #5B3503",
"*  c #5D3604",
"=  c #513903",
"-  c #6B3F05",
";  c #6C3F05",
":  c #084E0F",
">  c #1D440C",
",  c #08550F",
"<  c #0A570E",
"1  c #0A5A0E",
"2  c #0B5F0D",
"3  c #095D0E",
"4  c #064410",
"5  c #2F4409",
"6  c #3F4D05",
"7  c #364408",
"8  c #304D08",
"9  c #20530A",
"0  c #20540A",
"q  c #255509",
"w  c #295209",
"e  c #215A0A",
"r  c #215C0A",
"t  c #3B5206",
"y  c #385506",
"u  c #385606",
"i  c #335907",
"p  c #335B07",
"a  c #365806",
"s  c #335C07",
"d  c #305F07",
"f  c #0B610D",
"g  c #0A600E",
"h  c #0C630D",
"j  c #0C650D",
"k  c #0C660D",
"l  c #0B680D",
"z  c #0D680D",
"x  c #0D6A0C",
"c  c #0C6D0C",
"v  c #0E6C0C",
"b  c #0D6F0C",
"n  c #1D6F09",
"m  c #0F750B",
"M  c #0D700C",
"N  c #0F750C",
"B  c #0F780B",
"V  c #0F7B0B",
"C  c #0F7C0B",
"Z  c #12710B",
"A  c #10760B",
"S  c #10770B",
"D  c #1F7309",
"F  c #1D7509",
"G  c #1C7709",
"H  c #107B0B",
"J  c #117B0B",
"K  c #117C0B",
"L  c #127F0A",
"P  c #177C09",
"I  c #177D0A",
"U  c #1A7909",
"Y  c #187C09",
"T  c #2D6307",
"R  c #2C6407",
"E  c #2C6507",
"W  c #2B6508",
"Q  c #236A09",
"!  c #266B08",
"~  c #256C08",
"^  c #246D08",
"/  c #246E08",
"(  c #296808",
")  c #227008",
"_  c #454605",
"`  c #4A4104",
"'  c #484304",
"]  c #494304",
"[  c #424A05",
"{  c #6D4005",
"}  c #754406",
"|  c #824C07",
" . c #854F07",
".. c #935708",
"X. c #945809",
"o. c #9E5D09",
"O. c #A7630A",
"+. c #B26A0B",
"@. c #BA6E0B",
"#. c #CA780D",
"$. c #CF7B0E",
"%. c #D17D0E",
"&. c #D27D0E",
"*. c #10810B",
"=. c #12830A",
"-. c #14810A",
";. c #10840A",
":. c #13840A",
">. c #11860A",
",. c #D6800E",
"<. c #D9820E",
"1. c #DA820E",
/* pixels */
"=.=.L =.=.=.L =.=.=.L =.L =.:.=.U W T ` X # + X # X # + X . u W / =.;.=.=.=.=.=.=.=.=.=.=.=.=.=.=.=.",
"=.=.=.=.=.=.=.=.=.=.=.=.;.P a [ ` X + % + + + + + + + + + + + +   t D =.=.=.=.=.=.=.=.=.=.=.=.=.=.=.",
"=.=.L =.=.L =.=.=.=.=.:.P a # + + + + + + + + X + # + X + + + + + +   W =.=.L =.=.=.=.=.=.=.L =.=.=.",
"=.=.=.=.=.=.=.=.=.=.=.( ` X + + + + + + X # + + + + + + + X + + + + + _ P =.=.=.=.=.=.=.=.=.=.=.=.L ",
"=.=.=.=.=.=.=.=.=.:.P _ + + + + + X + + + + # + @ X X + X X + + X + + # W :.=.:.L V =.=.=.=.=.=.=.=.",
"=.=.=.=.=.=.=.L :.b q @ + X + @ + + + + + X + + + + + + + + + X + + + + _ P =.:.j < N :.=.=.=.=.=.=.",
"=.=.=.=.=.=.=.=.m 2 w + + + + X # X + X + + + X + + + + @ # + X + X + + # R =.N : j f V =.=.=.=.L =.",
"=.=.=.=.=.:.J f f m 6 + + X + X + + + # + # + + + X + + + + + + + + + + + _ P 1 j =.M f M :.=.=.=.=.",
"=.=.=.=.=.M j M =.P   + + X @ + @ X X + + @ + X + X X + + + @ + + + X + + = n f V =.:.N f N =.=.=.=.",
"=.=.=.L l j V :.=.D = + + X + + @ + + + + X + + + @ + + X @ + + X + + + + X 9 m =.=.;.=.Z f N =.=.=.",
"=.=.A f M :.:.=.=.u + + + + @ + + + @ + + X + + + + + + + X + @ X + + + + + 6 =.=.=.=.=.:.=.< Z :.=.",
"=.=.A A =.=.=.=.:.t + + X + + + + + X + + + + @ + X X @ + + + + + + + # # + # Q :.=.=.=.=.:.b f :.=.",
"=.=.=.:.=.=.=.=.;.t + + + + @ + + @ @ + @ + + + + + @ @ X X @ + + + + # + + + W ;.=.=.=.L =.=.=.=.=.",
"=.L L =.-.=.:.:.P _ + + + X X + + X + + + + + X + + + X + + + + X + + X + + + u =.=.=.L =.=.=.=.=.=.",
"=.=.=.=.=.=.=.:./ # + X + + + + @ X + + @ + X + X + + + + + X + X + X + + + @ . D =.=.=.=.=.=.=.=.L ",
"=.=.=.=.=.=.=.:./ + + + + @ + X + + + X X + + + @ + + X + @ X + + + + + + X $ $ u =.=.=.=.=.=.=.=.=.",
"=.=.=.=.:.=.L =./ @ + @ + @ + + + + + X + + X + + X + + @ + X + $ @ $ @ @ X $ X 6 *.:.:.=.=.=.=.=.=.",
"=.=.=.=.:.=.b f / @ + X + + X + + X + @ + + @ + + + @ X + + X + @ $ @ $ @ $ @ X ` U =.k N =.=.=.=.=.",
"=.L =.=.=.=.1 , r @ + + + @ X X # + @ + X @ + + X + + + + + @ + @ X $ X $ @ $ $ $ / :.4 j =.=.=.=.=.",
"=.=.=.=.=.=.1 C > + X + + + + + + + + + + + X X @ + X + X + + @ @ $ @ # @ $ @ @ # / c f j H =.=.=.=.",
"=.=.=.=.=.V 2 *.0 + + X + @ + + + X @ + + + + + X + @ X + + @ @ @ $ @ $ $ X $ # X Q , N N f :.=.=.=.",
"=.=.=.=.:.j b :./ + + + + + + + + + + + + X + + + + + + + X + + @ $ @ $ $ @ @ $ X r 2 :.=.l M =.=.L ",
"=.=.=.=.j 1 =.:./ @ X + + @ + + X X + @ + + X + + X X + + + + + $ @ $ @ @ $ $ @ @ 7 L :.=.=.1 L =.=.",
"=.=.=.J 2 m =.=.^ @ X + + + + + + + + X X + @ @ + @ + + X @ + + # $ @ $ X # # $ @ ` Y :.=.=.b j =.=.",
"=.=.L j m =.=.=.p + X + X X @ + + + + X + + % % + + X + + + X @ $ # $ X $ $ $ @ $ ` P =.=.=.L 2 V =.",
"=.=.f b :.:.=.L [ + + + + + % @ @ X + + X + + @ + X + + X + + @ X # @ # $ @ @ $ $ ` =.=.=.=.:.x x =.",
"=.f j =.=.=.=.=.' + + & } O.+.+.+...& + + + @ @ + @ + @ + + + + $ $ # $ @ $ # @ @ ` =.=.=.=.=.L b x ",
"=.L =.=.=.:.:.U ` + + ..$.<.<.<.<.$.- X + + X + + X + + + + @ + # @ $ @ # $ X $ $ ' P =.=.=.=.=.=.x ",
"=.=.=.=.=.=.=.P ' + + +.<.<.<.%.<.%.- + + + + + + + + @ X X @ + # $ @ $ $ # # $ $ ` =.:.=.=.=.=.=.=.",
"=.=.=.=.=.=.=.*.  + + +.<.<.<.<.,.%.- + @ X @ + X X + + + + + @ $ @ # $ $ @ $ @ X ` P :.=.=.=.=.=.=.",
"L =.L =.=.=.=.P ` + + X.%.<.<.<.<.$.- + + + + @ @ + X + + + + + # $ # $ @ $ # $ $ ` =.=.=.=.=.=.=.=.",
"=.=.=.=.=.=.=.W + + + ;  .@.%.<.#.o.& + X + + X + + + + X + + @ $ @ $ $ # @ $ @ $ ` P =.=.=.=.=.=.=.",
"=.=.L =.=.L =.d $ $ $ @ X * | X.{ & @ # $ @ $ @ $ $ @ X @ $ X @ $ $ $ @ $ @ % # $   ~ =.=.=.=.=.=.=.",
"=.=.=.=.=.=.:.i $ $ X @ $ X @ X $ $ $ X X $ # $ @ $ $ # $ # @ @ @ % @ $ @ # $ $ @ $ 8 ;.=.=.=.L =.L ",
"=.=.=.=.=.=.V 5 @ $ @ $ % @ X $ @ % @ # @ @ @ % @ X @ $ @ X @ $ $ @ $ X # $ X $ $ $ w l L =.=.=.=.=.",
"=.=.=.=.=.=.b 5 $ @ % $ $ $ @ @ $ @ $ $ $ X $ @ @ $ @ X $ $ % @ @ # $ # X $ @ @ @ $ a b l =.L =.=.=.",
"=.=.L =.=.V f i $ @ X $ $ $ # $ $ @ $ # $ @ # $ $ @ $ X @ @ $ $ % $ $ $ # @ # $ + + d L k N =.=.=.=.",
"L =.=.=.:.k M d @ $ @ @ @ # $ @ # $ @ $ X $ @ $ $ % @ X @ $ % @ @ $ @ X @ $ $ @ + + a =.L h V :.=.=.",
"=.=.=.=.L 2 K s % $ # $ X $ X @ $ @ $ @ @ $ X @ $ X # $ $ X @ @ X X @ $ $ @ $ $ + + d =.=.k h =.=.=.",
"=.=.=.=.k b :.s % @ $ @ $ % @ $ @ $ @ # $ @ $ @ @ $ $ @ @ $ @ $ $ @ $ @ $ # @ X + + p =.=.V : k =.=.",
"=.=.=.H 2 L :.i $ $ @ $ X @ $ # $ $ @ # @ $ @ $ $ @ $ @ @ X $ @ X + + + + + X + + + p =.=.=.m : m :.",
"=.=.=.H V ;.:.d $ @ $ @ @ $ @ $ # @ X $ $ @ $ @ $ @ $ @ @ $ @ $ @ + X + + # + + + X d :.=.=.:.j < =.",
"=.=.=.=.=.=.;.i X $ @ $ X $ $ @ $ $ $ @ $ $ @ $ @ X $ $ % $ X # @ + X # + + + X + $ u =.=.=.=.L x =.",
"=.=.=.=.=.=.:.i $ @ $ @ @ @ X $ % @ @ @ @ X $ # $ # % @ @ X $ @ + + + + X + + X + X d =.=.=.=.=.=.=.",
"=.=.=.=.=.=.=.d $ @ $ @ @ $ X @ $ @ $ X @ @ @ $ # $ @ $ @ $ @ $ + + @ + X + + + + + p :.=.=.=.=.=.=.",
"=.=.=.=.L =.;.i @ # X X % $ $ @ @ $ @ $ $ $ $ @ $ @ $ @ X @ $ @ + X + + + + # + X + p ;.=.=.=.L =.=.",
"=.=.=.=.:.=.-.i % $ @ $ $ % @ @ @ @ $ @ # $ % $ # $ X @ $ $ # X @ @ + X + X + + + + p =.L =.=.=.=.L ",
"=.=.L =.:.:.:.d @ $ $ $ # @ $ % $ # X X $ @ @ $ @ # X $ @ $ @ $ + X + + + X + + + X p =.=.=.=.=.=.=.",
"=.L =.=.=.=.Y 6 @ $ @ @ $ $ $ @ $ # X $ @ @ $ @ $ @ $ $ X @ $ @ + + X @ + + X + + + p :.=.=.=.=.L =.",
"=.=.=.=.L =.F   $ $ % $ $ @ @ X @ $ @ $ @ $ @ $ # $ X @ $ @ $ @ + # + + + + @ @ + + p ;.=.=.=.=.=.=."
};
