/* XPM */
static char *floor[] = {
/* columns rows colors chars-per-pixel */
"90 60 39 1 ",
"  c #76573B",
". c #77583C",
"X c #795A3D",
"o c #7F603F",
"O c #7D5D41",
"+ c #7F6043",
"@ c #815F42",
"# c #846345",
"$ c #896546",
"% c #896947",
"& c #856549",
"* c #8A6749",
"= c #87684C",
"- c #8D6A4B",
"; c #916E4E",
": c #95714E",
"> c #99734E",
", c #8E6E51",
"< c #916F50",
"1 c #8F7153",
"2 c #947254",
"3 c #9C7553",
"4 c #9D7956",
"5 c #957559",
"6 c #997759",
"7 c #977859",
"8 c #9D7B5B",
"9 c #A07754",
"0 c #A17956",
"q c #A17D5C",
"w c #9F7D60",
"e c #A27F60",
"r c #A5815E",
"t c #A58262",
"y c #A98566",
"u c #A78867",
"i c #AA8867",
"p c #AB8768",
"a c #AB8968",
/* pixels */
"21111=@*@*$$@$$$#XX X =1115,*@**$$$$$$#;115,1,,511=@$$$$$$$$$@XXXXXOO XXOX  . +=&$$$@XXX X",
",2111*****$$**$$&OOOOX,55551*****$***;$<5555155255,-$-$$$-****@@OOO@OOOOOO.X..+=$$$$XXXXXX",
",1152=**-$$*$$--*@#O@O,55551;-*;**;;-;*<w555155525,*--*$-;-;,-@@OO@&OO@@+OOOX.#--%%%@O@XX@",
"1111<-*-----;-;-=#&&&@1w55w1;<;;:;<<;<<65w77555565,;*;;;:::;<-&&&&&&@&#@&+OOOO&,----@O@O@@",
",1111,*-*;*;>;;;-**&=&2868852<<22;22<2<6w878556666<<<<;;<22>:,@-*=&=&##%&#O#OX%1-;,-#@@@@@",
",1<1,,,-<*;<;;;;,-*---2w8w862232>23223<6w88w680606::::2<23226<,,----%%%%*&####=1<<<<#@#@@@",
",,<,,,,,<;<:2<>:<,-,,-6ew8w862666266662qw8e8668688<2222<69626<<,,<;--%%-**&&&#-22<<<*@@#o@",
",,,<,<,<<:<<<>2>22<<<<6e8ww788600>066068twqe6868w662333<686806:<<22:-;;%--$$##-352<<$####o",
"-,1,1-2::2<232632262526eeee888e0w6080q0eeeeeq888877>>332600e06222522;-;----$-$-45222*&####",
"2,<<<;22262<63662562628te0e8weqqe6eeqee0eeee0qq888747345eeeee666552::::;:::;;-:46662*$$#@#",
"-,<22,222226660q6666668eeeeeeeqqe0eeeeeeeeeeqq0qqq4844440eeee6664442::::;>;>;:286666*$$##@",
",<<<2<223620q88e6886868teeeeeeeee0eeeeeeeeee0qqqqq488444eeeeee688743:>>:>>>>>:288682;$$$$#",
"-<<2<<666666q8ee6w88q0qeeepeettyeeeeepeeeeqp00qrqr780004eepeeee088863>>>>3322>2q8866,*$$##",
"-<,<2<666628qqqe888weqqeeeeeqtyeeepepeeepepee0qqr88rqqr8ypeeeeee88r73>>>>339333q8885-**$$#",
"-,;:<266080eeeeewwqeeqqpeeeeryyyeeppppeeeeepqqqqr84qqqq0epepeeeeetq43>3>28993378e8w8,**$$#",
",--2<<866q0eeeeeeeeeeeqepyeetyyyeeepepeepepeqqqqrr8rqqq0pppepeeeqte4399>>800437rew86,*-$$#",
"--;2;277r777ttttwtttttwrrrrrtiyypqyyyyyqrrrrr9rr0r8rqrrqpppqpqepeye0099>>q00q84te6e6>$-$$$",
"---2:28877rrtttuwttttwtrrrr0tyyypqypyyyqrrrr9r00r00rrrq0rppppqqeeye033>9>qqq004weeee;;$-$$",
",-,<<288tw77tttuwuttttwrrrrryyyppqpyypyqrrrrrrrrrr0rrry0pppppepqyee699999qeq084teee6;$$$$@",
"--,2<2w87twttuutrtttut7r0rr0yipypepyppyqrrrr999rq00trrrrqppppeppeyyq999>3qeqq87reee9;;--*$",
"=-<<<58w7t5tttturyytttwrqqr0yppypeppparqr9rr9rrrqq0rrrrrqppppeppytyq99393qtqq88teew6;---*$",
"--,<<2w8tt7tttttrtyytu840000ypyypeppyay09rr990r9r0rryrrrppppp0epyteq99993rtqrq7tewww;;***$",
"---<<28wt75tuttu8utyyt800009yyyppeppiar999>99rrr0r0ryrirqppppeppyyy099393rtrtq8teww6;---$$",
"=,-;<28wtt7ttttu8uyyyy809009yypypqypaarr9r999r00000yrrrrppeppeepyyy999993rttqe7teew8>--*$@",
"*--<;2wwew88tttttutyyy690999uyyppqppype099999r00r00r0yp0pppppeppyyt099393ryeeq7reww6<;**-@",
"*--;<2w8et8tttut8uyyyy099996ypyypepppyp0999990r0000ppypyqpepqqppyyy839993ttttt8teeww;-;**@",
"*---;2w8wt8rtttt8uyyyt099999yyyypeppppp099999999000ayypqrrpppqpppyp809993rteee8teew8;****$",
"-*-;-2wttt88tttt8uyyyyq99999tppppeppppe099999rr9000yyrpeppepeqppypp099933ttttt7twww6;;;**@",
"**-;;2w88twrtttt8uyyyy039999yypypepeppe099999r0000rppppqeeeppqppayyq99933turtt7teww8;;**$$",
"**---2ww8t7rtrttquyyyy099993tpyypeppppp099999000000pepp0pppppqppyyy099993rtttt7teew8;;--*@",
"**-;-2q8wr78ttttwuyyyy899999yppypeppppp099999000090aeppeeppepepeyya099994tuttr7tew88;;**$$",
"$*---58twt8rttttryyyuy899993tptpyeppppe099999000000ipppeepepeeppaat099393ttttt8ttwq6;;--$$",
"$---,1t7ttrt7ttteyeyppq99999tyyyyeepppe099993009090ayyytttryyriipyyq30993ttyttrtttw71--*$$",
"$$--=57ttt11ttt7eppype999994tyyyeeppppp099909090090ayyytryyrrryiypy099393tyttt7twwt71--*$#",
"$$--,177tttrttrtqypppy039999tyyrpeppypp099994099090ayyytrttyrqyiaya099394tyttt7ttww7;;--*$",
"$$-,11t7t51tt7rr8ypepyq09999ryyyyeppppp09999990009qayyytrrrrrryiyyy099994tutttrt7tw7;;-%$#",
"$$;;15tt5t1trrrr8yytyy699993ryyypepeepe09999900999qaayptrrtrrryayayr0999>tttat8tee88;;-%$$",
"$$-*5+t7tt1rrrrrwyyyyp099903rrryeeppppp099993090030ayyytrrrrtryyyyy000904tuttt7rwew8;-;-*&",
"$$--+trt1ttrr1rr8ptypt099993ryyreqppppeq99999099990atyattrrrtepyyyy00r004tauttrrewe7<;;*-&",
"$$$-+r+5ttt1rrrr8tttty099999ryqypqpeppe099993099090aayytrrrrrqyyyyyr0rr00rttut8rew882;;;-&",
"@-$;->90rw78rrr18yttty039999rrrqqqppyye09999999999qaypptrrrrrqppyyyqqqrr4tutut8t8w8822;;;*",
"$$$-->6w8887r7rr7uttttq09999r0rrqqpptyy99999999993qaypptrrqrr0ppyytqrq0r8ttutt88w8w7<2;<,*",
"$$*-,<w5884747rr8retee939999r0rrq0eeyyy9>393>999930ayyytrrrrqqepytyqq0r00ttttt8rww86222<<=",
"$$$-*<587r774r2r8tqeee93>99>0r0rq0ppeye9993999999>0ayyyt8r0rqqpeyytqrrryrtuttr7r8886252<<-",
"@$***:867r542r4r6eewee9333390r0r00peeye0>999>9399>qyyyatqqqqqqeetttqtrrt8rtttt788886222<2-",
"$$*;*<6574272444688qeq39>33>4040q0eyeee99>>9>93>9>0ayyurqqq0qqpetteqtrttrrtttr7788752622<=",
"$$***<2617:1r:4768qqqq>33>>>409000eeeyq6>>>>69>99>0yytpe0qqqqqeettqqetwt8ttrrw44566222222-",
"$$***,2<1r1r%r>36866666>3>3>443900qqqqq3>>>>>9399>0ittyeq00000eeqtqqtqtu87trr857656226222-",
"$$$$*-22252223232444473>>>2>>>93>6q88q86>>>>:9>>>>0teeee0e0060eqeq8qeeeeqqeq0r74666,2555,,",
"$$$$*-<<<2,2:22>2252522:;>>;>>>>>6888743<>:::9>>>>3teeee693636qq8q8qteet88w88852521,25111=",
"$$$$*-,,<<,2112:2252222:;;;>>:::;:44786:<;:::>>>>>3teeee2>6363880q6qreee88887722<1,,,5,12,",
"@$$-**---,-<:::::;222::-;;;;;;%;-:654222;;;-;>:>>>2qe00696>632866066eqqt848774::<<<,15551=",
"$$$$$**==%%-%;:%-<,<<;;;;-;;$$%;%;222<2<--;*;>::;;2q8806222>:2463620t88w664523:1<,,=555,5=",
"@$$$$**====1%;%:-,------;$;*;$$$$;22<<<;---*-;;;;;<06666>>>2::62322688ww4252221-,=-=,5,51,",
"$$$$$$#&=&=%%%%%*-==&*-$$$$$#$###*--<<;;$*$$-;-;;-:3:262:::::;2:23<28www6222::--===&,5511=",
"@@$@#$##&+%%%%%%*&&&&&*&#$$$#@###=--***-@@$$$--;--->2:><-:;;;;;;<<<2885w5::::1-=&&&&,5155,",
"###++++++++&&=%%&++&+&#######@@Oo#&&&#==@@$@**$$$$*<<;;--;;;-;;;;;;<86565-;;,,==&@+O,5152,",
"X++++++o+++++#+o#+++++&O@#@#@XOXX+&#####@@@@#*##@$*;;*;;---%$-;$*;$<65552---*,=+O@OO,5111,",
"OO+O++o.oX++ooo##OXOOOOOOOX@XXOXX++OOOO+X@@X@@@@@@$;**%%%%%%$$$*$-&,5555,*****+OOOOO,1515,",
"XXXX.Xoo..O+ooooOX  . OOXXXOX.X..+X.X.XOX XXOXXXXX@**$$$$#$$$#$$#$&-2<11,%#*&*+OOO  =5,52-"
};
