/* XPM */
static char *daede39a4f854360a157d4921a248cbbee9LX8eSmoDlRdLA[] = {
/* columns rows colors chars-per-pixel */
"80 80 3 1 ",
"  c #043A11",
". c #12830A",
"X c #12840A",
/* pixels */
"................................................................................",
"................................................................................",
"................................................................................",
"................................................................................",
"................................................................................",
"................................................................................",
".................................. .............................................",
"..................  ............   .............................................",
"................. .. ........... .. ............... .............  .............",
"...............  ... .......... ... .............. . ............ . ............",
"............... .... ......... ..... ............  .. ..........  . ............",
".............  ...... ........ ..... ...........  ... .........  ...  ..........",
"...........  ........ ......  ...... ........... ..... ........ ...... .........",
".......... ........... .... ......... .......... ...... ....... ...... .........",
"........  ............ .... ......... ........  ........ ..... ........  .......",
"....... .............. ... ........... ...... ........... ... ........... ...X.X",
"...... ............... ... ........... ..... ............  .. ............ .XXX.",
"....  ................. .. ........... .... .............. . .............  ....",
"....................... . ............. .. ...............  .............XX ..X.",
"........................ .............. . ................. ....................",
"........................ ............... .......................................",
"................................................................................",
"................................................................................",
"................................................................................",
"................................................................................",
"................................................................................",
"................................................................................",
"........... ....................................................................",
"........... ...................... ............  ....................  .........",
"..........   ...................   ............  ....................  .........",
".......... .. ................  .. ...........  . ...................  .........",
".......... .. ..............  .... ..........  ... ................. .. ........",
".......... .. ............  ....... ......... .... ................. ... .......",
"......... .... .......... ......... ........ ...... ...............  ... .......",
"......... .... ........  .......... ....... ....... ............... ..... ......",
"........ ...... ...... ............. ...... ........ ............. ....... .....",
".......  ...... ....  .............. ..... ......... ............. ....... .....",
"....... ....... .... ............... .... ........... ........... ......... ....",
"...... ......... .  ................ ... ............. ......... .......... ....",
"..... ..........  ................... . ............... ....... ............ ...",
".... ............ ................... . ................ ...... ............ ...",
".... ................................. .................  .... .............. ..",
"..  ..................................................... ... ................ .",
".......................................................... . .................. ",
"...........................................................  ...................",
"........................................................... ....................",
"................................................................................",
"................................................................................",
".............................  .................................................",
"............................   .................................................",
"............. .............. . .................................................",
"............  .............  .. ................................................",
"............  ............ .... ..................................  ............",
"............  ............ ..... ................................   ............",
"............ . .......... ...... ............... ...............  .. ...........",
"........... .. .......... ....... .............  .............. ..... ..........",
"........... .. ........  ........ ............. . ............. ...... .........",
".......... ... ....... ........... ........... .. ............ ....... .........",
".......... ... ....... ........... ........... ... .......... ......... ........",
"......... ..... ..... ............ .......... .... .......... .......... .......",
"......... ..... .... ............. ......... ...... .......  ............ ......",
"........ ...... .... .............. ......  ....... ...... .............. ......",
"........ ...... ... ............... ....  .......... .... ...............  .....",
"....... .......  .. ................ .. ............ ... .................  ....",
"....... ........ . ................. .. ............ ... ..................  ...",
"...... .........  ..................   ..............   .................... ...",
"..................................... ...............  .....................  ..",
"............................................................................. ..",
"................................................................................",
"................................................................................",
"............X.X.................................................................",
"................................................................................",
"................................................................................",
"................................................................................",
"................................................................................",
"................................................................................",
"................................................................................",
"................................................................................",
"................................................................................",
"................................................................................"
};
