/* XPM */
static char *grass_2_[] = {
/* columns rows colors chars-per-pixel */
"50 50 40 1 ",
"  c #084E0F",
". c #084F0F",
"X c #08500F",
"o c #08510F",
"O c #09530F",
"+ c #0A5A0E",
"@ c #0B5F0D",
"# c #0B5C0E",
"$ c #0C5F0D",
"% c #064410",
"& c #074910",
"* c #0B610D",
"= c #0C600D",
"- c #0C630D",
"; c #0C640D",
": c #0C650D",
"> c #0D680C",
", c #0D690C",
"< c #0E6B0C",
"1 c #0E6D0C",
"2 c #0E6F0C",
"3 c #0F750B",
"4 c #0E700C",
"5 c #0F710C",
"6 c #0F720C",
"7 c #0F750C",
"8 c #10730C",
"9 c #10790B",
"0 c #107B0B",
"q c #117B0B",
"w c #117F0A",
"e c #117E0B",
"r c #117F0B",
"t c #11800A",
"y c #12820A",
"u c #13820A",
"i c #12830A",
"p c #12830B",
"a c #12840A",
"s c #13840A",
/* pixels */
"iiwiiiwiiiiiiiiiiiiiiiiiiiiiiiiiiiiiiiiiiiiiiiiiii",
"iiiiiiiiiiwiiwiiiiiwiiiwiiiiiiiiiiiiiiiiiiiiiiiiii",
"iiwiiiiiiissiiiwwiiiiiiiiiiiiiiiiiiiiiiiiiiiiiiiii",
"iiiiiiiiiiisiiiiiiiii3iiiiiwiiiiiiiiiiiiiiiiiiwiii",
"iiiiiiiiisi:,siiiiiw+Owiiiuwiiiwiiiiiisswwiiiiiiii",
"iiiiwuiis4=4*8iiiii4:2:siiiiiiu,=qiiiiss:O3iiiiiiw",
"iiiiiiiie+2i:4iiii8:ii$qiiiiii:O7*iiiii4 :=qiiiiii",
"iiiiisq$=8iiw@isi8$4ss*4uwiii9 wi:4iiwi+:i6*2siiiw",
"iuiii2:4iiiis,2s8*8iii9@iiii9,:siw:8iii@wii6*qisii",
"iwii,:qiiiiiu2:i:8siiii*8iii=,isiii=4i=8iiii6*3sii",
"ii8=4siiiiiii8@i+iiiiii2=sw:8iiiiii4O8=iiiiiiiO6ii",
"iiq8iuiiiiiiii:=2iwiiiiw$9=9siiiiiiiO$iiiiiiii<:ii",
"iiiiuiiiiiiiiiq$iiiiiiii,*4isiiiiiiiq2iiiiiiiiwiii",
"iiiiuiiiiiwiiiwqwiiiiiiiiisiiiiiiiiwiiiiiiiwiiiiii",
"iiwiiiiiuiiiiiiiiiiiiiiiiiiwiiiiiiiiiiiiiwiiiiiiiu",
"iiiiiiiiiiuiiiiiiiiiiiiiiiiiiiiiiiiiiwiiiiiiiiiiiw",
"wiiiiiiwiiiiiiiiiiiiiiiiiiiiisiiiiwiiiiiiiiisiiiii",
"iiiiii4$iiiiiiiiiwiii4iiwiiii,,iiiiiiiiiiii:8iiiii",
"iiiiiiOO8iiiiiiiiiw,+&rsiiiiw&Oiiiiiiiwiiiw%:siiii",
"iiiiii+q+iiiiiiiw2$,0@rsiiii+@3*iwiiiiiiii2*:qiiii",
"iiiiiq*i=qiiiiiq@,9ss4@siis4*ii@4siiiiiiiw 8q=uiiu",
"iiiis:4s4:iiii*@wsiis8*siiq*wis4*iiiwiiiu2+wi22iiw",
"iiii:+iii@qs4*3iiiwiss*7iw,4siss*7iiiiiii$wiiw+wii",
"iiiq@8iii:43@2iwiiiiss*7i,4iiiss9:9iiiss,2iiii4:ii",
"wuw:8siiiq =8siiuwiiii8:,2iiiiiii9=iuis,2iiiiii$9s",
"ii=8ssiiii,8ssssiiiiiii+@wiiiiiiii8o9s9*wiiiiii,,s",
"i::wiiiiiiiissisiiiiiiiw8siiiwwiiii$,i=9iiiiiiii2:",
"iwiiiiiiiiiissiwiiiiiiiissiiiiiiiiii,o8siwiiiiiii2",
"iiwiiiiwiwiiwiiiiwuiiiiiiiiiiiwiiiii9:wiiiiiiiiiii",
"iiiiiiiiiiiiiiiiiiwwiiiwiwiiiiiiiiiisuriiiiiiiiiii",
"iiiiiiiiiiiiiiiis8%,iiwiwiiiiiiiiiiiiiiiiiiiiiiiii",
"iwiwiii9=iiiwisss+O:iiiiiiwiiiiiiiiiiiiiiiiiiiiiii",
"iiiiiii$&iiiiiii,$9@9siiiwiiiiiiiiiiiiiiw:2iiiiiii",
"iiiiiii$o9iiiis8$is8*siiiiiiii8siiiiwiii*&*siiiiiw",
"iuiiiie$,,ssiii*2uuw*8ssiiiii=Osiiiiiis,$98:wiwiii",
"iwiiii,22:spie*:iiii4:sswiiiw**8iiwiiie$iis,:iiiii",
"iiiii9+i4:iii2,siiiii+wsiiii,29=iiiiiw$9iiie:9iiii",
"iiiis:2ii*9s4:iiiiwii+wuiiw2:ii:2iii9=:iiiiiw$9iii",
"iuiii$iii+ei=9iiiiiii2:si4=,iii9*wi9:8iiiiiii:=sii",
"iwii=4iis+:4=iiiiiiiiw=e::9siiii*7w*eiiiiiiiieX:ii",
"iis9+wiii8&:siiiiwuiii$+#eiiiiiu2=::uwiiiiiiwi8 8s",
"iisw9iiiss4eiiiiiiiiiieo9iiiiiiwio#iiiiiiiiiiis:+i",
"iiiissiiiisiiiiiiiiiiiiuiiuiwuiiiwiiiiiiiiiiiisw,u",
"iiiiiiiiiiiiiiwiiiiiiiiwiiwiiiiiiuiiiiiiiiiiiiiiii",
"iiiiiiiiiiiiiiiiuiiiiiiiiiiiiiiiiiiiuiiiiwiwiiiiii",
"iiiiiiiwiiiiwiiiwiiiiuwiiiiiiiiiiiiiwiiiiiiiiiiiii",
"iiwiiiiiiiiiiiiiiiwiiiiiiiiiiiwiiiiiiiiiiiiiiiiwii",
"iiiiiwiiwiwiiwiiiiuiiiwiiiiiiiuiiuwiiuwiiiwiiiiiiu",
"wiiiiiiiiiiiiwiiwuiiiiiiwuiiiiiiiiwuiiiiiiiiiiiiii",
"iiiiwuiiuwiiiuiiiiiiwuiiiiiiuwiiiiiiiiiiiiiiuwiiwi"
};
