/* XPM */
static char *a65254d7b21a4d60ac866904905bd3e8aQJKMXIM6FFMB4Bj[] = {
/* columns rows colors chars-per-pixel */
"80 80 133 2 ",
"   c #000001",
".  c #01040B",
"X  c #020713",
"o  c #043A11",
"O  c #05102C",
"+  c #061231",
"@  c #07163B",
"#  c #08163E",
"$  c #08183F",
"%  c #073928",
"&  c #083A35",
"*  c #083A38",
"=  c #117F0F",
"-  c #127D14",
";  c #12791D",
":  c #21512D",
">  c #126F2F",
",  c #127622",
"<  c #127821",
"1  c #12722A",
"2  c #126E33",
"3  c #12693C",
"4  c #081943",
"5  c #091D4D",
"6  c #0A3A40",
"7  c #0A3A48",
"8  c #0A2056",
"9  c #0C3B54",
"0  c #0C2562",
"q  c #0F3A67",
"w  c #102F7E",
"e  c #135D54",
"r  c #13595D",
"t  c #126544",
"y  c #136840",
"u  c #13614E",
"i  c #136051",
"p  c #134F6F",
"a  c #135564",
"s  c #135860",
"d  c #13526C",
"f  c #134D75",
"g  c #14497C",
"h  c #12830A",
"j  c #1A8712",
"k  c #1D8815",
"l  c #238C1C",
"z  c #288E21",
"x  c #2D9126",
"c  c #30932A",
"v  c #399632",
"b  c #3E9A38",
"n  c #429C3B",
"m  c #469E41",
"M  c #479554",
"N  c #56A651",
"B  c #5DAA57",
"V  c #619B7E",
"C  c #66AF61",
"Z  c #68AF63",
"A  c #68B063",
"S  c #6FB36B",
"D  c #74B66F",
"F  c #7BBA76",
"G  c #82BD7E",
"H  c #103183",
"J  c #123A85",
"K  c #12358D",
"L  c #143F8F",
"P  c #123691",
"I  c #143C95",
"U  c #143A99",
"Y  c #193E9C",
"T  c #134585",
"R  c #134880",
"E  c #13418C",
"W  c #144091",
"Q  c #1C419D",
"!  c #2B4DA4",
"~  c #3B5AAA",
"^  c #405FAD",
"/  c #4866B0",
"(  c #5772B7",
")  c #5974B7",
"_  c #5B75B8",
"`  c #5E78B9",
"'  c #637CBB",
"]  c #6F87C1",
"[  c #7B90C6",
"{  c #86BF82",
"}  c #8EA794",
"|  c #87C083",
" . c #88C084",
".. c #96C892",
"X. c #99C996",
"o. c #A5D0A2",
"O. c #B1D6AE",
"+. c #AFC0B3",
"@. c #B4D7B1",
"#. c #BCDCBA",
"$. c #C1DFBF",
"%. c #9DB5C6",
"&. c #97A7D2",
"*. c #9DAED5",
"=. c #AABCD4",
"-. c #ABB8DB",
";. c #B4C0DF",
":. c #BFC9E4",
">. c #C8E2C6",
",. c #CFE6CE",
"<. c #D4E9D2",
"1. c #D8EAD6",
"2. c #DEEEDD",
"3. c #E0EFDF",
"4. c #C1CBE4",
"5. c #CCD4E9",
"6. c #D1D9EB",
"7. c #D9DFEF",
"8. c #DEE5E0",
"9. c #DCE2F0",
"0. c #E1EFE3",
"q. c #E5F2E5",
"w. c #E8F3E7",
"e. c #EBF5EA",
"r. c #E2E6F2",
"t. c #E6E9F4",
"y. c #EAEEF6",
"u. c #EFF1F8",
"i. c #F5FAF5",
"p. c #F3F5FA",
"a. c #F6F8FB",
"s. c #FAFCFC",
"d. c white",
/* pixels */
"h h h h h h h h h h h h h h h h h h h h h h h h h h h h h h k z D <.s.d.d.d.d.d.d.d.d.d.d.d.d.d.d.d.d.d.d.i.#.N k h h h h h h h h h h h h h h h h h h h h h h h ",
"h h h h h h h h h h h h h h h h h h h h h h h h h h h k z S $.e.s.d.d.d.d.d.d.d.d.d.d.d.d.d.d.d.d.d.d.d.d.d.d.3.| x h h h h h h h h h h h h h h h h h h h h h h ",
"h h h h h h h h h h h h h h h h h h h h h h h h k z S $.e.s.d.d.d.d.d.d.d.d.d.d.d.d.d.d.d.d.d.d.d.d.d.d.d.d.d.d.2.A k h h h h h h h h h h h h h h h h h h h h h ",
"h h h h h h h h h h h h h h h h h h h h h h l S $.e.s.d.d.d.d.d.d.d.d.d.d.d.d.d.d.d.d.d.d.d.d.d.d.d.d.d.d.d.d.d.d.3.Z k h h h h h h h h h h h h h h h h h h h h ",
"h h h h h h h h h h h h h h h h h h h h j m o.e.d.d.d.d.d.d.d.d.d.d.d.d.d.d.d.d.d.d.d.d.d.d.d.d.d.d.d.d.d.d.d.d.d.d.3.| x h h h h h h h h h h h h h h h h h h h ",
"h h h h h h h h h h h h h h h h h h k c X.e.d.d.d.d.d.d.d.d.d.d.d.d.d.d.d.d.d.d.d.d.d.d.d.d.d.d.d.d.d.d.d.d.d.d.d.d.d.2.A k h h h h h h h h h h h h h h h h h h ",
"h h h h h h h h h h h h h h h k z S >.i.d.d.d.d.d.d.d.d.d.d.d.d.d.d.d.d.d.d.d.d.d.d.d.d.d.d.d.d.d.d.d.d.d.d.d.d.d.d.d.d.3.A k h h h h h h h h h h h h h h h h h ",
"h h h h h h h h h h h h h l S $.e.s.d.d.d.d.d.d.d.d.d.d.d.d.d.d.d.d.d.d.d.d.d.d.d.d.d.d.d.d.d.d.d.d.d.d.d.d.d.d.d.d.d.d.d.3.| x h h h h h h h h h h h h h h h h ",
"h h h h h h h h h h h j m o.e.d.d.d.d.d.d.d.d.d.d.d.d.d.d.d.d.d.d.d.d.d.d.d.d.d.d.d.d.d.d.d.d.d.d.d.d.d.d.d.d.d.d.d.d.d.d.d.2.C j o o h h h h h h h h h h h h h ",
"h h h h h h h h h k c X.e.d.d.d.d.d.d.d.d.d.d.d.d.d.d.d.d.d.d.d.d.d.d.d.d.d.d.d.d.d.d.d.d.d.d.d.d.d.d.d.d.d.d.d.d.d.d.d.d.d.d.$.m o h o h h h h h h h h h h h h ",
"h h h h h h h l S >.i.d.d.d.d.d.d.d.d.d.d.d.d.d.d.d.d.d.d.d.d.d.d.d.d.d.d.d.d.d.d.d.d.d.d.d.d.d.d.d.d.d.d.d.d.d.d.d.d.d.d.d.d.i.} : h o h h h h h h h h h h h h ",
"h h h h h j m o.e.d.d.d.d.d.d.d.d.d.d.d.d.d.d.d.d.d.d.d.d.d.d.d.d.d.d.d.d.d.d.d.d.d.d.d.d.d.d.d.d.d.d.d.d.d.d.d.d.d.d.d.d.d.d.d.8.Z k h o o h h h h h h h h h h ",
"h h h h x X.e.d.d.d.d.d.d.d.d.d.d.d.d.d.d.d.d.d.d.d.d.d.d.d.d.d.d.d.d.d.d.d.d.d.d.d.d.d.d.d.d.d.d.d.d.d.d.d.d.d.d.d.d.d.d.d.d.d.d.3.Z k h h o h h h h h h h h h ",
"h h h h @.d.d.d.d.d.d.d.d.d.d.d.d.d.d.d.d.d.d.d.d.d.d.d.d.d.d.d.d.d.d.d.d.d.d.d.d.d.d.d.d.d.d.d.d.d.d.d.d.d.d.d.d.d.d.d.d.d.d.d.d.d.3.| x h o h h h h h h h h h ",
"h h h h @.d.d.d.d.d.d.d.d.d.d.d.d.d.d.d.d.d.d.d.d.d.d.d.d.d.d.d.d.d.d.d.d.d.d.d.d.d.d.d.d.d.d.d.d.d.d.d.d.d.d.d.d.d.d.d.d.d.d.d.d.d.d.2.C j h o o h h h h h h h ",
"h h h h @.d.d.d.d.d.d.d.d.d.d.d.d.d.d.d.d.d.d.d.d.d.d.d.d.d.d.d.d.d.d.d.d.d.d.d.d.d.d.d.d.d.d.d.d.d.d.d.d.d.d.d.d.d.d.d.d.d.d.d.d.d.d.d.#.n h h h o h h h h h h ",
"h h h h @.d.d.d.d.d.d.d.d.d.d.d.d.d.d.d.d.d.d.d.d.d.d.d.d.d.d.d.d.d.d.d.d.d.d.d.d.d.d.d.d.d.d.d.d.d.d.d.d.d.d.d.d.d.d.d.d.d.d.d.d.d.d.d.w.B h h h h o h h h h h ",
"h h h h +.d.d.d.d.d.d.d.d.d.d.d.d.d.d.d.d.d.d.d.d.d.d.d.d.d.d.d.d.d.d.d.d.d.d.d.d.d.d.d.d.d.d.d.d.d.d.d.d.d.d.d.d.d.d.d.d.d.d.d.d.d.d.d.i.D j h h h o o h h h h ",
"h h h h @.d.d.d.d.d.d.d.d.d.d.d.d.d.d.d.d.d.d.d.d.d.d.d.d.d.d.d.s.d.d.d.d.d.d.d.d.d.d.d.d.d.d.d.d.d.d.d.d.d.d.d.d.d.d.d.d.d.d.d.d.d.d.d.d.#.n h h h h o h h h h ",
"h h h h @.d.d.d.d.d.d.d.d.d.d.d.d.d.d.d.d.d.d.s.s.y.r.9.5.6.7.5.6.7.5.6.7.5.6.9.t.p.s.s.d.d.d.d.d.d.d.d.d.d.d.d.d.d.d.d.d.d.d.d.d.d.d.d.d.2.N h h h h h h h h h ",
"h h h h @.d.d.d.d.d.d.d.d.d.d.d.d.d.d.a.y.9.5.4.*./ Y U U U U U U U U U U U U U Q ' -.4.6.7.5.6.9.t.p.s.s.d.d.d.d.d.d.d.d.d.d.d.d.d.d.d.d.2.N h h h h h h h h h ",
"h h h h @.d.d.d.d.d.d.d.d.d.d.d.a.y.5.' Q U U U U U U U U U U U U U U U U U U U U U U U U U U U U Q ' -.4.6.t.a.d.d.d.d.d.d.d.d.d.d.d.d.d.2.N h h h h h h h h h ",
"h h h h O.d.d.d.d.d.d.d.d.d.d.a.] Y U U U U U U U U U U U U U U U U U U U U U U U U U U U U U U U U U U U U ~ &.r.s.s.d.d.d.d.d.d.d.d.d.s.@.b h h h h h h h h h ",
"h h h h  .2.s.d.d.d.d.d.d.d.d.r._ U U U U U U U U U U U U U U U U U U U U U U U U U U U U U U U U U U U U U U Q ' -.4.6.t.a.d.d.d.d.d.s.1.B h h h h h h h h h h ",
"h h h h h ..i.d.d.d.d.d.d.d.d.p.' U U U U U U U U U U U U U U U U U U U U U U U U U U U U U U U U U U U U U U U U U U U ~ &.r.s.s.s.s.<.F z h h h h h h h h h h ",
"h h h h h ..i.d.d.d.d.d.d.d.d.u.' U U U U U U U U U U U U U U U U U U U U U U U U U U U U U U U U U U U U U U U U U U U U Q ' -.:.4.%.M h h h h h h h h h h h h ",
"h h h h h | e.d.d.d.d.d.d.d.d.r.) U U U U U U U U U U U U U U U U U U U U U U U U U U U U U U U U U U U U U U U U U U U U U U U U U E 3 = h h h h h h h h h h h ",
"h h h h h G w.d.d.d.d.d.d.d.d.9.( U U U U U U U U U U U U U U U U U U U U U U U U U U U U U U U U U U U U U U U U U U U U U U U U U I e - h h h h h h h h h h h ",
"h h h h h B ,.d.d.d.d.d.d.d.d.;.^ U U U U U U U U U U U U U U U U U U U U U U U U U P P P P U U U U U U U U U U U U U U U U U U U U I a , o o h h h h h h h h h ",
"h h h h h j { q.d.d.d.d.d.d.7.` Y U U U U U U U U U U U P P P P U U U U U U U U U H + . . 5 K U U U U U U U U U U U U U U U U U U U U a , o o h h h h h h h h h ",
"h h h h h h v ..0.s.s.s.s.6.[ ! U U U U U U U U U U U H + . . 5 K U U U U U U U U $         0 U U U U U U U U U U U U U U U U U U U U d , o o h h h h h h h h h ",
"h h h h h h h j V =.:.:.*./ Y U U U U U U U U U U U U $         0 U U U U U U U U $         0 U U U U U U U U U U U U U U U U U U U U T * h h o h h h h h h h h ",
"h h h h h h h h 2 g U U U U U U U U U U U U U U U U U $         0 U U U U U U U U @         0 U U U U U U U U U U U U U U U U U U U U L 6 h h h o h h h h h h h ",
"h h h h h h h h = 9 E U U U U U U U U U U U U U U U U @         0 U U U U U U U U $         0 U U U U U U U U U U U U U U U U U U U U I 7 h h h o h h h h h h h ",
"h h h h h h h h h % r E P U U U U U U U U U U U U U U $         0 U U U U U U U U @         0 U U U U U U U U U U U U U U U U U U U U P e - h h h o h h h h h h ",
"h h h h h h h h o h h 3 a E U U U U U U U U U U U U U @         0 U U U U U U U U $         0 U U U U U U U U U U U U U U U U U U U U U a , h h h h o h h h h h ",
"h h h h h h h o o h h h h e I U U U U U U U U U U U U $         0 U U U U U U U U @         0 U U U U U U U U U U U U U U U U U U U U U a , h h h h o h h h h h ",
"h h h h h h h o h h h h h r I U U U U U U U U U U U U @         0 U U U U U U U U $         0 U U U U U U U U U U U U U U U U U U U U U d , h h h h h o h h h h ",
"h h h h h h o h h h h h - r I U U U U U U U U U U U U $         0 U U U U U U U U @         0 U U U U U U U U U U U U U U U U U U U U U f 1 h h h h h o h h h h ",
"h h h h h o h h h h h h , d I U U U U U U U U U U U U @         0 U U U U U U U U $         0 U U U U U U U U U U U U U U U U U U U U U g 1 h h h h h h o h h h ",
"h h h h o h h h h h h h 2 f I U U U U U U U U U U U U $         0 U U U U U U U U @         0 U U U U U U U U U U U U U U U U U U U U U f 1 h h h h h h o h h h ",
"h h h h o h h h h h h h 2 f I U U U U U U U U U U U U 4       . 0 U U U U U U U U $         0 U U U U U U U U U U U U U U U U U U U U U d , h h h h h h h o h h ",
"h h o o h h h h h h h h 2 f I U U U U U U U U U U U U K @ X X 8 K U U U U U U U U 4       . 0 U U U U U U U U U U U U U U U U U U U U U a , h h h h h h h h o h ",
"h h h h h h h h h h h h 2 f I U U U U U U U U U U U U U U U U U U U U U U U U U U K @ X X 8 K U U U U U U U U U U U U U U U U U U U U I a , h h h h h h h h h o ",
"h h h h h h h h h h h h 2 f I U U U U U U U U U U U U U U U U U U U U U U U U U U U U U U U U U U U U U U U U U U U U U U U U U U U U I u - h h h h h h h h h h ",
"h h h h h h h h h h h h ; a I U U U U U U U U U U U U U U U U U U U U U U U U U U U U U U U U U U U U U U U U U U U U U U U U U U U U T 3 h h h h h h h h h h h ",
"h h h h h h h h h h h h - e E U U U U U U U U U U U U U U U U U U U U U U U U U U U U U U U U U U U U U U U U U U U U U U U U U U U I g 1 h h h h h h h h h h h ",
"h h h h h h h h h h h h h t T U U U U U U U U U U U U U U U U U U U U U U U U U U U U U U U U U U U U U U U U U U U U U U U U U U U E s < h h h h h h h h h h h ",
"h h h h h h h h h h h h h > d I U U U U U U U U U U U U U U U U U U U U U U U U U U U U U U U U U U U U U U U U U U U U U U U U U I f 2 h h h h h h h h h h h h ",
"h h h h h h h h h h h h h - t T U U U U U U U U U U U U U U U U U U U U U U U U U U P P P P P U U U U U U U U U U U U U U U U U U E u - h h h h h h h h h h h h ",
"h h h h h h h h h h h h h o ; a W U U U U U U U U U U U U U U U U U U U U U U U U U H + . . 5 K U U U U U U U U U U U U U U U U I s , h h h h h h h h h h h h h ",
"h h h h h h h h h h h h o o h 2 f I U U U U U U U U U U U U P P P P U U U U U U U P #         0 U U U U U U U U U U U U U U U I f 2 h h h h h h h h h h h h h h ",
"h h h h h h h h h h h h o o h - t g I U U U U U U U U U U H + . . 5 K U U U U U U H O         0 U U U U U U U U U U U U U U P g 2 h o o h h h h h h h h h h h h ",
"h h h h h h h h h h h h o o h h - t g I U U U U U U U U U $         0 U U U U U P #         . 0 U U U U U U U U U U U U U U T 3 h o o o h h h h h h h h h h h h ",
"h h h h h h h h h h h h o h o h h - 2 d I U U U U U U U U 4         5 H P K K K w O         5 P U U U U U U U U U U U U U I s , o o h h o h h h h h h h h h h h ",
"h h h h h h h h h h h o h h o h h h h ; r E P U U U U U U 4                               . 0 U U U U U U U U U U U U U I f 2 o h h h h h o h h h h h h h h h h ",
"h h h h h h h h h h h o h h o h h h h h - e E U U U U U U K +                             5 K U U U U U U U U U U U U U E u - o h h h h h h o h h h h h h h h h ",
"h h h h h h h h h h o h h h o h h h h h h ; q W U U U U U U 4                           . 0 U U U U U U U U U U U U U I s , o h h h h h h h o h h h h h h h h h ",
"h h h h h h h h h h o h h h o h h h h h h h & f I U U U U U K @ .                     . 8 K U U U U U U U U U U U U I f 2 o h h h h h h h h h o h h h h h h h h ",
"h h h h h h h h h o h h h h h o h h h h h o - t g I U U U U U U K @ X . . . . . . X 8 K U U U U U U U U U U U U U W f 2 h o h h h h h h h h h h o h h h h h h h ",
"h h h h h h h h h o h h h h h o h h h h o h h - t g I U U U U U U U U U U U U U U U U U U U U U U U U U U U U I E r 1 o o h h h h h h h h h h h h o h h h h h h ",
"h h h h h h h h o h h h h h h o h h h h o h h h - 2 d E I U U U U U U U U U U U U U U U U U U U U U U U I I E f y - o h h h h h h h h h h h h h h o h h h h h h ",
"h h h h h h h h o h h h h h h o h h h o h h h h h h ; u g I U U U U U U U U U U U U U U U U U U U U U I J f e 1 h o h h h h h h h h h h h h h h h o o h h h h h ",
"h h h h h h h o h h h h h h h o o h h o h h h h h h h - y R I U I P U U U U U U U U U U U U U U U U I I I W e ; o h h h h h h h h h h h h h h h h h o o h h h h ",
"h h h h h h h o h h h h h h h h o h o h h h h h h h h = s I U U U U U U U U U U U U U U U U U U U U U U U U U I 9 - h h h h h h h h h h h h h h h h h o o h h h ",
"h h h h h h o h h h h h h h h h o o h h h h h h h h ; d I U U U U U U U U U U U U U U U U U U U U U U U U U U U I 3 h h h h h h h h h h h h h h h h h h o h h h ",
"h h h h h h h h h h h h h h h h h h h h h h h h h h r I U U U U U U U U U U U U U U U U U U U U U U U U U U U U U e - h h h h h h h h h h h h h h h h h o o h h ",
"h h h h h h h h h h h h h h h h h h h h h h h h h ; p U U U U U U U U U U U U U U U U U U U U U U U U U U U U U U I 3 h h h h h h h h h h h h h h h h h h o h h ",
"h h h h h h h h h h h h h h h h h h h h h h h h h r I U U U U U U U U U U U U U U U U U U U U U U U U U U U U U U U e - h h h h h h h h h h h h h h h h h h h h ",
"h h h h h h h h h h h h h h h h h h h h h h h h ; p U U U U U U U U U U U U U U U U U U U U U U U U U U U U U U U U U e ; h h h h h h h h h h h h h h h h h h h ",
"h h h h h h h h h h h h h h h h h h h h h h h = s I U U U U U U U U U U U U U U U U U U U U U U U U U U U U U U U U U U I i - h h h h h h h h h h h h h h h h h ",
"h h h h h h h h h h h h h h h h h h h h h h ; d I U U U U U U U U U U U U U U U U U U U U U U U U U U U U U U U U U U U U I 3 h h h h h h h h h h h h h h h h h ",
"h h h h h h h h h h h h h h h h h h h h h h r I U U U U U U U U U U U U U U U U U U U U U U U U U U U U U U U U U U U U U I 3 h h h h h h h h h h h h h h h h h ",
"h h h h h h h h h h h h h h h h h h h h h 1 f U U U U U U U U U U U U U U U U U U U U U U U U U U U U U U U U U U U U U U U y h h h h h h h h h h h h h h h h h ",
"h h h h h h h h h h h h h h h h h h h h h a U U U U U U U U U U U U U U U U U U U U U U U U U U U U U U U U U U U U U U U U e - h h h h h h h h h h h h h h h h ",
"h h h h h h h h h h h h h h h h h h h h 1 f U U U U U U U U U U U U U U U U U U U U U U U U U U U U U U U U U U U U U U U U I 3 h h h h h h h h h h h h h h h h ",
"h h h h h h h h h h h h h h h h h h h h a U U U U U U I I U U U U U U U U U U U U U U U U U U U U U U U U U U U U I I U U U U e - h h h h h h h h h h h h h h h ",
"h h h h h h h h h h h h h h h h h h h 1 f U U U U U U U U U U U U I I U U U U U U U U U U U U U U U U U U U U U U U U U U U U I 3 h h h h h h h h h h h h h h h ",
"h h h h h h h h h h h h h h h h h h h s U U U U U U U U U U U U U U U U U U U U U U U U U U U U U U U U U U U U U U U U U U U I 3 h h h h h h h h h h h h h h h ",
"h h h h h h h h h h h h h h h h h h ; a E E E E E E E E E E E E E E E E E E E E E E E E E E E E E E E E E E E E E E E E E E E E 3 h h h h h h h h h h h h h h h "
};
