/* XPM */
static char *dcb05129dcf54250fe960e99e7d197585zh5iGKIhtskH1Xl[] = {
/* columns rows colors chars-per-pixel */
"80 80 222 2 ",
"   c #3E1E00",
".  c #3F1F0A",
"X  c #381F18",
"o  c #3D2401",
"O  c #3C2902",
"+  c #3E220B",
"@  c #38270B",
"#  c #35330C",
"$  c #3E2313",
"%  c #3A2A14",
"&  c #3D241B",
"*  c #342D1D",
"=  c #3C2D1C",
"-  c #363210",
";  c #3B301C",
":  c #3F1F2A",
">  c #2C2D2F",
",  c #3B2726",
"<  c #3D2B24",
"1  c #332B2B",
"2  c #3B2A2B",
"3  c #392927",
"4  c #25392D",
"5  c #3D302A",
"6  c #2F2838",
"7  c #2C2C34",
"8  c #392937",
"9  c #4D1503",
"0  c #451E02",
"q  c #4B1E01",
"w  c #4C150C",
"e  c #451D0B",
"r  c #4B1C0B",
"t  c #541602",
"y  c #5A1502",
"u  c #521B01",
"i  c #5A1C00",
"p  c #54150C",
"a  c #5A1509",
"s  c #531A0B",
"d  c #581B0A",
"f  c #441E16",
"g  c #4C1B13",
"h  c #4E1916",
"j  c #531513",
"k  c #521B12",
"l  c #531C1A",
"z  c #591516",
"x  c #601500",
"c  c #601B14",
"v  c #442201",
"b  c #4B2101",
"n  c #452C02",
"m  c #43220B",
"M  c #4C210A",
"N  c #4F2A00",
"B  c #542200",
"V  c #522C03",
"C  c #522209",
"Z  c #582D03",
"A  c #5D3909",
"S  c #432413",
"D  c #4B2213",
"F  c #43251C",
"G  c #4C231C",
"H  c #4B2915",
"J  c #58211A",
"K  c #5C3D15",
"L  c #5E3B1F",
"P  c #663E04",
"I  c #6B3D03",
"U  c #663D0A",
"Y  c #6A3D0C",
"T  c #66350A",
"R  c #723C03",
"E  c #723C0C",
"W  c #76350C",
"Q  c #653D13",
"!  c #6B3C13",
"~  c #653E19",
"^  c #6A3A1C",
"/  c #6A3718",
"(  c #733E13",
")  c #743611",
"_  c #4C1824",
"`  c #491E31",
"'  c #432424",
"]  c #4B2121",
"[  c #432926",
"{  c #44242C",
"}  c #4D3E24",
"|  c #5B3B21",
" . c #533E2D",
".. c #412738",
"X. c #6B3920",
"o. c #7A3D20",
"O. c #37493D",
"+. c #564200",
"@. c #5D4402",
"#. c #5E430A",
"$. c #584A04",
"%. c #4D4610",
"&. c #5B4412",
"*. c #564815",
"=. c #624201",
"-. c #654101",
";. c #654400",
":. c #664205",
">. c #644202",
",. c #694102",
"<. c #6C4101",
"1. c #694103",
"2. c #604900",
"3. c #64410B",
"4. c #69400C",
"5. c #69400B",
"6. c #61490B",
"7. c #734107",
"8. c #644113",
"9. c #6A4212",
"0. c #68401D",
"q. c #704012",
"w. c #714018",
"e. c #464229",
"r. c #4B4837",
"t. c #24385D",
"y. c #1F2F7D",
"u. c #0C3C7C",
"i. c #10367F",
"p. c #1D347D",
"a. c #133A7E",
"s. c #183776",
"d. c #2C2E69",
"f. c #2D3160",
"g. c #242F77",
"h. c #2A2C7C",
"j. c #282C7A",
"k. c #22337E",
"l. c #26367B",
"z. c #0A4279",
"x. c #514245",
"c. c #1D2E84",
"v. c #1E2C8D",
"b. c #0C3C84",
"n. c #053B8B",
"m. c #0D3C8B",
"M. c #0F348D",
"N. c #163385",
"B. c #1C3485",
"V. c #143D84",
"C. c #1A3B84",
"Z. c #14358C",
"A. c #1B348B",
"S. c #143C8C",
"D. c #1A3B8D",
"F. c #1B2C96",
"G. c #1A2C9B",
"H. c #0B3794",
"J. c #053D95",
"K. c #0D3D94",
"L. c #0E379B",
"P. c #053B9B",
"I. c #0D3C9C",
"U. c #153695",
"Y. c #1B3595",
"T. c #143B94",
"R. c #1A3A93",
"E. c #14369B",
"W. c #1B359B",
"Q. c #143B9B",
"!. c #193A9B",
"~. c #252B83",
"^. c #2D2981",
"/. c #222D8C",
"(. c #243383",
"). c #2C3682",
"_. c #263B83",
"`. c #22308A",
"'. c #213A8F",
"]. c #2E398B",
"[. c #243593",
"{. c #23349D",
"}. c #2B339A",
"|. c #20399C",
" X c #283892",
".X c #182EA1",
"XX c #073FA0",
"oX c #0C3DA2",
"OX c #0D37AA",
"+X c #0C3DAA",
"@X c #1536A2",
"#X c #1B35A3",
"$X c #133BA3",
"%X c #193AA3",
"&X c #1236AA",
"*X c #1C35AA",
"=X c #1339A9",
"-X c #1C3BA9",
";X c #063FB0",
":X c #1235B3",
">X c #1C32B3",
",X c #113BB2",
"<X c #2F26A7",
"1X c #2233A2",
"2X c #2133AC",
"3X c #2833A7",
"4X c #0C418E",
"5X c #0E4085",
"6X c #144185",
"7X c #14408D",
"8X c #184485",
"9X c #054592",
"0X c #0C4193",
"qX c #05459B",
"wX c #0B429B",
"eX c #064999",
"rX c #114193",
"tX c #124199",
"yX c #1C4096",
"uX c #0442A4",
"iX c #0C41A3",
"pX c #1140A1",
/* pixels */
"q q q q q q q q q q q q q q q q q q q q q q q q q q q q q q q q q q q q q q q q q q q q q q q q q q q q q q q q q q q q q q q q q q q q q q q q q q q q q q q q ",
"q q q q q q q q q q q q q q q q q q q q q q q q q q q q q q q q q q q q q q q q q q q q q q q q q q q q q q q q q q q q q q q q q q q q q q q q q q q q q q q q ",
"q q q q q q q q q q q q q q q q q q q q q q q q q q q q q q q q q q q q q q q q q q q q q q q q q q q q q q q q q q q q q q q q q q q q q q q q q q q q q q q q ",
"q q q q q q q q q q q q q q q q q q q q q q q q q q q q q q q q q q q q q q q q q q q q q q q q q q q q q q q q q q q q q q q q q q q q q q q q q q q q q q q q ",
"q q q q q q q q q q q q q q q q q q q q q q q q q q q q q q q q q q q q q q q q q q q q q q q q q q q q q q q q q q q q q q q q q q q q q q q q q q q q q q q q ",
"q q q q q q q q q q q q q q q q q q q q q q q q q q q q q q q q q q q q q q q q q q q q q q q q q q q q q q q q q q q q q q q q q q q q q q q q q q q q q q q q ",
"q q q q q q q q q q q q q q q q q q q q q q q q q q q q q q q q q q q q q q q q q q q q q q q q q q q q q q q q q q q q q q q q q q q q q q q q q q q q q q q q ",
"q q q q q q q q q q q q q q q q q q q q q q q q q q q q q q q q q q q q q q q q q q q q q q q q q q q q q q q q q q q q q q q q q q q q q q q q q q q q q q q q ",
"q q q q q q q q q q q q q q q q q q q q q q q q q q q q q q q q q q q q q q q q q q q q q q q q q q q q q q q q q q q q q q q q q q q q q q q q q q q q q q q q ",
"q q q q q q q q q q q q q q q q q q q q q q q q q q q q q q q q q q q q q q q q q q q q q q q q q q q q q q q q q q q q q q q q q q q q q q q q q q q q q q q q ",
"q q q q q q q q q q q q q q q q q q q q q q q q q q q q q q q q q q q q q q q q q q q q q q q q q q q q q q q q q q q q q q q q q q q q q q q q q q q q q q q q ",
"q q q q q q q q q q q q q q q q q q q q q q q q q q q q q q q q q q q q q q q q q q q q q q q q q q q q q q q q q q q q q q q q q q q q q q q q q q q q q q q q ",
"q q q q q q q q q q q q q q q q q q q q q q q q q q q q q q q q q q q q q q q q q q q q q q q q q q q q q q q q q q q q q q q q q q q q q q q q q q q q q q q q ",
"q q q q q q q q q q q q q q q q q q q q q q q q q q q q q q q q q q q q q q q q q q q q q q q q q q q q q q q q q q q q q q q q q q q q q q q q q q q q q q q q ",
"q q q q q q q q q q q q q q q q q q q q q q q q q q q q q q q q q q q q q q q q q q q q q q q q q q q q q q q q q q q q q q q q q q q q q q q q q q q q q q q q ",
"q q q q q q q q q q q q q q q q q q q q q q q q q q q q q q q q q q q q q q q q q q q q q q q q q q q q q q q q q q q q q q q q q q q q q q q q q q q q q q q q ",
"@.! Y -.Y E I P v q r e 0 q q q q q q q b q q s q q q q q q q q v b t q m b s v q q q q q q q q q b b r r u q 0 q h q b b q e v y t q b q q q 0 b q q q v b q q ",
"=.Y Y =.U Y <.>.o.P -.I E U N 9 b q q q q r 0 0 q q M v v M r w u w s v v v t t q q q q q q q q q b b q q q 0 0 M b b r r q q t + v e e v q g M q b q u b M r B ",
"Y E <.=.#.3.1.3.I I :.P P Y Y :.8.4.I I I 1.>.>.I I I I I -.-.-.Q -.! Q I P ~ ;.4.4.4.4.4.4.4.4.Y <.! Q =.>.~ ! Q =.Q @.#.8.-.Y Y %. X%XV.W.V.Q.3X} I ! Q U ^ P ",
"<.I U 3.;.1.I Y &.Y 7.:.6.9.Y I Q T U P I I U Q :.1.I Y Y ! 8.3.U R 5.;.Q I ! Y P P P P P P P P U I Y U =.>.U I I I Y R W R P L R.D.*X!.T.Q.T.!.K.=X). .R ,.:.:.",
"5.P P I Y T ! ( I U 8.T I 1.3.4.I 1.>.>.1.E E E &.#.@.=.P U U U @.Y =.I @.W I @.4.4.4.4.4.4.4.4.8.1.Y ! 9.9.Y <.R I -.1.=.} _.uXI.U.D.R.$X+X=X!.wXQ.T.8X#.R R =.",
"M m r s s e n +.I P 9.! E R -.@.Y :.>.3.Q ! I 1.R R 1.3.8.4.<.R ,. .}.}.!.*.4.q.1.1.1.1.-.-.1.1.5.-.-.I ! I P =.e.].tX0X=X!.!.Q.!.T.%X#XW.W.K.4X|.Q.S.R.U >.-./ ",
"q e r u v 1 j. X).3 q 0 H U I ! U U 3.U I P #.*.U P P I Y Y I 1.A |.T.Q.I.{.K =.P P P P P P P P Y P =.P ! I @.x.Q.S.E.:XR.D.Q.T.!.=XwXK.T.Z.!.-XW.Z.!.=XT E ! $.",
"q b q q F h.,XJ.Q.&X(.3 q u r q b M g u u b 8 h.!.g.8 m q q e m i n.S.Q.R.M.M u q q q q q q q q s e v b s q % ^.$XR.Y.R.oXiXS.#XD.@XA.* t i @ c.Q.$X=Xb.G v q t ",
"q 0 q b q T.Q.!.@XT.D.E.b 0 t r u   u q q b B.!.K.!.Z.q u 0 q q u I.T.E.T.0Xj 0 q h M s 9 4 Y.R.Z.1 0 l q v q T.=XP.+XQ.!.R.wXE.Z.m p m m t v Y.I.wX!.-XZ.u e q ",
"q 0 q b q T.Q.!.T.oX!.4X/.* e q q q m u e < #XT.!.!.Q.< h v b 9 2 L.Q.R.Q.S.w b q q b q w t.Y.U.Q.h.b B q M q (.D.S.C.OX$XJ.i.] m q b s u b M F U.I.K.}.H.u o p ",
"q 0 q b q T.Q.!.rX&XS.$X,XZ.b 0 0 B e v q B.W.tX#XT.0X~.q e M t k.T.!.D.oXk.0 b g q v b e [.T.Q.rXY.b u q b r 2 Y.R.T.#XR.C.z e 0 b y 0 . q 0 t D.I.W.7XZ.$ v k ",
"q 0 q b q T.Q.!.0XW.E.#XR.P.{ v q g q 0 { oX#X0X%XU.I.U.q q b q S.!.:X!.T.2 0 b e q v q m *XT.$XT.m.q s v b r b ] qXXX!.!.D.q O b p v m u 9 S A.!.E.S.pXm.h q e ",
"q 0 q b q T.Q.!.@XT.Q.Z.Y.R.~.b q r v t p.U.=XT.Q.!.Q.T.0 t q v I.R.I.Q.Y.q w v q 9 b r v W.T.Q.=XoXq t v M q t a I.U.rX#XE.& y q @   q u v .XeX$XQ.K.=XA.u t v ",
"q 0 q b q T.Q.!.@X!.9XT.oX%XE.2 s 0 b { $XW.T.@XI.Q.R.%X% s r v T.U.Q.Q.Y.u p m q s q r v D.T.!.!.Q.q u M r b 9 v D.D.T.*XZ.F B q d s y : N.T.I.Z.uXE.`.< e u e ",
"q 0 q b q T.Q.!.S.W.B.$XoX4XT./.M h b p.%XK.U.!.T.E.%XV.g.q q q W.T.D.rX@Xq d v b r q q v R.Q.!.V.D.0 q b q q v b E.Q.T.=XI.I.Z.m.%XR.m.E. X-XU.T.S.v.D v e b q ",
"q 0 q b q T.Q.!.!.P.J I.W.L.U.pXS t & tXQ.Q.m.%XQ.U.!.oX!.M q q W.I.W.K.Q.+ u 0 b q 9 q v !.Q.!.T.*Xe b b q j o 0 l W.P.D.E.yX=X=XW.U.I.wX$XW.T.oXY.& q q o B q ",
"q 0 q b q T.Q.!.!.S.b E.B.=Xb.=XA.B Z.R.I.S.tXZ.!.T.P.S.6Xz M v T.@XT.%XJ.u a v q 0 9 b q T.Q.!.!.U.q q q q q q b v 2Xm.Q.H.T.Q.Q.P.D.I.$XU.K.W.Z.b t r u s 0 d ",
"q 0 q b q T.Q.!.%Xb.s 2 &X0XR.%XOX; A.pX9XW.@XF S.T.OX!.V.q q r S.W.I.D.H.B q q q 0 q b q T.Q.!.!.U.q q q q q q q v [.K.Q.L.U.Q.*XD.T.}.%XT.U.T., u q o b r v q ",
"q 0 q b q T.Q.!.=Xm.s u p.K.!.%XK.B.*X$X9X>Xa.a L.I.Q.W.E.v q t @X%XZ.T.OXl 0 q q 0 q b q T.Q.!.Q.U.q q q q q q q q f.I.%XQ.!.Q.wX!.wXiX1XN.D b q t 0 v b q 0 0 ",
"q 0 q b q T.Q.!.Q.Y.v q < E.Q.!.D.L.!.D.V.*Xb.b Z.pX!.W.@X1 q s U.6XR.@XK.[ q v q 0 q b q T.Q.!.Q.U.q q q q q q q q 1 @X!.%X!.T.T.!.!.K.C.M o w e b q s q q q q ",
"q 0 q b q T.Q.!.K.R.0 e t %XXXT.W.$X=XW.!.Q.F.v g.Q.D.D.=X`.v q /.0X$XE.!.`.s v q 0 q b q T.Q.!.Q.U.q q q q q q q q O L.U.Q.!.T.U.W.{.D.T.L.G m e b q s q q q q ",
"q 0 q b q T.Q.!.K.Q.t r t E.K.D.S.!.$X!.wXK.3 t 1 Q.@XU.T.!.v e [ uX%XT.'.Z.> q q 0 q b q T.Q.!.!.U.q q q q q q q q v Q.Z.Q.!.S.!.!.T.+XiXV.H.z q t 0 v b q 0 0 ",
"q 0 q b q T.Q.!.!.=Xu e q j.S.!.=X!.U.$XwX/.b t 0 E.%XS.!.$Xq q u N.Y.T.=X%Xb.s q 0 q b q T.Q.!.!.U.q q q q q q q q 9 T.D.Q.%XT.[ m.S.T.!.W.Y.z., u q o b r v 0 ",
"q 0 q b q T.Q.!.W.Q.m   b ..K.=XR.$XY.b.U.= p v q !.%XT.#X7X9 u 0 ] &X%XK.Q.T.F q 0 q b q T.Q.!.!.U.q q q q q q q s j T.D.$X*XT.X M /.:XT.%X*XwXZ.b t r u 9 0 d ",
"q t + i q T.Q.W.I.Z.t k o t [.wXeXU.#X!.m.i 0 u q Y.Q.Q.U.E.q q q D B.Z.!.@X$XT.m v q o = U.W.0XT.H.m y m v g u r v b ~.!.;XD.Q.T.q $ E.{.0XE.wXU.' v e q s g 0 ",
"q q v u q T.Q.!.T.W.q b e 9 5 p.#XW.W.tXS.r f q q Y.Q.Q.U.E.q q v q , J.=XZ.T.T.A.H q s A.2X$XQ.Q.j.m q q e r q q q r 7 %XI.!.Q.@Xu e B Z.Q.D.W.W.N.b j 0 b u m ",
"q q v q q T.!.S.!.>Xm q b 0 z O k.z.pXqXv.b e u q Y.Q.I.T.!.q q e t b v.wX!.Q.R.=XN.q ' @XR.9X>X:X{ q o q s q 0 q r g O W.Z.!.!.Y.r u v ' T.-XU.I.rXA.S v t q s ",
"q q q q m H.%XS.R.S.v q u 0 x q [ Y.E.U.F y t v q Y.Q.I.T.!.q q s t & F B.$XT.=XQ.n.G H.wX'.S.K.c.B q m q u q v b h q b Z.W.Q.%XQ.m u t e s.%X!.$X=X!.H.m q 0 t ",
"r 0 q 0 8 Q.=XT.!.5Xb 0 t m s q q m i v q v q t b Y.Q.I.U.E.q q q b m 0 M B.!.K.R.K.T.*X0X$X=XS.* s r b r q t v b r b u S.%XT.Q.P.d v q r - Z.#XT.W.W.=Xa.` m v ",
"r q q 0 d.!.oXT.Q.G.u q k b v v t r t 0 u q M o b Y.Q.Q.U.E.q q 0 u s o y ' oXT.uX#X!.|.XXV.R.#Xv 0 q u e 0 t M q v q d Q.Q.Q.T.(.o g r t v M D.qXD.#X7X!.F.d v ",
"s q v 0 W.T.I.!.=X* s q q v b g S n m v _ b q v q Y.Q.Q.U.E.q q $ i u f q u y.!.Q.I.C.%XW.Q.I.< t v q r v q q r u v q t Q.wXQ.T.T.q t g t v r S V.{.qXW.!.U.2 u ",
"s q v 0 :XD.0X#XV.q r b q v u s q t 9 b b q t s q Y.Q.Q.U.E.q q m q t M b . S !.!.W.iXwXW.Q.B.q p q t v v j b r u m q t T.iX!.U.@Xr o v t b r q u E.T.K.T.%XS.q ",
"0 v q { Z.T.$X*XL.C y + v q q t q q q q q q q q O G.Q.tXwX~.M 0 q q q q q q q q 3 ^.W.0XoXk.2 q q q q q q q q q q b 0 b L.6XT.=XI.M v q u S u q u ' Y.Q.Y.wXS.s ",
"q r u B.$X$XC.J.p.b t v b r q s q q q q b M M q i = ~.Y..X# i a q q q q q q q q v f m b b q q q q q q q q q q q w r w s U.!.!.T.N.s q q t 0 q q o $ B.4XE.T.C.v ",
"y q o u.&XR.=XT.6 q 9 v q w 0 9 b q q q q q q 0 w v v f q q 0 0 q q q q q q q q q q u t q r r e q q q q q q q q 0 v v g B.W.U.T.g.k g g s S s r r 9 # W.A.<X..q ",
"n M 0 W.R.4XI.[.e q 0 v t r v C q q b b Z T ! 9.1.Y 1.3.R ^ #.>.U U U U U U U U ! I 3.Q #.=.U Y U U U U U U U U E E I I O.].!.V.r.I T U P @.I I >.T E 3.@.1.I A ",
"  r t K.#XP.@X5Xu q v v t b V A ! ! T U U 5.5.I I E 3.$.:.=.=.Y 1.1.1.1.1.1.1.1.^ 1.1.! 1.1.I P 1.1.1.1.1.1.1.1.+.@.P ) 3.! -.;.&.I Y 3.-.>.Y Y <.! I 3.@.U I 1.",
"u M b Y.!.J.T.%XY Q Q U Y T 5.5.4.5.5.I I 1.P P 3.Y 5.,.R ! 3.I U U U U U P U U =.;.P ^ ! I I 1.U U U U U U U U 1.w.( R <.I Y Y -.I 5.1.-.U Y Y U :.5.1.Y P Y 9.",
"I 8.T | l.R._.| U 5.5.9.3.I I P P P 5.5.5.5.5.I Q I Y I Y 1.Y Y 4.4.4.4.4.4.4.4.E I I Y 1.I E E 4.4.4.4.4.4.4.4.U -.=.P ! -.3.0.<.U 4.1.-.Y ! I I R 4.2.;.Y ^ I ",
"R *.-.9.U P -.~ 8.-.I U >.1.E :.1.1.5.P P U 4.4.;.U U Q :.-.;.Q P P P P P P P P Q U U 5.:.>.>.3.P P P P P P P P Y 5.3.@.X.P P 1.I K U 1.P ! 9.-.&.7.Y ~ ! E >.@.",
"Y Y Y Y Y Y Y Y 1.1.1.1.1.1.1.1.! U U ! ! T V q q q q q q q q q q q q q q q q q q q q q q q q q q q q q q q q q q q q q q q q q q q q q q q q q q q q q q q q q ",
"1.1.1.1.1.1.1.1.Y Y Y U U U U U B b b q b b q q q q q q q q q q q q q q q q q q q q q q q q q q q q q q q q q q q q q q q q q q q q q q q q q q q q q q q q q q ",
"P P P P P P P P b b b b b q q q q q q q q q q q q q q q q q q q q q q q q q q q q q q q q q q q q q q q q q q q q q q q q q q q q q q q q q q q q q q q q q q q ",
"q q q q q q q q q q q q q q q q q q M M q q q q q q q q q q q q q q q q q q q q q q q q q q q q q q q q q q q q q q q q q q q q q q q q q q q q q q q q q q q q ",
"r r r r r r r r q q q q q q q q q q q q q q q q q q q q q q q q q q q q q q q q q q q q q q q q q q q q q q q q q q q q q q q q q q q q q q q q q q q q q q q q ",
"q q q q q q q q q q q q q q q q q q q q q b b b q q q q q q q q q q q q q q q q q q q q q q q q q q q q q q q q q q q q q q q q q q q q q q q q q q q q q q q q ",
"q q q q q q q q q q q q q q q q q q q q q q q q q q q q q q q q q q q q q q q q q q q q q q q q q q q q q q q q q q q q q q q q q q q q q q q q q q q q q q q q ",
"q q q q q q q q q q q q q q q q q q q q q q q b q q q q q q q q q q q q q q q q q q q q q q q q q q q q q q q q q q q q q q q q q q q q q q q q q q q q q q q q ",
"q q q q q q q q q q q q q q q q q q q q q q q q q q q q q q q q q q q q q q q q q q q q q q q q q q q q q q q q q q q q q q q q q q q q q q q q q q q q q q q q ",
"q q q q q q q q q q q q q q q q q q q q q q q q q q q q q q q q q q q q q q q q q q q q q q q q q q q q q q q q q q q q q q q q q q q q q q q q q q q q q q q q ",
"q q q q q q q q q q q q q q q q q q q q q q q q q q q q q q q q q q q q q q q q q q q q q q q q q q q q q q q q q q q q q q q q q q q q q q q q q q q q q q q q ",
"q q q q q q q q q q q q q q q q q q q q q q q q q q q q q q q q q q q q q q q q q q q q q q q q q q q q q q q q q q q q q q q q q q q q q q q q q q q q q q q q ",
"q q q q q q q q q q q q q q q q q q q q q q q q q q q q q q q q q q q q q q q q q q q q q q q q q q q q q q q q q q q q q q q q q q q q q q q q q q q q q q q q ",
"q q q q q q q q q q q q q q q q q q q q q q q q q q q q q q q q q q q q q q q q q q q q q q q q q q q q q q q q q q q q q q q q q q q q q q q q q q q q q q q q ",
"q q q q q q q q q q q q q q q q q q q q q q q q q q q q q q q q q q q q q q q q q q q q q q q q q q q q q q q q q q q q q q q q q q q q q q q q q q q q q q q q ",
"q q q q q q q q q q q q q q q q q q q q q q q q q q q q q q q q q q q q q q q q q q q q q q q q q q q q q q q q q q q q q q q q q q q q q q q q q q q q q q q q ",
"q q q q q q q q q q q q q q q q q q q q q q q q q q q q q q q q q q q q q q q q q q q q q q q q q q q q q q q q q q q q q q q q q q q q q q q q q q q q q q q q ",
"q q q q q q q q q q q q q q q q q q q q q q q q q q q q q q q q q q q q q q q q q q q q q q q q q q q q q q q q q q q q q q q q q q q q q q q q q q q q q q q q ",
"q q q q q q q q q q q q q q q q q q q q q q q q q q q q q q q q q q q q q q q q q q q q q q q q q q q q q q q q q q q q q q q q q q q q q q q q q q q q q q q q ",
"q q q q q q q q q q q q q q q q q q q q q q q q q q q q q q q q q q q q q q q q q q q q q q q q q q q q q q q q q q q q q q q q q q q q q q q q q q q q q q q q ",
"q q q q q q q q q q q q q q q q q q q q q q q q q q q q q q q q q q q q q q q q q q q q q q q q q q q q q q q q q q q q q q q q q q q q q q q q q q q q q q q q ",
"q q q q q q q q q q q q q q q q q q q q q q q q q q q q q q q q q q q q q q q q q q q q q q q q q q q q q q q q q q q q q q q q q q q q q q q q q q q q q q q q ",
"q q q q q q q q q q q q q q q q q q q q q q q q q q q q q q q q q q q q q q q q q q q q q q q q q q q q q q q q q q q q q q q q q q q q q q q q q q q q q q q q ",
"q q q q q q q q q q q q q q q q q q q q q q q q q q q q q q q q q q q q q q q q q q q q q q q q q q q q q q q q q q q q q q q q q q q q q q q q q q q q q q q q "
};
