/* XPM */
static char *cd801f737978430eb984b4178261f581l7rxR2ZYSzb2R1BO[] = {
/* columns rows colors chars-per-pixel */
"32 32 191 2 ",
"   c None",
".  c #1B1D2F",
"X  c #1C1D34",
"o  c #211B2F",
"O  c #231D34",
"+  c #2B1E32",
"@  c #241E3C",
"#  c #1E2139",
"$  c #252237",
"%  c #24233B",
"&  c #2A243C",
"*  c #2F2937",
"=  c #352737",
"-  c #35283A",
";  c #3A2D3B",
":  c #36273A",
">  c #422D3E",
",  c #4A393C",
"<  c #44393D",
"1  c #2A1F41",
"2  c #2B234C",
"3  c #25254C",
"4  c #342644",
"5  c #3C2C44",
"6  c #38244C",
"7  c #3E3244",
"8  c #382652",
"9  c #392E64",
"0  c #3F3767",
"q  c #452D43",
"w  c #4B2B4A",
"e  c #482C45",
"r  c #433442",
"t  c #4A3544",
"y  c #493944",
"u  c #4D364C",
"i  c #483849",
"p  c #553543",
"a  c #5E3B4C",
"s  c #563A46",
"d  c #402C57",
"f  c #473953",
"g  c #583A55",
"h  c #6C3A4A",
"j  c #643954",
"k  c #6C3955",
"l  c #402C61",
"z  c #40336D",
"x  c #6B3E67",
"c  c #6C3F7C",
"v  c #504147",
"b  c #564447",
"n  c #5E504E",
"m  c #554454",
"M  c #5D4252",
"N  c #5B4A5C",
"B  c #5C5158",
"V  c #63444E",
"C  c #6E4A4D",
"Z  c #6B404F",
"A  c #6C4B51",
"S  c #624652",
"D  c #734C55",
"F  c #794D5B",
"G  c #7A425B",
"H  c #66545E",
"J  c #76535D",
"K  c #79585B",
"L  c #7B4460",
"P  c #7A5765",
"I  c #7D4376",
"U  c #844E5F",
"Y  c #954559",
"T  c #89595B",
"R  c #89635A",
"E  c #986A59",
"W  c #874867",
"Q  c #934A65",
"!  c #9B4966",
"~  c #954769",
"^  c #994769",
"/  c #95496A",
"(  c #964767",
")  c #87586B",
"_  c #955B64",
"`  c #814F74",
"'  c #8D5473",
"]  c #8A567F",
"[  c #985773",
"{  c #A2546A",
"}  c #A65C6E",
"|  c #AA5B6A",
" . c #AE576D",
".. c #A55771",
"X. c #886965",
"o. c #966E67",
"O. c #937073",
"+. c #A9686A",
"@. c #B4646C",
"#. c #B46A6F",
"$. c #BE6A6E",
"%. c #A77A68",
"&. c #BB726F",
"*. c #A76673",
"=. c #B36475",
"-. c #B36C72",
";. c #BA6D74",
":. c #BE6D7C",
">. c #AC7175",
",. c #A47773",
"<. c #B47374",
"1. c #B97372",
"2. c #BA7078",
"3. c #C27B6F",
"4. c #C37675",
"5. c #C37974",
"6. c #CC7C77",
"7. c #C5727A",
"8. c #C57B7B",
"9. c #CA7C7D",
"0. c #D77E7D",
"q. c #A0867F",
"w. c #B38574",
"e. c #CD827C",
"r. c #C6897C",
"t. c #D3867C",
"y. c #DC867C",
"u. c #D48B7B",
"i. c #D78A78",
"p. c #CE9B7D",
"a. c #D6907F",
"s. c #DE947D",
"d. c #D79B7F",
"f. c #E18D7E",
"g. c #EB957E",
"h. c #EB9A7D",
"j. c #E3967C",
"k. c #D8A97F",
"l. c #F8B67D",
"z. c #553C8E",
"x. c #643E84",
"c. c #6F3D84",
"v. c #604289",
"b. c #764681",
"n. c #985982",
"m. c #887482",
"M. c #B26D83",
"N. c #B37C88",
"B. c #B88495",
"V. c #AA9394",
"C. c #B49691",
"Z. c #BF96A3",
"A. c #C68383",
"S. c #DE8582",
"D. c #DC8C81",
"F. c #D38684",
"G. c #C59981",
"H. c #DA9983",
"J. c #DC9D91",
"K. c #E18782",
"L. c #EA9683",
"P. c #E99A81",
"I. c #E09B84",
"U. c #D3A383",
"Y. c #E6A284",
"T. c #F6A788",
"R. c #F9AF89",
"E. c #F1A384",
"W. c #ECB481",
"Q. c #FCB484",
"!. c #FDB389",
"~. c #E2AD9C",
"^. c #FCBC98",
"/. c #D0A6B0",
"(. c #EABBA9",
"). c #F9C39A",
"_. c #F7C8AA",
"`. c #EBC5BA",
"'. c #E8C9B7",
"]. c #FBCFB2",
"[. c #F7D2B7",
"{. c #F9D4B6",
"}. c #F7D8B7",
"|. c #FAD7BF",
" X c #E0C5CD",
".X c #F7D9C9",
"XX c #EFDAD6",
"oX c #F9E7DA",
"OX c #F3F0EB",
"+X c #FDFAF5",
"@X c #FFFCFA",
/* pixels */
"                                                                ",
"                                                                ",
"                                                                ",
"                                                                ",
"                                                                ",
"                                                                ",
"                                                                ",
"                                                                ",
"                                                                ",
"                        m M V V V V p w w e                     ",
"                  0 u C %.I.L.D.8.:.{ } *.D r                   ",
"            N A a x B.`.[.).T.e.{ ^ Q t.h.H.R C A               ",
"        u D %.F.| N.XX+X+X{.i.{ / / B.`.].^.!.Y.e.F             ",
"      i O.`.].u.Y Z.@X+XoX_.&.~ / Q  X@XOXq.E s.f.e.K ; $ O     ",
"    y E (.+X.X9.Q B..X}.).Q.1.~ ! <.(.|.'.< o F e.y.-.h P m.H   ",
"    s Y.^.{.~. .~ 5.Q.l.Q.Q.1.~ ! t.R.Q.W.%.J = A 1.#.4.J./.V.- ",
"  i +.R.!.Q.i.Q Q 5.!.Q.Q.E.=.~ / 7.h.h.P.P.F._ T +.;.s.j.-.C.- ",
"  i t.g.L.h.6.Q Q $.L.P.h.f.=.Q / 7.y.y.S.y.y.K.y.#.} 5.s.u.,.= ",
"  y e.y.y.y.7./ ~ @.i.y.y.y.@./ ^ | 6.y.y.y.y.y.y.@.W a V A S   ",
"  u A.S.y.D.M.I / [ 7.y.y.S.9.../ Q 7.S.y.y.S.S.F._ q #         ",
"  8 ] 4.y.0.n.x.c.c.n.1.6.S.9.' W / ..9.y.y.y.9.Z 6 O           ",
"    d ` >.-.P l z.z.v.g U ;.-.[ b.x.c ' -.;.+.s 1 9 & *         ",
"    # 4 q q = @ 8 2 2 @ & > G k 4 3 2 4 > e 5 @ z c ) J 4       ",
"    X : a + . 5 L p o X X X j W q X X . + j : $ 8 ' *.) &       ",
"      p r.o.. M 8.u.K X % O T H.p.v O % M 2.3.w.; ; 7 r         ",
"      b U.%.7 H R Y.X.f   7 T d.k.n     u >.H.G.r               ",
"        , v     B , B       m t y         y < y                 ",
"                                                                ",
"                                                                ",
"                                                                ",
"                                                                ",
"                                                                "
};
