/* XPM */
static char *anya[] = {
/* columns rows colors chars-per-pixel */
"90 60 235 2 ",
"   c #36180A",
".  c #3C1B0B",
"X  c #372F1C",
"o  c #3C3525",
"O  c #431B0C",
"+  c #4C1C12",
"@  c #581D15",
"#  c #6A1E1A",
"$  c #731E1D",
"%  c #4A2513",
"&  c #4A2613",
"*  c #572818",
"=  c #542E1A",
"-  c #57301B",
";  c #5C321D",
":  c #64251B",
">  c #6C221C",
",  c #7B201E",
"<  c #63351E",
"1  c #483B29",
"2  c #5B3823",
"3  c #692820",
"4  c #782823",
"5  c #623521",
"6  c #673824",
"7  c #783528",
"8  c #53432C",
"9  c #5A4B35",
"0  c #69422A",
"q  c #6C4832",
"w  c #754B33",
"e  c #6C5439",
"r  c #78553A",
"t  c #76593C",
"y  c #795A3D",
"u  c #7F603F",
"i  c #6E5E44",
"p  c #775E44",
"a  c #7D5D41",
"s  c #7F6043",
"d  c #766E55",
"f  c #852928",
"g  c #942E2D",
"h  c #83332C",
"j  c #88342B",
"k  c #93312F",
"l  c #962D31",
"z  c #8C3533",
"x  c #8A3B35",
"c  c #943432",
"v  c #9C3534",
"b  c #933A36",
"n  c #9B3A35",
"m  c #9B3B3A",
"M  c #A5302E",
"N  c #A43433",
"B  c #AA3636",
"V  c #A33A36",
"C  c #AA3836",
"Z  c #A3373A",
"A  c #A43C3A",
"S  c #AD3A3A",
"D  c #B23C3C",
"F  c #8D4138",
"G  c #96453D",
"H  c #83543C",
"J  c #A7413D",
"K  c #B1403E",
"L  c #9D3F41",
"P  c #AF3D40",
"I  c #9B4943",
"U  c #8A5745",
"Y  c #815F42",
"T  c #97564A",
"R  c #9A5C51",
"E  c #A54542",
"W  c #A65850",
"Q  c #846345",
"!  c #896546",
"~  c #896947",
"^  c #856549",
"/  c #8A6749",
"(  c #86694D",
")  c #8D6A4B",
"_  c #98664D",
"`  c #916E4E",
"'  c #94714E",
"]  c #99734F",
"[  c #8E6E51",
"{  c #916F51",
"}  c #996956",
"|  c #8B7356",
" . c #947254",
".. c #9C7654",
"X. c #9C7956",
"o. c #957559",
"O. c #997759",
"+. c #967A5A",
"@. c #9D7B5C",
"#. c #A46856",
"$. c #AD655B",
"%. c #AD6A5D",
"&. c #B2655D",
"*. c #B36B5D",
"=. c #A07754",
"-. c #A17956",
";. c #A5765B",
":. c #AB765E",
">. c #A17D5D",
",. c #956E65",
"<. c #9C7965",
"1. c #A66965",
"2. c #AC6C61",
"3. c #B36C62",
"4. c #BA6E64",
"5. c #AC7364",
"6. c #A17E60",
"7. c #A97669",
"8. c #BC7465",
"9. c #B7776A",
"0. c #A87C73",
"q. c #BA7C74",
"w. c #C4796D",
"e. c #C77C71",
"r. c #A4815E",
"t. c #928F79",
"y. c #A58262",
"u. c #A98566",
"i. c #AC8469",
"p. c #AD896A",
"a. c #B3866B",
"s. c #B38A6D",
"d. c #A88777",
"f. c #B78977",
"g. c #BD9176",
"h. c #99A276",
"j. c #A0A77C",
"k. c #C78876",
"l. c #CF8A77",
"z. c #D3887A",
"x. c #C6957B",
"c. c #969685",
"v. c #B38D83",
"b. c #AA958C",
"n. c #B6988A",
"m. c #AD9C91",
"M. c #B69E93",
"N. c #9AB288",
"B. c #A8A987",
"V. c #B8A799",
"C. c #AFB190",
"Z. c #BCBAA7",
"A. c #BFBEB2",
"S. c #C89887",
"D. c #D29184",
"F. c #DC9284",
"G. c #D49B87",
"H. c #DA9C8E",
"J. c #C79F93",
"K. c #E69789",
"L. c #E29B8B",
"P. c #E49F91",
"I. c #C8A28C",
"U. c #DCA28A",
"Y. c #D9A68D",
"T. c #CAA697",
"R. c #DBA393",
"E. c #D7A896",
"W. c #DBAC9B",
"Q. c #DAB49B",
"!. c #E4A18E",
"~. c #EBA28F",
"^. c #E4A493",
"/. c #EBA594",
"(. c #E4AB94",
"). c #EBAA95",
"_. c #EAA698",
"`. c #E5AC9B",
"'. c #EEAB9A",
"]. c #F2A594",
"[. c #F3AA96",
"{. c #F0A799",
"}. c #F4AC9C",
"|. c #F9AD9C",
" X c #E4B197",
".X c #EBB19C",
"XX c #F5B29C",
"oX c #F6B39D",
"OX c #C7AEA2",
"+X c #D9ADA1",
"@X c #C9B8A9",
"#X c #D4B4A4",
"$X c #DDB4A3",
"%X c #DAB9A9",
"&X c #C6BCB4",
"*X c #D6BEB3",
"=X c #EBADA1",
"-X c #E2B4A2",
";X c #E7B8A5",
":X c #E4BCAB",
">X c #F6B2A2",
",X c #F9B2A2",
"<X c #F3BAA6",
"1X c #B9C288",
"2X c #BBC1A6",
"3X c #C7D199",
"4X c #D6DD9C",
"5X c #C3C6A7",
"6X c #D8C5A7",
"7X c #CCC5B8",
"8X c #D7C7B9",
"9X c #E8C1AD",
"0X c #F4C4AD",
"qX c #E7C7B5",
"wX c #E5CCBB",
"eX c #EBCCBB",
"rX c #F3CAB5",
"tX c #EDD2BC",
"yX c #F5D2BD",
"uX c #D5CCC3",
"iX c #D9D4C8",
"pX c #DDD4CB",
"aX c #E6CCC5",
"sX c #ECD4C2",
"dX c #E8D7C9",
"fX c #F4D5C2",
"gX c #F6DBC8",
"hX c #F4DCCA",
"jX c #E6DAD2",
"kX c #F1DAD1",
"lX c #F6E2CD",
"zX c #F8E1CD",
"xX c #EDE2D5",
"cX c #F5E4D2",
"vX c #F8E3D1",
/* pixels */
" .| {  .{ ( ! ! U / ! ! ! ! Y ! Q y y y y r [ | {  . .[ ^ ! ! ! ! ! ! ! ! ! Q ` }  .| o.[ 7.@. . . .( ^ / ! ! ! ! / / ! ! Q y y y y y a a t y y a a r r t r s ^ / Q ! ! y y y y t t ",
"[  .{ | { ( ! ! / / ! / ! ! ! ! ^ a y a a y [ o.o. .o.| / / ) ! ! ! ! ) ) ) / { o.o.o.o. .s.6.o. .o.( / ~ ~ ! ! ! ~ ) ! ! / Q y a a a Y a a a a a a t t t t s ) ! / ! ! H y y y t s ",
"[ |  .|  .( ) ! / ~ / ) ~ ! ) ) / Y Q a Y a [ o.o.o.o. .) ` ! ` ) ) ` ` ) ` ) { @.o.o.o.o.s.y.o.O.o.{ ) ) ) ) ~ ` ` ` ` ` ( Q Y a Y Y ^ a Y Y Y s s a a p t s ) ~ ~ ~ / Q y s y u u ",
"| [ }  .{ ) ! ) ) ~ ~ ) ` ` ~ _ ( Q ^ ^ ^ ^ [ O.+.+.,. .` ` ` ` ` ) { ` ` ` ` o.O.@.p.g.g.D.x.x.x.g.;.` ) ) ` ) ` ` ` ` ` ) ^ ^ ^ Q ^ ( Y ^ Y Y ^ s a a s a ^ [ ) ) ` ) Q a a Q u H ",
"{ { [  .| [ ) ) ) ) ) ) ` ` ` ` ) / / / ( ^  .@.X.X.@.+. . .{  . .'  .' { ] ` O.s.U.(.(._.^.`.^._.'.U.i.' ' { ` { ' ' { { { / ! / ^ ^ ( Q Q Q ~ Q Q s a s a ! ` { ) ` ) Q a Q a Y H ",
"[ [  .[ { ( [ ) ) ` ) ` ` ` ` ` { ) ( ) ) ) o.@.@.<.@.+. . . ... . ... .o.o...k.E.XXXX,X}.}.>X>X>X,X}.^.s. .' { o...o...o.' [ ) ) ) ) ) ~ ~ ~ ~ ) ^ Q Q Q s ) | { { { ) ! a Q Y Y Y ",
"[ [ [ { { [ [ ` ' ' ` ' '  .' } { ) [ ) ) ) O.6.@.@.r...O...O...X. ... ...r.x.(.>X'.}.,X>X,X>X>X,X>X>X>X(.g.+.{ ....O.o.@.{ { { )  .' ) ) ~ ~ ) ) / ! Q ! Q )  . . . .[ ~ Q Q H Y Q ",
"[ [ { { { [ [ { '  .` {  . . ... .{  .{ {  .o.6.r.@.<.@.O.@.O.O.) t e | +.n.;X;X'._.}.>X,X>X,X,X,XXX/.}.<X Xp.( e t a { O.O.{ { [  . .' ) ` ' ) ) / ! ! ! Q )  . . . .{ Q Q Q Q Q H ",
") [ [  . .[  .'  . .'  . . .O.O. . . . . . .X.6.>.>.>.@.@.@.O.[ 9 1 9 d d.wXyX<X`.>X>X>X>X>X,X,X>X>X}._.<X0XQ.o.9 1 8 e  .o.o. . . . . .` ` ) ) ` ` ~ ~ ) / ) X. . .o. ./ Q ! Q Q Y ",
"{ ` [ [  .)  . . . . . .X.X.O.O.o.O.O.O.O. .@.>.6.6.6.>.@.<.>.^ 1 1 d | Q.fX0X X_.>X>X_.oX>X,X>X,X,XXX_..X<XqXn.| 1 o 1 [ o.o.O.o...o.' ` ` ' ' ` ] ` _ ` ) ' X.X.+.O. ./ Q Q Q Q Q ",
"[ { {  .[ `  . . ... ...@.@.X.-.+.O...X.X.O.<.y.6.6.6.6.>.6.>.( 1 9 i d.9X0X.X'.}.>X'.{.>X>X}.>X>X,X>X>X_.XX>X;X,.i X 2 o.O.O.O...+... .' ' ' ' ` ' ' ' ` _  .@.O.O.O. .) / / ! Q Q ",
"{ ) { {  .{  .O. .X. .X.@.@.@.>.X.O.+.+.@.O.@.y.y.6.y.>.6.6.y.o.8 i a S..X.X~.).)..X^.'.XX,X{.{.}.}.XXXX}._.>X>Xf.^ X i @.@.@.@.@.@.+...] ] ' ' ' ] ] ] ] '  .@.@.O.X.O.) ! ! ! ! Q ",
")  .[  .{  . . .O.O.o.O.@.@.>.6.@.@.@.@.@.@.@.y.y.6.u.>.r.y.y.6.t q } ^.XX_.{./.'.^.H.=X>X|.!.^./.{.>X}././.}.|.^.} q ( >.>.>.>.@.@.@...] ] ] ] ' ......' ' ..>.@.@.O.X.[ / ! ! Q Q ",
"[ ) [ ' {  .X.o.X...O.@.;.>.>.6.@.@.<.r.@.@.>.y.6.u.6.>.r.y.y.y. .Q x.'.}._.}._.`.G.H._.|.,X(.R.L.H.).}._./.].}.=Xk.[ @.6.>.6.>.r.<.@.X.X.] ..] ] -......... .>.@.<.@.o.) / ! ! Q Q ",
") ` )  . .{ O.O.X.@.O.>.6.6.6.6.@.@.r.<.6.>.>.u.6.u.u.>.y.u.u.u.@.6.G.}.}.{._.P.R.E.+X+X}.>X'. XR.G.R./._._./.|.'.L.9.r.u.6.6.>.r.r.>.X.] =.] ] ..-.-.X.X.....r.@.<.@.+.[ ) / ! ! ! ",
") [ ) ' [  .X.X.@.@.-.>.y.6.6.u.r.<.r.y.6.>.-.u.y.6.y.>.y.p.u.u.y.k.!.|.]._.R.G.+XsX%X:X;X>X=X:X$X$X:XE.^.'./.{.|.P.z.6.u.6.6.6.>.r.r.X...=.-.] ' @.-.-.X.X...<.r.@.r.X.[ ) ! ! ! Q ",
") [ {  .`  .X.X.+.@.@.@.y.y.y.u.y.y.y.y.y.y.+.y.r.r.r.r.r.u.u.u.s.G./.|./.^.Q.M.n.@X@XqX9X=X=X9X:XT.b.n.S.^./.)._./.G.a.u.@.r.y.y.>.y.-...=.] =.] -.>.-.-.@.X.y.<.r.<.O._ ) ) ! ! Y ",
") ) ) '  . .O.O.@.@.@.r.y.y.y.u.y.y.y.y.y.y.r.y.r.r.r.r.r.u.u.u.x.U./.}.^.W.V.,.d.c.V.wXhX9X;X%X*Xm.b.v.0.D._._.).].!.k.p.r.y.y.y.y.y.=.........] :.>.>.-.-.X.>.r.@.r.X.` ) ) ) ! ! ",
") ) [ {  . .<.@.@.r.+.y.y.y.y.y.r.y.y.y.y.r.<.r.-.r.r.r.u.p.u.s.x././._.W.#Xc.V.7X7X@XdXlXzXfXeX&XuX&X7Xb.<.Y.Y.)./.~.F.s.>.y.y.y.u.y.X.=.=.=...] r.>.>.>.@.+.y.r.r.>.@.` ) ! ! ! ! ",
") [ [  . . .@.@.<.r.@.@.y.y.y.u.r.y.y.y.y.y.r.r.r.r.r.-.u.p.s.x.!.).^._.;XV.V.pXC.t.5XjXlXlXzXlXxX&Xt.t.&Xc.OX X)./.~.~.z.i.y.y.y.u.y.>.=.=...=.] r.>.r.@.@.X.y.r.<.<.X.` ) ` ! ~ U ",
") ) ) {  . .@.@.r.r.+.r.y.y.y.u.r.u.y.u.y.y.y.r.r.r.-.-.u.p.x.!.)././.`.qXm.8XpX2Xh.B.jXcXcXlXcXxX5Xj.d 2XC.@X:X).).~.].).k.r.u.u.u.y.@.=.=.=.=.X.r.r.@.r.@.X.y.r.y.<.+.` ` ! ) ! ! ",
"( ) { { )  .r.<.<.y.+.r.y.y.u.y.r.u.u.u.y.y.+.r.-.-.r.=.y.x.R._.}./.'.^.%Xm.iXZ.5X3XC.dXcXlXcXcX7XB.3Xh.2X2XV.%X(.~.).[.).U.s.u.y.u.u.-.=.=.=.=.] r.y.r.r.r.X.y.y.+.r.@.` ` ) ! ! / ",
"( ) `  .`  .@.@.+.r.r.r.y.y.y.u.r.y.u.y.u.y.+.X.-.-.-.-.s.Y.P.].|.].{.P.$Xm.iXc.1X1XB.dXcXcXcXcX*Xh.4Xh.uXA.&X$X!.!.).XX~.).x.p.u.u.u.X.=.=.] =.X.r.r.r.r.@.@.y.r.r.@.+.` ) ` ! ! ! ",
") ) ) ) `  .<.r.r.y.+.y.y.y.y.t.r.y.u.u.u.u.@.-.-.-.-.X.x.L.z.].|.}._.^.$XV.iXc.N.N.C.dXcXlXcXcX8XB.3Xt.7XuX8X#XH.~.XXoXL.).!.g.u.u.u.-.=.=.=.=...r.y.y.@.y.X.y.<.r.<.@.` ` ) ! ! ! ",
") ) ) ` `  .6.@.y.r.@.r.y.y.y.y.r.y.y.y.u.u.@.=.=.=.=.i.H.z.z.].|.>X{.P.W.#XpXZ.N.N.6XlXlXhXlXcXhX2X1XC.jX8XwXR.L.{.oXoXz.z.XXx.p.u.u.-.=.=.=.=...y.y.6.r.<.O.y.r.y.<.@.` ) ) ~ ! ! ",
") ( ) ` `  .<.>.<.r.@.@.y.y.y.y.r.y.y.p.u.u.@.=.=.=.=.k.z.w.w.~.>X|.|._.H.:XeXqX6X6XtXlXtXdXwXwXtXwX8XwXtXeX:XR./.[.[.XXl.l.).!.a.u.r.>.=.=.=.] ..y.y.y.y.y.@.y.y.@.r.O.` [ ~ ) ! Y ",
"/ ) ) ` `  .@.@.<.y.r.@.y.y.y.y.y.u.p.y.u.u.-.=.=.=.:.k.e.w.w.P.|.|.=X+XI.J.`..X X X0X6XM.Q.Q.I.:X;X X X'. XS.R.}.[.|.[.k.w.z.).g.u.u.>.=.=.X.=...r.y.y.y.r.O.y.y.<.@.@.` ` ) ~ ! ! ",
") ) ) ) ) | r.r.r.r.@.r.y.y.y.y.y.u.y.p.u.u.-.=.=.=.:.8.8.3.4.K.].}.+XaX8XI. XXX.X;X0XY.I.Q.Q.S.Q.0X<X<XoXY.f.D.^.}.|.].w.8.l.z.x.p.u.X.=.=.=.=...r.y.y.y.r.+.y.+.y.r.+.` ) ) ) ! Q ",
"! ) ~ ` `  .r.<.r.r.@.y.r.y.y.y.r.y.u.y.u.u.-.X.=.-.:.$.*.%.*.F.}.|.+XuXpX@X;XrXrXyXrXx.Y. X XY. XfXfXyXrXJ.f.d.D.{.|.K.w.%.w.z.l.p.u.r.=.=.=.=.X.y.y.y.y.y.+.y.r.<.@.@.` ` ~ ) / ! ",
"! ) ) ` )  .@.r.<.r.@.r.y.y.y.y.y.y.u.u.u.u.-.=.-.-.;.%.%.$.&.z.].|.R.*XiX*X%XyXlXlXtX6X X X X X-XgXgXgXeXOXm.d.S.{.|.K.*.*.w.w.s.p.u.-.=.=...=...r.u.y.y.y.@.r.r.6.>.@.` ) ) ~ / Q ",
"! / ) ) )  .>.<.r.y.+.@.y.y.y.y.y.t.r.u.p.u.r.X.-.=.;.%.*.&.$.w./.}.R.OXuX*X%XfXlXlXtX X).x.).(.Q.hXlXzXqX*X8XT.^.}.].e.3.3.8.8.a.p.r.r.=.=.-...X.y.u.r.y.r.+.r.r.<.<.@.` ` ) ! / ! ",
"! / ) ) `  .@.6.+.y.+.r.y.y.r.y.r.y.y.u.u.u.X.X.=.=.=.:.%.*.&.4.F.}.`.J.OXOX+XyXlXlXgX XoXoX(.(.$XhXvXzX:XOXV.T.{.|.K.w.&.3.%.:.i.u.u.-.=.=.....X.r.u.y.y.y.@.r.r.r.>...` ` ) ) ~ U ",
"! ~ ) ) )  .r.<.y.r.r.<.r.r.r.+.<.p.u.u.i.u.-.=.=.-.-.=.;.*.*.&.e./.[.R.I.T.J.E.aXkXzX:X-X(.Q.E.qXhXhXeXW.T.M.^.}.].z.4.3.3.1.5.p.u.u.>.X.=.=.=.] r.u.u.y.y.r.y.r.r.r.+.` [ ~ ) ! ! ",
"! ! ) ` )  .@.6.<.r.+.r.r.r.r.t.r.u.u.u.y.i.-.=.=.=.=.=.r.%.*.&.3.F.].}.W.E.H.9.q.OX:XaXqX$XQ.9XwX9XI.s.D.J.R.=X].F.9.$.$.3.7.y.u.u.u.-.=.=.] =.=.r.u.u.y.r.+.r.r.<.<.+.` ) ) ~ ! ! ",
"/ ! ) ) )  .@.@.r.r.+.+.r.r.r.r.r.y.u.u.u.u.@.=.=.=.=.] r.>.:.5.3.8.z.|.`.#XE.7.3.q.0.v.n.n.v.d.d.0.7.1.v.+X$X=XK.e.4.W %.7.i.u.r.p.r.=.=.=.=.=.X.y.u.y.r.r.| r.r.y.+.<.` ` ) ~ ! ! ",
"! ! ) ) '  .>.<.+.r.r.+.y.+.r.r.r.u.u.u.u.u.>.=.=.=.=.=.u.u.;.a.7.%.e.F.:XwX%Xq.3.1.0.d.n.n.n.b.d.7.2.0.+XwXqXH.e.4.&.$.;.6.p.u.p.u.p.r.=.=...=.X.y.u.y.t.y.r.r.r.+.y.+.` ` ) ! ! Y ",
"! ) ) _ `  .@.@.y.r.+.@.r.r.r.r.@.y.u.p.u.u.@.=.-.=.=...p.r.u.u.;...5.v.eXsXwXT.1.0.M.M.m.m.M.m.V.b.d.T.qXsXeXk.8.%.$.:.>.>.i.p.u.p.r.-.=.] =.] X.r.u.u.y.y.r.r.r.<.<.@.` ) ) ! ! ! ",
"! ! ) ~ )  .@.6.<.r.+.r.r.r.r.r.@.y.y.y.u.u.-.=...=.-...r.r.r.u.>.>.7.S.tXsXsX#Xv.*XjXpX7X&X&X*XdXuX*X*XwXsXsXx.:.:.;.8.i.>.i.u.u.p.p.r.r.r.=.=.X.r.y.u.u.y.r.r.r.6.>.O.` ` ` ` ) ! ",
"! ! ) ) )  .r.@.+.r.@.@.r.| r.r.r.u.p.y.u.y.-.=.=.=.=...u.r.u.r.y.>.u.T.fXgXsX*X&XjXpXpXpXpXpXpXpXjX7X8XsXhXtXf.=.6.r.r.r.>.u.u.u.u.r.r.=.r.-.r.X.r.y.y.y.y.r.r.r.<.>.X.` ` ` ) ( / ",
"! ! ! ) (  .+.@.<.r.@.@.r.r.r.| +.y.u.y.u.u.-.=.=.=.=.=.r.r.r.r.r.>.i.$XsXkXsX8XpXxXxXjXjXjXjXpXjXkXsX8XsXhXfX9.T _ >.r.r.r.i.u.u.u.r.=.r.r...r.r.r.u.y.u.y.r.r.r.r.@.@. .` ` ) ) / ",
"! ! ) ) ) ` @.@.@.r.@.@.@.r.r.r.r.y.y.y.u.y.@...=.=.=.=.r.r.r.u.>._ R %XgXhX8XV.aXkXkXaXaXaXaXaXaXkXaXM.OXsXgX9.F I #.r.r.:.p.u.u.u.u.>.-.r.r.r.r.y.p.y.y.y.@.r.@.r.+.@. .' ` ` ) ) ",
"! ! ) ~ ) ] @.@.@.<.@.+.r.X.r.r.+.y.y.y.y.y.-.;.=.=.=.=.r.r.r.-._ x T ;XfXgXT.v.v.v.q.9.1.1.1.,.1.1.0.<.n.sXfXe.G m E _ -.>.u.u.u.u.u.>.r.r.:.r.r.y.y.y.y.y.+.r.@.<.@.+.{  . .` { ( ",
"! ! ) ~ ` { @.O.@.@.X.@.X.r.+.r.@.y.r.<.y.r.X.=.=.=.=.] -.:.] H x c $.+XyX0X9.1.I I L L x L L x l L L T 7.$XW.$.Z l A G G _ ;.u.i.i.u.>.>.-.r.r.X.r.u.y.y.y.@.@.r.<.@.X. . . .{ { ( ",
"H ) ! _ ) { O.O.@.@.X.+.X.r.' r.@.r.r.y.<.>...=.=.] =.=.-._ G J g c W D.E.q.W W E L P L h 7 7 h m P L I I W T z v g N V G F H ..6.y.y.>.r.r.r.r.r.y.y.y.y.y.+.r.@.O.@.o. .o. .{ { / ",
"U ! ! ) ) { O.O.@.@...X.] r.+.r.@.@.@.>.r.>.@...=.=.] ] ] G J V g v I W U x L E E P J m h h 4 h b L P P n j > $ j g M C M c w Y 6.y.y.6.r.y.r.y.r.r.y.y.y.y.+.@.@.@.X.O. . . .{ { ` ",
"/ ! ! ) ) ` O. .+.X.+. .r.X.] X.X.r.@.>.>.>.....=.] =.] H J D V v S v 4 3 4 P P P P P c m m L z z v B Z V g 4 $ f c n J C n j H O.y.6.>.y.r.y.r.+.r.y.y.r.r.+.@.@.@.@. . . . . .{ ) ",
"! ! ! ) / {  .O. .+.+.| ' +.X...+.@.@.@.@.@.....] ] ] _ G J J S C S l $ $ l P P S P D v j z z h c A S S N V f $ $ f n M J M 7 0 ` -.>.>.y.y.y.y.+.r.y.r.<.r.X.+.+.O.O. . .O. . .{ ( ",
"! ! ! ) ) {  .{  ...' ' r.' X.X. .@.X.@...@...] ] ] ] ! F J S D S Z f $ 4 L P P E P P A h 7 4 h m A S P B M M f # # f M M G j 7 ! @.>.@.y.6.y.y.@.r.r.r.r.r...+.+.O.O. . .O. . .{ [ ",
"! ! ! ! ) )  . . . . . . ...' X...X. .X.X.o...` ' ] ] H x V V N g f $ # N D D D P P D l l v m l k Z S S D C S g > @ > $ f 4 7 7 H @.-.>.r.y.6.y.@.>.6.>.@.r. ... .o. . . .o. . .{ [ ",
"Q ! ! ! / ) ) {  . .{ '  . .] '  .O.X. . . ...' ' .._ w 7 4 $ , $ # @ > N D D D D D D S A P S B m B S D D B B N > @ @ > # > 6 6 w ..@.@.y.>.6.y.@.@.>.@.@.@. ... .o. .[  .o. .[ { ( ",
"! ! ! ! ) ) [ ) { { [  .' ' ' ' '  . . . . . .' ' ' ! 6 5 : : : @ : % > A D D D D E P P P P D D S S D D D B B B 4 @ + ; > 6 6 6 q ` O.@.r.>.y.6.<.O.@.@.+.@. . . . .[ [  .o.| }  .[ ",
"/ ! ~ ~ ^ ) ) ) ) [ ) { | { ' ' `  . . . . .' ` ` ' H 0 < 5 5 5 3 % + 4 S D D D D D P P D P D D D D S D D D B B j % O ; 5 6 5 6 0 ) ..@.y.@.@.y.@.X.X.X..... . .{ { { [ |  .o.o. .( ",
"! Q ! ! ! ~ ) ( ( ) / [ ` ` ` ' ` ) { { ) ` ` ) ) ` y 6 < < 6 6 2 % + j D D D D D D D D D D D D S D D B D B B B k @ . = < < < < 6 ) ....r.r.@.r.X.X..... ...' ` { { [ ( [ o.o.[  .( ",
"Q ! ! ! Q ! ~ ( ( ( ( ) ~ ) ~ ~ ) [ ) ( [ ) ) ) ) ~ r 6 < ; 5 2 = O @ j D D D D D D D K D D D D S S D B D B B B c : . % ; < < < 6 ! ` O.@.<.@.@.X. .X. . .| ' ) ) ( ) ( | o. .o.o.( ",
"Q Q Q ! ! ! Q ! ~ Q ( / ~ ~ ~ ' ) / ^ ( ) ^ ) / ~ Q w < ; ; < ; O O @ c D D D K K K D D D D D D D D B D B D B B v > O % * < < ; 5 Y ) O.@.@.<.r.o. . . . . .) ) ( ( ( ^ [ o.o.o.o.[ ",
"Q Q Q Q Q Q Q Q s Q Q ~ ~ ~ ~ ~ ( ^ ! ^ ^ ! ) ! ! Q 0 2 ; ; ; = . O : n D D D D D K D D D D D B B D B D B B B M N 4 O . - ; < ; 2 y )  .@.+.O.O. . . .' ' ` ) ( ^ ^ ^ ^ [ ,.[ [ o.( ",
"Q Q Q Q Q s s s s ^ s ~ Q ~ ^ Q ^ Q s Q s Q ^ Q Q s 0 ; ; - - % . . > V S K S S S D S D D B D B B S B B B B B M N f +   % ; ; - ; y /  .O.o.o.<. .) ` ` ` ` ( ^ ^ Q Q Y [  .o.|  .[ ",
"a a a Q s s u u a s s Q Q s Q Q ^ s s s s s Q a Q t 2 ; - - - %   . > n B C K S D D S S D S S S B B B B B B N B M j + . + - ; - ; r / ` +.o.o.o. .) ) ) ) ) ( Y s a a a [ o.o. .| [ ",
"y Y a a u a u e t a a Q u Q u u Q y y y a a s a y r 8 = - = = .   O 7 n C B C C S B S B B B B B B B B N N N B M M g +   O = - * ; r Q [ o. . .o.{ ) ) / ! / ^ a a a a p [ o.| }  .[ ",
"y y y t t a u u t t p s u u u u s y y r t t a y y e - = = = %     O j M N C C C B B B B B B B M B M M M M M N M M l *   . % ; * 2 t Q [  . .|  .) ~ Q / ! ! a p t y t t (  .{ |  .) "
};
