/* XPM */
static char *player_2_[] = {
/* columns rows colors chars-per-pixel */
"50 50 149 2 ",
"   c #000001",
".  c #01040B",
"X  c #020510",
"o  c #030816",
"O  c #030A1B",
"+  c #040D23",
"@  c #050F29",
"#  c #071436",
"$  c #071539",
"%  c #074A0F",
"&  c #084E0F",
"*  c #09530E",
"=  c #0B5D0E",
"-  c #064313",
";  c #0B5E13",
":  c #0B5B1A",
">  c #0C640D",
",  c #0D6B0C",
"<  c #0F720C",
"1  c #10770B",
"2  c #117C0B",
"3  c #0C6213",
"4  c #0D6418",
"5  c #0F691A",
"6  c #136B13",
"7  c #127511",
"8  c #127E13",
"9  c #12771E",
"0  c #12791D",
"q  c #0D5B27",
"w  c #127525",
"e  c #127820",
"r  c #12722B",
"t  c #19782C",
"y  c #116536",
"u  c #126F31",
"i  c #11653D",
"p  c #227423",
"a  c #081A45",
"s  c #0A1F53",
"d  c #0B2055",
"f  c #0B215A",
"g  c #0E296E",
"h  c #0F3E67",
"j  c #0F2C75",
"k  c #0F2E7A",
"l  c #102F7D",
"z  c #0F4D57",
"x  c #105152",
"c  c #125D52",
"v  c #135A5B",
"b  c #136445",
"n  c #196745",
"m  c #12614D",
"M  c #114962",
"N  c #135465",
"B  c #13536A",
"V  c #124773",
"C  c #144E73",
"Z  c #13497C",
"A  c #0F8107",
"S  c #12830A",
"D  c #198712",
"F  c #1E8916",
"G  c #228B1B",
"H  c #278E20",
"J  c #2D9127",
"K  c #32942B",
"L  c #399732",
"P  c #3C9935",
"I  c #3F9A39",
"U  c #429C3C",
"Y  c #52A44C",
"T  c #57A651",
"R  c #5AA854",
"E  c #62AE5D",
"W  c #6B9670",
"Q  c #66AD61",
"!  c #6BB267",
"~  c #74B66F",
"^  c #79B974",
"/  c #7EBA7C",
"(  c #80BC7C",
")  c #113183",
"_  c #12348A",
"`  c #133E8C",
"'  c #0F3698",
"]  c #133791",
"[  c #133C94",
"{  c #103698",
"}  c #143A9A",
"|  c #193E9C",
" . c #134683",
".. c #14428A",
"X. c #144090",
"o. c #1C429E",
"O. c #224993",
"+. c #376491",
"@. c #2247A0",
"#. c #2548A1",
"$. c #294CA3",
"%. c #3354A7",
"&. c #3656A8",
"*. c #3959A9",
"=. c #415FAD",
"-. c #4261AF",
";. c #4D6AB2",
":. c #526EB5",
">. c #5571B6",
",. c #627CBB",
"<. c #758BC4",
"1. c #7A8FC5",
"2. c #97BCAE",
"3. c #90C58C",
"4. c #94C891",
"5. c #9ECC9B",
"6. c #A1CF9D",
"7. c #A6D1A4",
"8. c #A9D2A7",
"9. c #ACD3A9",
"0. c #B7D9B5",
"q. c #BEDDBC",
"w. c #8095C8",
"e. c #8FA1CE",
"r. c #95A6D1",
"t. c #9BABD4",
"y. c #A9B7DA",
"u. c #B9C4E1",
"i. c #C6E1C4",
"p. c #D3E4D2",
"a. c #D5E9D3",
"s. c #DDEEDC",
"d. c #C4CEE6",
"f. c #CCD5E9",
"g. c #D1DFE0",
"h. c #D0D7EB",
"j. c #D4DBEC",
"k. c #D8DFEE",
"l. c #DEE3F1",
"z. c #E5F2E4",
"x. c #EBF5EB",
"c. c #F0F7EF",
"v. c #E2E7F3",
"b. c #E5E9F4",
"n. c #EAEDF6",
"m. c #F4F9F4",
"M. c #F8FBF7",
"N. c #F2F4F9",
"B. c #FFFFFF",
/* pixels */
"S S S S S S S S S S S S 2 S S S S D U ~ q.M.B.B.B.B.B.B.B.B.B.B.B.m.7.I S S S S S S S S S S S S S S ",
"S S S S S 2 S S S S S S S S F L ! 9.a.m.B.B.B.B.B.B.B.B.B.B.B.B.B.B.M.9.K S S S S S S S S S S S S S ",
"S S S S S S S S S S S A S P 4.s.m.B.B.B.B.B.B.B.B.B.B.B.B.B.B.B.B.B.B.M.9.P S S S S S S S S S S S S ",
"S S S S S S S S S S F U ( a.M.B.B.B.B.B.B.B.B.B.B.B.B.B.B.B.B.B.B.B.B.B.M.8.K S S S S S S S S S S S ",
"S S S S S S S S K ^ 9.z.B.B.B.B.B.B.B.B.B.B.B.B.B.B.B.B.B.B.B.B.B.B.B.B.B.M.9.P S 2 S S S S S S S S ",
"S S S S S S G E q.m.B.B.B.B.B.B.B.B.B.B.B.B.B.B.B.B.B.B.B.B.B.B.B.B.B.B.B.B.M.6.p = < S S S S S S S ",
"S S S S J / q.c.B.B.B.B.B.B.B.B.B.B.B.B.B.B.B.B.B.B.B.B.B.B.B.B.B.B.B.B.B.B.B.x.W 6 = 1 S S S S S S ",
"S S F E q.m.B.B.B.B.B.B.B.B.B.B.B.B.B.B.B.B.B.B.B.B.B.B.B.B.B.B.B.B.B.B.B.B.B.B.p.T 1 = < S S S S S ",
"S A R z.B.B.B.B.B.B.B.B.B.B.B.B.B.B.B.B.B.B.B.B.B.B.B.B.B.B.B.B.B.B.B.B.B.B.B.B.B.a.E 7 = 2 S S S S ",
"S A Q m.B.B.B.B.B.B.B.B.B.B.B.B.B.B.B.B.B.B.B.B.B.B.B.B.B.B.B.B.B.B.B.B.B.B.B.B.B.B.i.P < > < S S S ",
"S A Q m.B.B.B.B.B.B.B.B.B.B.B.B.B.B.B.B.B.B.B.B.B.B.B.B.B.B.B.B.B.B.B.B.B.B.B.B.B.B.c.Q S S = < S S ",
"S 2 Q m.B.B.B.B.B.B.B.B.B.B.B.B.B.B.M.M.M.B.N.B.B.B.B.B.B.B.B.B.B.B.B.B.B.B.B.B.B.B.B.5.G A , > S S ",
"S A Q m.B.B.B.B.B.B.B.B.N.v.k.u.w.<.<.<.<.<.<.<.1.e.d.l.v.l.b.N.B.B.B.B.B.B.B.B.B.B.B.q.J A S S S S ",
"S A E m.B.B.B.B.B.B.f.t.>.&.%.#.{ { ' ' ' ' { { ' } $.%.&.&.*.,.r.y.j.B.B.B.B.B.B.B.B.0.H S S S S S ",
"S 2 Y s.B.B.B.B.B.b.:.} } { { } } } } } } } } } } } } ' } { } } } | =.r.d.k.N.B.B.B.x.~ D S S S S S ",
"S S D 5.B.B.B.B.B.b.:.} } } } } } } } } } } } } } } } } } } } } } } } o.@.%.1.f.b.g./ H S S S S S S ",
"S S S 3.M.B.B.B.B.b.;.} } } } } } } } } } } } } } } } } } } } } } } } } } { | &.-.+.t S S S S S S S ",
"S S S ^ m.B.B.B.B.h.*.} | } } } } } } } } } } } } } ] ] { } } } } } } } } } } } { [ i 3 < S S S S S ",
"S S S L 0.M.B.B.n.w.o.} } } } } } ) g ) ] } } } } _ a + s ] } } } } } } } } } } } [ b - > S S S S S ",
"S S S S I 2.d.u.<.$.} } } } } } ] # . O k } } } } l X   O _ } } } } } } } } } } } } z 3 , 2 S S S S ",
"S S S S 2 n O.@.} } } } } } } } _ +   . g } } } } l X   O ) } } } } } } } } } } } } h 7 2 = S S S S ",
"S S S S S 4 x ..} } } } } } } } _ +   . g } } } } j .   O ) } } } } } } } } } } } } V 0 S , < S S S ",
"S S S S , = 8 u C } } } } } } } _ +   . g } } } } j X   O ) } } } } } } } } } } } } Z w S 2 = 2 S S ",
"S S S 2 = 1 S S v } } } } } } } _ +   . g } } } } j X   O ) } } } } } } } } } } } }  .r S S < > S S ",
"S S 2 > 1 S S 8 N } } } } } } } _ +   . j } } } } l X   O ) } } } } } } | } } } } } ..u S S S > 2 S ",
"S S > 1 S S S e C } } } } } } } _ +   . g } } } } j .   O ) } } } } } } } } } } } }  .r S S S , , S ",
"S 3 , 2 S S S e C o.} } } } } } { f @ a _ } } } } l O   @ _ } } } } } } } } } } } } Z w S S S S , , ",
"S S S S S S S e C } } } } } } } } } ] } } } } } } } j s l } } } } } } } } } } } } } C 9 S S S S S 1 ",
"S S S S S S S 8 N [ } } } } } } } } } } } } } } } } } } } } } } } } } } } } } [ } } v 8 S S S S S S ",
"S S S S S S S S m [ } } } } } } } } } } } } } } } } } } } } } } } } } } } } } } } ..m S S S S S S 2 ",
"S S S S S S S S r  .} } } } } } } } } } } } } } } } } ] } } } } } } } } } } } } } B 0 S S S S S S S ",
"S S S S S S S 1 4 c X.} } } } } } } } } } } } } } } l # # j } } } } } } } } } }  .u S S S S S S S S ",
"S S S S S S S > % 0 B X.} } } } } } ) d f _ } [ } } a     a } } } } } } } } } ..b 3 1 S S S S S S S ",
"S S S S S S S = * 1 w N X.} } } } } a   . d { } } j o   . s } } } } } } } } ` c ; % = 2 S S S S S S ",
"S S S S S S 1 > , > S 0 c ..} } } } a     o # $ $ +     O ) } } } } } } } } B q > 2 1 > S S 2 S S S ",
"S S S S S S , , , , S S 8 m [ } } } j o               . s } } } } } } } } ..b = 2 S S , , S S S S S ",
"S S S S S 1 > S 1 > S S S 5 M [ } } { d o           . $ ) } } } } } } } ..v : 1 S S S 2 > 1 S S 2 S ",
"S S S S S , , S S = 2 S 1 > w B [ } } [ ) f s s s d j } } } } } } } [ ..c : , S S S S S 2 > 2 S S S ",
"S S S S 2 ; S S S = 2 S > 2 S e v ..[ } } } } } } } } } } } } } [ ` B y 4 1 2 S S S S S S > > S S S ",
"S S S S , , S S S = > , > S S S S n  .[ } } } } } } } } } } } } ` Z y ; 2 S S S S S S S S 2 & > S S ",
"S S S 2 > 2 S S S 1 & > 2 S S S 8 c [ } } } } } } } } } } } } } } } ` x S S S S S S S S S S 2 * 1 S ",
"S S S 2 2 S S S S 2 < S S S S S n [ } } } } } [ } } } } } [ } } } } } Z r S S S S S S S S S S > = S ",
"S S S S S S S S S S S S S S S 0 C } } } } } } } } } } [ } } } } } } } [ v S S S S S S S S S S 2 , S ",
"S S S S S S S S S S S S S S S b ` } [ } } } } } } } } } } } } } } } } } ..m 0 2 S S S S S S S S S S ",
"S S S S S S S S S S S S S S b  .} } } } } } [ } } } } } { [ } } } } } } } } B 8 S S S S S S S S S S ",
"S S S S S S S S S S S S S r  .} } } } } } } } } } } } } } } } [ } } } } } } Z 9 S S S S S S S S S S ",
"S S S S S S S S S S S S S v { } } } } [ } } } } } } } } } } } } } } [ } } } ` u S S S S S S S S S S ",
"S S S S S S S S S S S S r  .} } } [ } } } } } } } [ } } } } } } } } } } } } } v 8 S S S S S S S S S ",
"S S S S S S S S S S S 2 v [ [ } } } } } [ } } } } } } } } } } } } [ } [ | } } ..r S S S S S S S S S ",
"S S S S S S S S S S S 9 Z [ [ [ [ [ [ ` [ X.[ X.[ X.[ ..[ [ [ X.[ ` [ [ [ ` [ ..u S S S S S S S S S "
};
