/* XPM */
static char *porte[] = {
/* columns rows colors chars-per-pixel */
"80 80 30 1 ",
"  c #13390E",
". c #043A11",
"X c #523203",
"o c #523303",
"O c #563103",
"+ c #553303",
"@ c #573303",
"# c #523603",
"$ c #533703",
"% c #563403",
"& c #513304",
"* c #523803",
"= c #365806",
"- c #1E7409",
"; c #167D0A",
": c #4B4104",
"> c #484505",
", c #6E4005",
"< c #814C07",
"1 c #CF7B0E",
"2 c #D17B0E",
"3 c #D17C0E",
"4 c #128309",
"5 c #12830A",
"6 c #13830A",
"7 c #12820B",
"8 c #12830B",
"9 c #12860B",
"0 c #D7800E",
"q c #D8810E",
/* pixels */
"555555;775555555;8448447848766-*o%&+o+o++@o@oo+*-5756666474847848487447874878488",
"55555577557;55574887484648-&$+@@@@@@+O++O@@@@@@O@@o*-666448484484848488444484848",
"55;555555555555584848;-*++@&@@O+@@@@@@@@@OOO@@+O@@++@*-6884878844484848484744448",
"555557555555555;484448*&++++O@O@@@@@@@@@@O@+@@@+@@@Oo@++-48444874778487744787474",
"55555755555555556664-+@O+++O@@+O@O+O@@O@@@@O@@O+@@+OO@O@*47884844474447484744474",
";55457555555555;66-#+O@OOO@OO+@@OOO++O++@O@+@OO+o@O+@O@O&-4748;84448447478744777",
"57555;54555;575566oo+@++@+O+@O@O@+@+@@OO@@++O@@@+@O@O@@@@*7444744774877778774874",
"77555555445555556-+@@@@@+@O@OO+@O+@@O@O@O+O@@O@OOO@O@O@O+&-847777777477444778477",
"55575557555575556oO@@+@O++O@@@O@O@@OO@+OO@O@@@@@@O@O@O+@++$665554..4844777477747",
"555;5755;555555..o@@OOO@O@@O@@@@@O+@@@+O@O@@O@O@@O++O+@@OO+-59557.4.774747477747",
"555555755555555.6@+O@@+@@OOOO@OO@@+O@OO+O@+++O@O@OO@@O@OO@+$;555..4.774774477774",
"555555;555557..5-O++@+OO@@+O++++O@@OO+@+@O@O+@@@O@@@@@O@OOO@-55..747..4477744488",
"55554455555..555*+@@@O@@OO@@@O@@@OO@@@O@O@++O@O@@@+@++OO@@O@o55.877447.747478484",
"55;5555545.55555+O@@@O++@@+@OO@O@@@O+@@@+@@O@OOO@@O+@OO@@O@O*95.787744.474744884",
"55555555..557755+OO@O@@@@O+O+O@@@++@+@OO+OO@@O@O@@O@@@OOO@@@@5.54484477..4478448",
"5755755.5;577;5-+@@O@@O@O@@O+@OOO@OOOO@@+OO@O@++@O@O@OOO+&@@@ 55477444747.774944",
"555555.45555555*@@O+OOO@O@O+OO@@O+@O@OO+@@@O@OOO@OOO@O@O@OO@Oo;755555555;5.55545",
"7555..555555555&@@&@OO@O@O@+@OO+@@@+++@@+@+O++@@++@@@OO@O@@@@@-6555;555555..5555",
"757555;55555555@@@@@O+@OO@@@OO@@+OO@O@@OOOO@O@O@+@@@+O@@@+O@+o*655;55455555.5555",
"757555555555555&@@@@O@@@++@O@@++@@@O@OO@@@@@O+O++O@O++@O+o@@++*65555555555555555",
"555555555555666+OO@O@@@@O@@@++O@@O@OO@+O+O@O+O@@O@@O@@O@&O@OOOO65555555;75555575",
"55555555595566-@@++@@O@OOOO@@@@O+O@OO@O@O@@O@O+OO+OO@@@@+O@@+O%-5755555575555577",
"55555555446666*+O@O@+@O@++@@+OO@O++@OO+@@@+O@@O+@O@+O+OO+O@@@@@o77;5555555575757",
"555;5555446666++O@@OO++@@O@O@@OO@@@O+@OO+O@@O@O@O@+O@+@@OOO@@@@%-755555555575;55",
"5;775555555566++@@O@@@@@+@O@@@O+@OO@+@@@@@+O@O+OO+@++@@@OOO@+OOO*975555575555555",
"5;575555555566o+O@+@O@@O+O@O@O@+@@+@OOOOO+O@+@@@O@O@OO+@@O+@@@@@o655555555555555",
"55555555555566++@@+O@@O+@OO@@@O+O@@@O+@+O@O@O@+@@OOO@@O@@@@@@OOO@775555555555555",
"55557555555.66o+OO@@@OO+OO++@O@@O@+O@@O@@@O@@@@O@O@OO+O@OOOO@O@@%-7755555555;555",
"55555575555.55++@@O@+@@@@O@@O@@+O+@O+@@O+O@O+@+@@@@@O@+@O+@O@@+O+o595..555557755",
"5;555575;5...5o+@O@O+@O@@@@@@@O@@@@OOO@O@O+O@O@O+OO++@OO@@@@+@@O+o575..55;557755",
"5555555555.55.XO+OO@O@@@O++O@OOO+O@@@O+O@@@OOO+@@O@+O@+@+O@+OOOOo+555..755555555",
"55555;5555.55.OO++O@@O@O@@+O++O@@@OO++@@+@O+@@@OO@@OOOOO+@@O@@@@X#55.55.;5555;55",
"7874444784.46.@@@O@O@@@@+@@O@@+@@++@OOO@OOOO@@@+O@@+O@++OO+OOO@OO+57.555.5555555",
"744474744.8866o@+O@O@@OOOO++@OOO@O@@@+OO+@@@O+@O@@OO+@O@@@@O@@@O+o7..755.5555555",
"74474477;.446;@@@O@++O@@@O@@@O@+@O@O@@@@O@+@OO@O+@@O@@@OO+O+O++@OO5.75555.555557",
"47747447.74666@@+@O+@@OO@OO@O@O++O@O@O@++@OO@+@OOO@@O+@+O@@@@@O@OO 5955555.55555",
"4448747..74475+OOO@@O@@+OO@@O@@@@O+@@O@+OO@@O@+@@@@+@OO@+@@@+OO@@@&5484855.55555",
"7478474.774477++@+@O+@@@@+O+O@+O@@OO+@OO+@@OOOO@O+@@+@@@OO+OOO+@@@&5848;555.5557",
"787474.777445;O@+@OOO@@@O@O@OOO+OO@+@@@@+O+@@+@@@O@@OOOOO@@+OO@@@@%84884555.5557",
"74844.7777847=O@O@@@+@@@O@O@+@@@+@O@+@OO@O@@@OOO+OOO@+@@OOO+@@O+@@&484485555.5;7",
"7447.74855575>O@@++OO+O@O+OOO@O@@@+O@@+@@@+O+O@+OO@@+@@@@@@@OO@@OOO997847555.554",
"7478.48455555:@O@O@OO@O+++OO@O+@O@+@@@O@+O+@@O@@@@@OOO+OO+@@@++@@O+6754875555.55",
"44..8477555;5OO@+@@+,23q2022,@O+@OOO@@@O@OO@@O+@+O+OO@@+O@O+@@OO+++56664555555.5",
"4748444755755@O@O@,3qqqqqqqq3OO@@@O@OO@O@O@O@OOO@@@@OOO@@@O@OO@@@+o5666455;5554.",
"4447848855556@@O++10qqqqqqqq3OO++O@@@OO@+O@+O@+@@O@@@@++O+@@O+O@+O+555555555;555",
"8447747755556+@OO+2qqqqqqqqqq+@@+@OO@OOO+@@@O+@O@++@@OO@@@@O@@+@OOo557555;555555",
"7777747755556+O@OO0qqqqqqqqq3+@@@+O+@@++OOOOOO@+@@OO@O+@@@@OO+@@X+&5555;55555555",
"4447444755555++@OO2qqqqqqqqqqOOOO@@@@@@@O@@+@O@@@@@@@OO@O+@@O@OO&&&5555555555555",
"8777777747747@@@@O3qqqqq0qqq3OOOOOO+@@@O@O@@@@O+O@+OO@+@@+@+OOO@OOO6665;55557755",
"777477747447-&@&OO,3qqqqqqq03+@+@@O@+O@O+@+OO+@@O@@@O@O@@O@@@+O@O++696557555;555",
"777487744474&@@@@+@O<qqqqq01,@@O@+O@@O@O@O@O@+O@O+@@O@O++@O@@OOO+++555557;555555",
"444744477747o@@@O+@@++,222,+@O+O@O@+@OO++@O@@OO@O@O+O+@@OO@O@+@@+OO-555575555555",
"7477747755;6+oOOO@O+@O@O++@+O@O@@@+O@+O@O@OO+O@OO@@+O@OO@@@@+@+O@@@o5557775;7557",
"747774475556o+OOO+O@++@+++@@O+@O+O@O+@@@O@+@@O+O@@@@@@@O+O+@@O@OO@@&55555555555;",
"444744845566O@@OO@O@O@@@OOOO@O@+@O@O@@@O@OO@@@O@@O@O++OOOOO@O+@O@O@@.55575555555",
"47484447556.+O@@+@@O@O@OOO@O@+@@@+@OOO@O+@+@+@OOO@@+O@@+@@+@@@O@OOO&5.8475555555",
"44744477555.&+++@@+@+OO@@@@O@OO++O@@@+O@@+O+O@+O@@@O@@O+OO+OOO@+OOO+66.847884788",
"4477747755.5&oOOOOO@@@@O@O@+O+@@+@@O@@@O@O@@@@@O+@O@O@O@+@@@@O@O@@@+66.877747774",
"747774445;.5@@@@@@@O@@@O@OO@OO@@OOO+O+O@+@O@++O@O@@@O@+OO@+@O+@@@O++644.47744774",
"844447775.55+@@@OO+++O@+@@@@+@O+O@@@O@O@@@OOO@OO@@OO+@@@O@O@O@O+O@O*6684.7444747",
"747477444.44o@@@O@+@@@@OO+@O@+O@OOO+@O@O@+OO@@O+O@+OOO@@@O@@@@@+OO@+47474.474878",
"77447744.446oO@@O@O@+@O@@@+@@O@@@@O@O@@@O@@+O+@@O@@@@O+O+@+@OOO@OOO+48447.448444",
"7774447;.866@@@@O@O+O@O@@@@@@O@O@+O@@++@@+@O@+O@@O@@+O@@O@O@@@@+O+@*87774..74877",
"4747477.8466+OOoO+@@@@OO+@@OOO++@O@O@@OO@OO@@OO@OO+@@O+@O+@O@@OO++&&474744..4748",
"4787778.5555&o@@@@@O@++O@@@O@O@@@++O@@O@O@O@OO@@O@@@OO@+++O@@OO@O@@@6666474..444",
"474744.75554o+@@@@O@O@OO@@@OO@+@@OO@@OOO@@@O++O@@@O@@@@+@OOO@@@O@O@o66467444.444",
"488444775;55+++O++@@@@@OOO@+@@+OO@OO@@O+@O@@@@O@O++@O@+OO@@O@@+@+@O+78444747..87",
"447784445555o++OO@@OO@O+@@@+OO@O@@O+O@@+@O++O@@O@@OO@O@O@O@+@O+O+O@+444474744.77",
"848474845755@O@OOO@O@O@+@@@@@@++@O@+@O@OO@O@++OO@OO@@+OO@@O+@@++@@%o884;77474774",
"484474785755+@O@O@O@@@O@O@OO@O+OO@@+O@@O@O@@@O++O@@O@+O@OO@@@OO@@%%o477747747774",
"874778476566@@+O@@@O@O+O@@O+@OO@@O@O@O@+@O+OO@@@@@@+@O@OOO@@@OO@@@%%777474744774",
"448744475676o@@@@O++++OO@@+@@@O@O++@@@@O++OO@OO@O@+@@@@@+++O@@@O@&o&777447474747",
"844747474747@@o@@O+O@O@OO@O@@@++O@O@+O@+@O@@@O++@@++@++OO@+@O@@@@@@@747477477477",
"777774747474o@@@O@O+@++@@+@@O@OO@O@+O@@O@@OO@OO@@OOO@OOO@OO++OO@@@+&474747747447",
"444777747747O@@O@@O@O@@@+@@@@OO@+O@O@@@@O@++O@O@@O@O@@@@@O@O@+@OOOO+477474744474",
"777447474474+@O@@O@@@O@OOOO@@@@OO++@@@O@+@@@@O@O@@O@O@OO@@O@@@O@@O+o747747474477",
"777477747474&@O@+O@@++OO@+O@+OO@@@O@OO+@+OOO+O@O@@@@@@o+++O@+OOO@@@@667474474474",
"77747447474-@@OO@+@O@@+O+@@@++O@O+@O@O+@O+@O+@@+++@O@O@@OO++O@+o@@++667;47774747",
"44474744774*@&+O+@@OO@@OO@O@+O@O@+@@@O@OO@@@@OOOOOO@@O@@@O@@@+O@+O@+644874747747",
"74777477477*@@+++O@@@@O@O@@OO+@@@@OO@@O@@O++O@@O@+@@+o@@O@O@@@@@OOO+664447474774"
};
