/* XPM */
static char *rockk[] = {
/* columns rows colors chars-per-pixel */
"50 50 79 1 ",
"  c #010202",
". c #031E02",
"X c #0B370A",
"o c #362E2F",
"O c #31362D",
"+ c #333B2D",
"@ c #382F31",
"# c #373131",
"$ c #393434",
"% c #363930",
"& c #3A3739",
"* c #3E3C3B",
"= c #631804",
"- c #61120F",
"; c #5E2626",
": c #413E3E",
"> c #513939",
", c #084008",
"< c #084F0F",
"1 c #0C5B06",
"2 c #09530F",
"3 c #0B5C0E",
"4 c #094D10",
"5 c #174F19",
"6 c #184B1C",
"7 c #0E5D10",
"8 c #135E13",
"9 c #175218",
"0 c #3F5C08",
"q c #25561E",
"w c #245A1E",
"e c #0C630D",
"r c #0E6B0C",
"t c #116C0F",
"y c #0F730C",
"u c #11760C",
"i c #127C0C",
"p c #197E0A",
"a c #0F6210",
"s c #146613",
"d c #1B6616",
"f c #136812",
"g c #1B6D14",
"h c #1F661B",
"j c #1F6F18",
"k c #167210",
"l c #1A7414",
"z c #177B10",
"x c #187911",
"c c #24651E",
"v c #206C1A",
"b c #214D22",
"n c #2B4C25",
"m c #2D452A",
"M c #2E492D",
"N c #33422D",
"B c #304E2D",
"V c #245720",
"C c #295726",
"Z c #2A5F25",
"A c #2E5A29",
"S c #31532D",
"D c #344531",
"F c #3A4637",
"G c #364C33",
"H c #394935",
"J c #3D423B",
"K c #345030",
"L c #256421",
"P c #286123",
"I c #674519",
"U c #40403E",
"Y c #413E40",
"T c #981A1D",
"R c #A70703",
"E c #B50003",
"W c #BF0002",
"Q c #82282B",
"! c #12830A",
/* pixels */
"!!!!!!!!!!!!!!!!!!!!!!!!!!!!!!!!!!!!!!!!!!!!!!!!!!",
"!!!!!!!!!!!!!!!!!!!!!!!!!!!!!!!!!!!!!!!!!!!!!!!!!!",
"!!!!!!!!!!!!!!!i!!!!!!!!!!!!!!!!!!!!!!!!!!!!!!!!!!",
"!!!!!!!!!!!!!!!!!!!!!u!!!!!!!!!!!!!!!!!!!!!!!!!!!!",
"!!!!!!!!!!!er!!!!!!i32i!!!!!!!!!!!!!!!!!!i!!!!!!!!",
"!!!!!!!!!yeyeu!!!!!yeye!!!!!!!!rei!!!!!!r2y!!!!!!!",
"!!!!!!!!u3y!ey!!!!ye!!ey!!!!!!e2ye!!!!!u<r3u!!!!!!",
"!!!!!!ieey!!i3!!!rey!!ey!!!!!i2u!ey!!!!2e!y3y!!!!!",
"!!!!!rey!!!!!rr!u3i!!!i3!!!!!re!!!ey!!ie!!!yeu!!!!",
"!!!!rri!!!!!!rr!eu!!!!!eyiuuee!!!!!ey!eu!!!!yey!!!",
"!!yey!!!!!!!!uei3i!!!!!ye1.,i!!!!!!y<re!!!!!!!1y!!",
"!!iy!!!!!!!!!!eefiz!iizi3X =0!!!!!!!37!!!!!!!!re!!",
"!!!!!!!!!!!!!xLmGGKSSSSSDN-RRILvz!!!uy!!!!!!!!!!!!",
"!!!!!!!!!!!!PF*:::YUYY::::TWE;UUGPjz!!!!!!!!!!!!!!",
"!!!!!!!!!!!vU:::::U::::*:::;Q>UUYYJGl!!!!!!!!!!!!!",
"!!!!!!!!!!iG::::::UYU:::::UYUUUU*Y*YJZ!!i!!!!!!!!!",
"!!!!!!!u!!P::::::::::::::::*:::::::::%Z!!!!!!!!!!!",
"!!!!!!ye!!A:::::&&*::::::*#$#:::::::::Jl!!!eu!!!!!",
"!!!!!!3<upD:::::$$$:::&:*##$$::*:::::::Gi!!,e!!!!!",
"!!!!!!3u3Z::::::$#&*:::::*$#*:*::&$:::::L!teei!!!!",
"!!!!!iep7N:::::::&::::::::*:*U::$%$&&:::Si2yue!!!!",
"!!!!!sf!n$&::::::U::::::::::U::::$$:::::Gf3!!ey!!!",
"!!!!r2pv%$$&::U::::::::::::::::::&::::::U6i!!!3i!!",
"!!!!3y!gO$$::::::U::::::::::::::U*:::::::A!!!!ye!!",
"!!iei!!i+##::::UY>U::UUU:::::U>Y::::::::YHx!!!!ei!",
"!!ey!!!l+$$$*:::YUYY:YYU::U:::YY::::::::YFl!!!!rr!",
"!ee!!!!C#$#*:*::YYYUU:YY::::U:YU:::::::*YFl!!!!!rr",
"!!!!!!g%#o$:::::UYUY::UY:::::U:$o::::::*YFk!!!!!!r",
"!!!!!!w$$o&:::::UYU:UY:Y>:::U::@#&::*YY:Y*L!!!!!!!",
"!!!!!g+##o*:::::UU:::U>YU::::::@$$::Y*Y*YYS!!!!!!!",
"!!!!u+o##$::::::::::YUYUUY::::::&*U:UUYJ*YJl!!!!!!",
"!!!!w###o$::::::::::YUUYUY::::::::Y:::YJYYJv!!!!!!",
"!!!!qo##O&::::*:::::::::::::U:::YU:Y::::*:*L!!!!!!",
"!!!!q#$#@$*::::::$$&:::::::::YYUUY:U::::::*L!!!!!!",
"!!!!w##o$$::::::&$$@*::::U:::*:::YY:::::*Y*V!!!!!!",
"!!!!c$##@$&:::::$$$O*:::U::::::Y:UY:::::::Jbr!!!!!",
"!!!!xN@###$&::*::*&**Y**::::::JYYYYYYUYYYYYhey!!!!",
"!!!!!dO$@$$&*U:YYY*:YFSSSSSMBSSMBKSSBDSKSSAiiei!!!",
"!!!!i3kwm#%FFFFHGPcLLdeipt7eipzzaipuauiiii!!!re!!!",
"!!!!rr!!i59d8llxi!!!!ieirei!!!!!3u!3i!!!!!!!!y4r!!",
"!!!i3!!!!u<e!!!!!!!!!!e3ei!!!!!!rerr!!!!!!!!!!x4u!",
"!!!ii!!!!!yi!!!!!!!!!!y1y!!!!!!!!<a!!!!!!!!!!!!iy!",
"!!!!!!!!!!!!!!!!!!!!!!!i!!!!!i!!!!!!!!!!!!!!!!!!!!",
"!!!!!!!!!!!!!!!!!!!!!!!!!!!!!!!!!!!!!!!!!!!!!!!!!!",
"!!!!!!!!!!!!!!!!!!!!!!!!!!!!!!!!!!!!!!!!!!!!!!!!!!",
"!!!!!!!!!!!!!!!!!!!!!!!!!!!!!!!!!!!!!!!!!!!!!!!!!!",
"!!!!!!!!!!!!!!!!!!!!!!!!!!!!!!!i!!!!!!!!!!!!!!!!!!",
"!!!!!!!!!!!!i!!!i!!!!!!!!!!!!!!!!!!!!!!!!!!!!!!!!!",
"!!!!!!!!!!!!!!!!!!!!!!!!!!!!!!!!!!!!!!!!!!!!!!!!!!",
"!!!!!!!!!!!!!!!!!!!!!!!!!!!!!!!!!!!!!!!!!!!!!!!!!!"
};
