/* XPM */
static char *wall2[] = {
/* columns rows colors chars-per-pixel */
"90 60 195 2 ",
"   c #76573B",
".  c #77583C",
"X  c #795A3D",
"o  c #7F603F",
"O  c #7D5D41",
"+  c #7F6043",
"@  c #815F42",
"#  c #846345",
"$  c #896546",
"%  c #896947",
"&  c #856549",
"*  c #8A6749",
"=  c #87684C",
"-  c #8D6A4B",
";  c #916E4E",
":  c #93714E",
">  c #8E6E51",
",  c #916F50",
"<  c #8F7153",
"1  c #947253",
"2  c #997655",
"3  c #9C7956",
"4  c #957559",
"5  c #997759",
"6  c #977859",
"7  c #9D7A5B",
"8  c #A17D5D",
"9  c #9F7F62",
"0  c #A27F60",
"q  c #B6834E",
"w  c #BC854E",
"e  c #BD894F",
"r  c #A4815D",
"t  c #AC855D",
"y  c #AC885E",
"u  c #B58654",
"i  c #BA8652",
"p  c #B78855",
"a  c #BD8B53",
"s  c #B28659",
"d  c #BA8659",
"f  c #B48A5D",
"g  c #BC8C5A",
"h  c #BD905E",
"j  c #9F8063",
"k  c #A48262",
"l  c #AA8664",
"z  c #A68965",
"x  c #AC8963",
"c  c #A68568",
"v  c #A8876A",
"b  c #A68C6D",
"n  c #AC8A6B",
"m  c #B48C63",
"M  c #BA8E63",
"N  c #B38D6B",
"B  c #B98F68",
"V  c #AF906E",
"C  c #B79064",
"Z  c #BC9264",
"A  c #B4926D",
"S  c #BC946B",
"D  c #BE986D",
"F  c #AD8E72",
"G  c #B38F70",
"H  c #AC9072",
"J  c #B49373",
"K  c #BB9572",
"L  c #BC9974",
"P  c #B49679",
"I  c #B89779",
"U  c #B5997C",
"Y  c #BB9B7C",
"T  c #C2874F",
"R  c #C2894F",
"E  c #C28754",
"W  c #C18B53",
"Q  c #C38E59",
"!  c #C59056",
"~  c #C4915B",
"^  c #CB965F",
"/  c #C7985E",
"(  c #CB985F",
")  c #C39463",
"_  c #C99765",
"`  c #C39967",
"'  c #CC9A65",
"]  c #C79769",
"[  c #C39A6A",
"{  c #CC9C6B",
"}  c #D29D65",
"|  c #D29E6A",
" . c #C49C74",
".. c #CC9E73",
"X. c #C29E7B",
"o. c #C89E7A",
"O. c #CFA36E",
"+. c #D6A46B",
"@. c #D5A36D",
"#. c #D9A56D",
"$. c #DBA96E",
"%. c #C6A077",
"&. c #CDA473",
"*. c #C5A17C",
"=. c #CCA37A",
"-. c #CFAA7E",
";. c #D5A573",
":. c #D9A672",
">. c #D4A974",
",. c #DAA972",
"<. c #D3A67A",
"1. c #D9A77D",
"2. c #D4A97B",
"3. c #DBAD7D",
"4. c #DBB07F",
"5. c #E1AC7C",
"6. c #E4B27F",
"7. c #B69E83",
"8. c #BA9E82",
"9. c #BDA285",
"0. c #BCA48C",
"q. c #C2A484",
"w. c #CAA582",
"e. c #CAA984",
"r. c #C2A589",
"t. c #C6A989",
"y. c #C9AA8C",
"u. c #D5AC84",
"i. c #DAAE82",
"p. c #D6AE89",
"a. c #D3B185",
"s. c #DDB484",
"d. c #D7B18D",
"f. c #DBB38B",
"g. c #DEB98E",
"h. c #C3AB93",
"j. c #C5B197",
"k. c #CBB49C",
"l. c #D2B393",
"z. c #DEBA93",
"x. c #DBB995",
"c. c #E4B585",
"v. c #E9B284",
"b. c #E2B68B",
"n. c #EAB78B",
"m. c #E3BB8F",
"M. c #EBBB8D",
"N. c #E3BC93",
"B. c #EBBE93",
"V. c #E4BE9A",
"C. c #CDBAA3",
"Z. c #CFBEAA",
"A. c #D3BDA8",
"S. c #EBC196",
"D. c #E5C19A",
"F. c #EBC49B",
"G. c #F2C59B",
"H. c #F4C99E",
"J. c #DCC4A7",
"K. c #D5C2AD",
"L. c #DBC6AD",
"P. c #D6C5B1",
"I. c #DEC7B1",
"U. c #DCC9B3",
"Y. c #DED0BE",
"T. c #E2C5A3",
"R. c #EBC6A1",
"E. c #EEC9A3",
"W. c #EBCEAD",
"Q. c #F0C7A1",
"!. c #F0CCA4",
"~. c #F2CEAA",
"^. c #F3D1AF",
"/. c #E8CFB3",
"(. c #ECD2B2",
"). c #E2D2BB",
"_. c #EAD3B9",
"`. c #F5D3B0",
"'. c #F4D8B8",
"]. c #FBE0BF",
"[. c #DED7C9",
"{. c #E2D6C4",
"}. c #E3D8C4",
"|. c #EEDBC3",
" X c #E5DCCD",
".X c #E9DECE",
"XX c #EADED0",
"oX c #F5E2C6",
"OX c #FBE3C6",
"+X c #F2E1CB",
"@X c #ECE1D2",
"#X c #F1E3D1",
"$X c #F5E9D3",
"%X c #FCEDD4",
"&X c #F5EEDC",
/* pixels */
"1 < < < < * @ - @ - @ $ $ $ $ $ @ O O O O   = 4 4 > 4 > @ * * * $ $ $ * $ $ $ ; 1 < 4 < > < 4 < 4 4 * @ $ $ $ $ $ $ $ $ $ @ @ X O O   O O O O   O O     .   + & $ $ $ $ X X   X   O ",
"> 1 < < 1 = * @ $ - $ $ $ * $ $ & @ O O O O > 4 4 > 4 > * - - * $ $ - * * * $ , 4 4 4 4 < 4 < 1 4 < > * * * * $ * * * $ * $ @ @ O O O O O O O O O O . . X . + = $ $ % $ o X X X X X ",
"< < < 4 1 = * * $ * * * - $ - - - @ @ @ O O = 4 4 4 4 4 - - - - - - ; ; - - - 1 4 4 4 4 < 4 4 4 4 4 > * * * * * ; - ; ; - = @ @ + # # # O O @ @ + O O O O . & - = * - % @ O o X O O ",
"< < < < , - * - - - * ; ; - ; - - @ & & O @ > 5 4 4 4 4 ; ; ; , ; - ; ; , , ; 1 9 6 6 6 4 4 5 4 2 4 > , ; ; ; ; ; : : : , > * @ + # # * O O & @ # O O O O X & > - - - - @ O @ @ @ @ ",
"> < < < < > - - - - - ; ; ; ; ; - & & & = & 1 7 5 9 5 5 - , , , 1 ; 1 ; 2 1 ; 2 9 7 7 7 4 4 7 2 5 5 , , , ; : ; 2 , 1 1 1 , @ - = = $ = # # % # & # O + + O & < ; - , - # O @ @ @ @ ",
"> > , < < = - - ; ; - ; ; ; ; ; > - - - - - 1 0 9 5 9 5 1 5 2 2 2 1 2 2 1 2 1 5 7 7 7 9 2 2 7 7 5 5 2 , : , : ; 1 2 1 2 2 , - , - = - - % $ % % = & # # # # & 1 > , , , * @ @ @ @ @ ",
"> > , < < > > , ; ; ; , 2 ; : 2 , , - > , - 5 0 9 0 0 5 2 2 2 5 2 2 5 2 2 2 2 5 7 9 7 9 5 7 7 3 5 8 , , : : 8 , 2 2 5 2 5 , , , - 1 - ; - * % : - * # $ # # = 1 1 , , , * @ # @ @ @ ",
"> > > , < > > , , , ; ; ; ; 2 2 1 1 , , , , 5 0 0 5 9 5 5 8 5 5 2 2 5 7 7 7 5 7 9 k 8 8 2 7 7 7 0 5 1 2 8 : : , 2 7 5 5 7 4 2 , 1 1 1 : - ; % : - - $ $ $ # - 2 1 1 , , & $ # # @ o ",
"> > , < , > , , : 2 , : 2 2 2 2 4 4 , , 5 , 7 0 8 8 0 5 8 5 8 8 7 2 8 8 8 8 7 7 0 8 8 0 7 7 7 7 7 7 1 2 2 2 3 : 5 8 0 8 8 5 1 1 1 1 1 : ; ; : % - ; ; $ - % - 3 5 1 4 1 $ $ $ # # @ ",
"> > , , , , 1 , 1 2 , 1 2 2 2 8 4 4 5 5 5 5 7 0 0 0 0 8 5 8 8 8 8 2 7 8 0 0 7 7 0 0 0 0 7 7 8 7 7 8 2 2 2 2 3 2 7 8 0 0 8 2 5 5 4 4 1 1 ; : : : ; : ; ; ; - 1 7 5 5 5 1 - $ # # # # ",
", , , 1 , , , 2 2 1 1 2 7 5 5 8 5 5 5 7 5 4 7 0 0 0 0 0 0 0 0 0 8 8 0 0 0 0 0 0 0 0 0 0 7 7 0 7 8 8 2 7 3 3 3 2 8 0 0 0 0 5 5 5 7 r 3 : : : : : : : : : : 3 7 k 7 5 5 1 * $ $ $ @ # ",
"> > , 1 , , 2 1 2 2 2 2 7 7 7 8 5 7 7 9 5 5 7 0 0 0 0 0 0 0 0 0 0 0 0 0 d 0 0 0 ) 0 ) 0 l l x x n x y y 8 8 8 8 0 0 ) 0 0 8 0 0 r r r 3 3 3 3 : 3 3 8 8 r r l n v 0 7 5 * $ $ $ $ # ",
"- , , , , 1 5 2 2 2 2 5 8 8 8 8 0 0 0 0 0 0 0 0 0 0 0 0 0 0 l 0 d 0 0 B B B Q ] _ ] { ..[ K  . .X.X.X.K l r k x K L L J ) n l l y y r r r r r r s y x N G K I Y U F 0 5 > * $ $ $ o ",
"- , , , 1 , 5 5 5 8 2 5 8 8 8 0 0 0 0 0 0 0 0 0 0 N m 0 n N K  .o.o. .w...o...i.1.v.v.v.i.i.i.3.u.u.2.=.S m m m D D D Z ) m m d f f y y f f C Z M M S  . . .o.X.Y J 0 5 - * * * $ $ ",
"- , , , , , 5 5 8 5 8 8 0 0 0 0 0 0 0 0 B 0 0 G  .0 G ) K o.=.u.i.p.p.p.b.x.B.V.B.G.Q.!.H.G.S.M.c.v.i.;.] ) ) ) Z h g ) g d g g g g g g / ) ] ] { { @.<.;.;.;.=.*.J z 5 > * * * $ $ ",
"- - - 1 , , 5 2 8 0 0 0 B 0 0 G 0 X.8.]  .o...o.....o.w.u.d.m.N.B.V.V.R.R.R.R.R.Q.Q.G.B.B.M.v.6.5.,.:.@._ _ _ ) / ~ Q Q ^ ^ ^ _ ^ ( ( ' } +.| +.+.@.@.,.:.:.;.:.=.L z 7 > * * * $ o ",
"- > - 1 1 1 7 7 j z k z V V A A A K S  . ...i.5.v.v.n.M.B.B.F.E.!.~.^.`.`.!.!.E.F.D.m.s.s.,.>.+.| } } } ' ^ ^ ' ^ ^ ^ ^ ^ ( } } } } #.#.#.$.$.#.#.#.#.#.#.| #.:.w.o.0 7 : $ ; $ $ $ ",
"- - ; ; ; 1 7 7 r k k z x f f h g ) ) _ ] ] ] 1.c.B.F.G.G.Q.H.F.F.D.D.D.D.D.z.g.f.s.4.4.,.,.$.+.#.+.} } } } } } } } | } | #.} #.#.#.#.$.#.$.$.#.#.#.#.#.#.:.| :.1.w.0 7 ; ; $ $ $ @ ",
"- - > 1 1 1 7 7 7 r 8 y f p p g W W W E Q g M  .g.F.!.Q.Q.!.!.F.z.a.&.-.-.&.&.&.>.>.>.$.,.,.$.$.$.$.$.#.| #.:.:.:.#.#.#.$.5.$.$.:.#.+.#.#.#.#.#.#.#.#.#.:.| :.:.i.o.N 8 ; * - $ $ @ ",
"> - , , > 1 7 7 j k r y f g a a W W E E E d M ..f.N.D.D.F.F.F.D.a.&.O.D D Z h / h / / / ( ' ( ( #.+.+.#.;.:.:.:.:.:.:.:.#.#.#.$.#.| +.#.#.#.#.#.#.#.#.5.:.:.:.:.w.w.0 8 ; ; - $ * $ ",
"- - , , , 1 7 9 k k y f g a W W R R E E E g B  .y.f.z.z.m.N.B.s.-.` p u q q q q p e e p g ! ! / } +.+.+.>.:.:.:.;.;.:.:.| | | | | | | ;.:.:.:.:.#.#.:.1.:.:.1.1.i.w.0 0 : - - - * $ ",
"- - - , 1 1 9 k z k y f f a g W R E E E E d g ) ..o.<.<.>.1.3.<.O./ p q q T q q e p q e u g g a ' +.>.>.>.;.;.;.| ;.;.| | | | | } { | :.;.:.:.:.5.#.| 1.1.:.| ..u.w.0 0 ; - - * $ $ ",
"- - > , > 1 9 z z z t M g g W W ! E E E E d d M ) ) ) ] ] { | | ' Q w q 8 T q q q w q u u u a h O.;.<.>.;.;.&...;...| ..{ { _ ' ' ' | ;.:.:.:.<.#.1.| :.:.:.:.1.p.w.G 0 : ; - $ $ $ ",
"= > - ; ; 1 0 v l l m m M g g a E E E E E E d g M Q g g Q Q ~ Q Q W e R w w T w i a w u i p g h ' &.<.<.<.;.{ { ] _ { { _ _ _ _ ] | ..;.,.:.;.:.:.:.1.1.:.....i.p.y.0 7 ; - - $ $ $ ",
"* - - , ; 1 c n v l x M g g g g Q E E d a h h g g g g i p a a a T T R W R R w R W W i a a i g h { ;.<.>.@.{ { ' _ ] _ _ _ ] ] ' ' | @.:.:.:.;.,.;.;.;.:.:.;.:.<.p.w.n 7 , - * * $ $ ",
"* - - - ; 1 c n n l l m g g g g Q Q d E a p a h g g g g a a i w w a a R e e T w R R e w a a a ~ ' @.,.>.@.O.] ] _ _ ' ' | | _ } | @.@.:.:.:.#.:.:.:.:.:.:.;.;.>.i.w.n 7 , ; ; * $ $ ",
"= * - ; - 1 v J n l m d f p h e a Q g d h h h h g g g g g a a a w e e e e e e e R a e w a e W ~ ' @.@.@.O.' ' ' _ ' ' | | | | | +.+.#.#.@.#.@.:.:.:.:.,.:.:.;.;.i.w.n 7 ; - * * $ $ ",
"* - - ; - 1 v H n l m m h g a h a d g g a p p a p a p g g g a a g a a a a R a a a W e i a a W ! +.@.#.@.+.+.{ ' } | | #.#.#.#.#.+.#.#.#.@.$.#.:.:.@.@.:.:.:.@.:.i.o.n 7 ; ; ; * $ $ ",
"* * - ; - 1 v J n x y h g g a a a a p a p a e a p a a a g a W a a g a a a e a a W W a a e W g ! ' #.#.#.@.@.O.+.+.+.@.$.:.$.:.#.+.#.#.@.@.$.$.$.#.:.#.,.$.>.@.;.2.X.n 7 ; ; * * $ @ ",
"* * * ; : 1 v I A x y g g p a a a a e e a a a e a e e e e a g W g a a g g g h a g g a a a a a ~ } +.@.$.@.@.@.@.@.@.,.$.:.:.:.$.#.$.#.$.#.$.@.@.#.@.@.,.,.@.@.&.=.Y l 7 ; ; ; * - @ ",
"* * - - - 1 n I V x y g p a a e a a e e e e e e ! R R R e a g g a g p p g p g g g g g a a a a ~ } @.$.$.@.>.@.,.:.@.,.>.:.,.$.$.$.@.$.@.@.$.@.$.>.@.>.$.,.@.{ &.X.K l 7 ; - * * * $ ",
"* * - ; - 1 n I V y f g a a e a a R a e e e e e R W W R e W W W g a a g g a g g g Q g a g g Q ~ { @.:.:.$.@.,.@.,.@.@.@.#.#.#.:.#.$.#.$.$.@.@.@.@.@.:.,.,.@.{ {  .J k 8 ; ; - * * @ ",
"$ * * - > 1 n Y J y f p a a a a W e a e e e e R E R W W e ! a a a a a g g a g g g g g g g W Q ~ { @.:.,.@.#.#.:.@.>.,.,.>.>.+.+.$.#.$.#.#.#.$.>.O.O.>.>.>.@.O.[ L A k 7 : - - - * $ ",
"* $ ; ; - 1 n Y J y y h h a a e e W ! a e e W W W W W W a a a a W g a a a g a d g Q a a a g g ~ ' @.:.#.@.#.#.@.@.>.,.,.>.+.+.+.#.$.#.+.+.$.>.>.>.O.-.>.>.&.[ Z S N k 7 > - - - * @ ",
"$ $ * ; - 1 n Y A y y h e e e e e W ! e e e e e W R W a a a a a a W a a a a a a a a a a a a g Q ' @.#.:.:.:.:.;.O.;.&.<.2.>.>.>.:.| :.:.+.$.@.,.&.O.>.>.>.;.` B A N k 7 ; * * * $ $ ",
"$ * * ; , 1 n Y J z f p p a e e W e e R W a e w e e a e a a a a a a a a a a a a a a a a a Q a Q ' @.:.:.:.:.:.;.&.=.=.e.a.a.s.s.v.1.| | @.#.@.@.>.O.O.>.>.&.) N N n k 7 ; ; ; * $ $ ",
"$ $ - ; - 1 b Y J y C f p e a ! W R e e W a ! e a a a a e e a a W a W a a a a a a W a a a a a a } @.:.:.;.<.i.p.x.x.x.T.W.(.(.!.V.i.1.| #.#.#.#.+.+.| 5.#.| B N n l 0 7 : ; - * * $ ",
"$ $ $ - ; < b Y A y f h h a a ! W R e e e ! a ! W a a R e e e a a e a e W a a e a W a e W g ! ! } @.:.;...<.d.V.W._._.+X%X%X%XOX`.d.1.:.#.#.#.#.+.+.#.#.:.@.M l x v 7 7 ; ; ; - = & ",
"$ $ * ; ; : b Y J y f h p e e e e e e e e a a a a e a e a h e e e a a a e W e a a W a a W W ! ! } @.:.:.@.i.N.^.oX+X+X+X#X$X$X].^.d.1.1.#.#.#.#.$.$.#.#.:...m l l v 0 7 ; ; ; - = $ ",
"$ * * * ; 1 b Y J z C h f u e w e e e e ! a a a p a a a a a a h e ! R a a a a e e W e e W a a ! } +.:.:...i.V.'.%X$X#X.X X X.X}./.p...5.#.#.| | } +.| 5...B 0 0 k k 8 7 1 ; ; - - & ",
"$ $ $ ; - : N X.J x C h h g g a a ! e ! a h e a a g p a a g a a a a a a a a e a e a e e e W ! ! } +.,.@.@.3.D.(.OX|.}.}.[. X@X}._.l.u.1.<.] ) g s M M N N x r r 0 9 7 5 1 1 , ; - * ",
"$ $ $ - - : 0 P H z x C f h a g a h h g g a g g a g g a g p a a a a p e e a a e a e e W e ! e ! } +.#.$.@.3.m.!.].|.).}. X X.X).A.y.X.=. .M g 8 8 k c c k k 7 7 9 7 9 5 1 1 1 ; , = ",
"$ $ $ - = 1 0 8.H z x m f h f h h h g g p p g g g g g g a a h a a a a a a ! a a e W e a R W E ! } +.$.#.:.3.S.E.].oXoX$X&X@X}.k.8.J N m m l t 8 8 r z k k k 7 r 7 9 7 5 1 1 , , , = ",
"$ $ * - - 1 0 F H b z n C C C f g f f g f p h h f p p g h p p h h h a g a a W a a W W W W W W ! } +.$.$.@.1.f.N.J.T.L.U.Y.L.C.Y n v 0 8 8 8 8 8 8 r z k k k 7 7 7 7 7 5 1 1 1 , , - ",
"* $ $ - - , 0 F H H H b n N m x y t m m y y p g p u u p a g g g a h g g a W a e W W a e W W W ! } #.$.$.:.2.u.*.J A N N J V H n l l 0 8 k 0 r k 8 k k k k r 7 7 7 9 7 5 1 1 1 1 1 - ",
"@ $ $ - - , 4 0 c b b H V A J J A J K K A C A Z Z Z m f m f f f g g f p p g p q a a p a a W Q ~ ^ } | #... .Y A 8 8 8 3 r 7 k k 0 l 0 0 l r k k 8 8 k k j r 7 7 7 5 5 5 1 4 1 , , - ",
"$ $ * - @ > 5 5 6 7 z b J U *.q.q.r.y.t.q.*.%.Y %.L K S A m m m y y y y s s s t s p p p d g g g ] { { ..S A n r 3 8 3 8 8 7 k r t 0 8 8 8 r 0 k 7 k k r j 8 7 3 5 5 5 1 1 5 1 1 , > ",
"$ $ * - - > 1 1 4 6 7 z z N J I P I I I J J J L t.t.t.t.t.t.q.q.*.*.Y *.Y Y L L J J A A N m N N K K K  .N x l 8 3 8 8 8 8 8 8 8 8 8 8 8 l 0 0 c 7 8 0 r r 7 4 3 5 5 5 1 1 2 1 1 1 - ",
"$ $ $ * * ; , 1 1 1 1 1 2 2 3 3 3 7 7 3 7 7 7 J j.C.K.K.I.I./.I.I.I.I.U.P.A.C.j.h.h.7.7.7.F F G J J I P 0 0 0 0 0 0 8 3 3 8 8 8 8 8 8 8 8 8 0 l 8 8 8 8 7 7 6 4 5 5 4 , < 4 4 4 < = ",
"$ $ $ $ * - , , , 1 , 1 1 1 : : 1 2 1 2 1 4 2 k J U 9.9.q.w.9.9.8.r.h.j.A.Z.P.P.Z.Z.Z.C.h.h.0.8.8.P P P G 0 0 0 8 2 2 2 2 2 8 8 8 8 2 8 8 8 0 0 8 8 8 7 7 7 1 3 1 1 < > < 4 < > 1 > ",
"$ $ $ * * - > > , , , , : : : 2 1 1 1 1 1 1 : ; : : ; ; : : : : , 2 0 7.h.A.{.XX@X@XXX X{.Z.A.k.y.8.P P G 0 0 7 2 2 : 8 2 : 3 8 8 8 2 8 0 8 0 0 8 7 7 7 7 3 1 1 1 < < > < 4 > 4 < > ",
"@ $ * * * = - - > > - , : ; : : : ; 1 1 1 1 : : ; ; ; ; : - - ; ; , 9 9 F 7.8.h.0.h.0.0.7.8.I G F c c v 0 0 8 7 2 2 2 2 2 : 8 2 2 8 2 5 0 8 8 0 7 2 7 5 7 3 : 1 , , < > < 4 4 4 1 = ",
"$ $ $ $ $ * - = = - % ; > : : : ; , - > , ; ; ; - ; ; ; * * * - $ , 2 , 2 , 1 , > > - - ; : : : ; ; : 8 8 2 7 2 : 2 : : : 2 8 : 2 2 2 8 0 7 9 7 2 2 2 2 2 4 : ; , > > = > 4 4 < < > ",
"$ @ $ $ $ $ * = = & = > % % % % - > - > - - - - - * * - - % * $ $ - 1 , > 1 , - = - - - * : : : ; ; ; 8 5 2 2 2 : : 2 2 : : 2 2 1 2 1 2 8 9 7 9 5 2 2 1 1 1 ; ; > = > & > 4 > 4 4 = ",
"$ $ $ $ $ $ # & = = = = % % % : = - * = & = - * * $ $ $ $ $ $ $ # = , > , - , - $ - $ * $ : ; ; ; - ; 2 2 2 2 2 : : : : : : : : , 2 , 2 8 7 9 7 2 1 1 1 : 1 - = = = & & > 4 < 4 4 > ",
"@ @ @ $ # $ # @ # + + % % % % % & & $ & & & * # $ $ $ $ $ o o o # * - = = - = - @ @ $ @ $ ; * ; ; * ; 1 1 , , : : : ; ; ; ; , : , , ; 2 7 5 4 9 4 ; 1 : : : - = = & = @ > 4 4 > 4 = ",
"# # # + + + + + + + + = & # % % & & + & + # & # # # # # # @ @ O X $ & & & & & & @ @ @ @ $ - * * $ $ * : ; ; : - - - ; - - - ; ; ; ; * 1 7 5 4 4 1 - ; ; > > > + @ & O O > 4 < 4 1 > ",
"X + + + + + + o + + + + # # + o # + + + + + # O @ @ @ # @ X O X X # # # # # # # @ @ @ @ @ $ @ @ $ $ * ; - ; - - - - - - - - ; - - ; * , 5 1 4 4 1 - - - = > = + @ @ O O < 4 4 < < > ",
"O O + O + + o . O X O + o o + # # X X O O O O O O O O O X X O X X + + O O O + + @ @ X @ @ @ @ @ @ @ $ - - $ $ $ $ $ * * $ $ $ $ $ * & > 4 4 1 4 , - * * & * + O O O O O > < > 4 1 > ",
"X X X X . X o o . . O + o o o o O X X   . . O O X X X O X   X .   O X X . . O O   X     @ @ X X X   $ * $ $ $ $ $ $ $ $ $ $ $ $ $ $ # > 1 1 < 4 > & # * * * O O O O     > 4 < > 1 - "
};
