/* XPM */
static char *stop[] = {
/* columns rows colors chars-per-pixel */
"80 80 98 2 ",
"   c #18350F",
".  c #043A11",
"X  c #093810",
"o  c #312F0D",
"O  c #2C3E36",
"+  c #7D1D09",
"@  c #53270B",
"#  c #673036",
"$  c #177E09",
"%  c #177F09",
"&  c #177F0A",
"*  c #3C6A08",
"=  c #3C6B08",
"-  c #3C6B09",
";  c #257709",
":  c #267709",
">  c #257809",
",  c #267809",
"<  c #25780A",
"1  c #334F37",
"2  c #3D4A37",
"3  c #334F38",
"4  c #305233",
"5  c #305333",
"6  c #305334",
"7  c #5D5806",
"8  c #5D5906",
"9  c #5D5907",
"0  c #7F4605",
"q  c #4C4137",
"w  c #3C3F45",
"e  c #9A1706",
"r  c #B71004",
"t  c #9B3604",
"y  c #BD2302",
"u  c #BB2502",
"i  c #BB2503",
"p  c #B52804",
"a  c #A03404",
"s  c #952227",
"d  c #992026",
"f  c #DA0802",
"g  c #DF090E",
"h  c #CE1A02",
"j  c #CE1B02",
"k  c #CB1C04",
"l  c #DC1301",
"z  c #DA1403",
"x  c #D20D12",
"c  c #C51217",
"v  c #D11011",
"b  c #E50601",
"n  c #ED0401",
"m  c #E60D01",
"M  c #EB0A03",
"N  c #EE0900",
"B  c #F20300",
"V  c #F60200",
"C  c #F20700",
"Z  c #F10703",
"A  c #F60500",
"S  c #FA0300",
"D  c #FE0100",
"F  c #F80400",
"G  c #FA0105",
"H  c #FF0004",
"J  c #F10803",
"K  c #FE2F2F",
"L  c #E23E2F",
"P  c #EA392F",
"I  c #F1362F",
"U  c #FB312F",
"Y  c #F9322F",
"T  c #FC302F",
"R  c #FE2F30",
"E  c #E03530",
"W  c #B15932",
"Q  c #C74D30",
"!  c #D74430",
"~  c #FE5555",
"^  c #128309",
"/  c #12820A",
"(  c #13820A",
")  c #12830A",
"_  c #13830A",
"`  c #12820B",
"'  c #12830B",
"]  c #12840A",
"[  c #12850A",
"{  c #12860B",
"}  c #FAEFEE",
"|  c #FDEFEE",
" . c #F9F1EE",
".. c #FBF3F1",
"X. c #FFF1F1",
"o. c #FFF3F3",
"O. c #FFF5F5",
"+. c #FFFEFE",
/* pixels */
") ) ) ) / [ / / / / / / / / / / ` ` ` ` ` ) ) ) ) ) ) ) ) ) ) ) ) ) ) ) ) ` ) & ) ) $ ) ) ) ) ) ) ) ) ) ) ) ) ) ) ` ) ) ) ` ) ) [ / / [ / [ / ' / [ / / / [ / ' ",
") ) ) ) / / / / / [ / / / [ [ ' ` ` ` ] ) ) & ) ) ) ) ) $ ) ) ) & ) ) ) ) & / / ) ) ) ) $ ) ) ) ) ) ) ) ) ` ) ) ) ) ) ) ) ) ) ) / [ / / / / / / [ / / ' / / [ / ",
") ) & ) / / [ ' / / / ' / / / / $ ` ) ) ) ) ) ) / / ^ ^ ) ) ) ) ) ) ) ) / / ' / ) ) ) ) ) ` ) ) ) ) ) ) ) ) ) ) ) ) ) ) ` ) ) ) / / / / / [ / ' [ / / / / [ / ' ",
") ) ) ) / / / / / / / / / / / / ) ) ) ) ) ) ) ) / / & ) ) ) ) ) ) ) : ; * * * * = = = > > $ ] ) ) ) ) ) ` ) ) & ` ) ) ) ) ) ) ` / [ / ' [ / / / / [ / ' / [ / ' ",
"& / / / / / [ / / / / / / / / [ ) ) ) ) ) ) ] ] / / & ) ) & : * 7 0 a t p i i i i i i a t 0 7 * : & ) ) ) ) ) ) / [ / ' ) ) ) & / / / [ / [ / / / / / ' / / / ' ",
"/ / / [ / / / / [ / ' [ / [ [ / ] ` ) ) ) ) ) ] / [ ) ; * 0 t i j l M m M M N N N N N m m l j i t 0 = > ) ) ) ) [ / / / ) ) / / [ / / ' [ / / ' [ / / / [ / / / ",
"/ / / / / / ' / / / [ / / ' / / ) $ ] $ ) ) ] ] / & 7 0 p j m N C A V V S S S S F S F A S A C n m j i 0 7 : ) ) / / / / / [ / ' [ / / / / / / / / / / / / / / / ",
"/ / / [ / [ / [ [ ' / / / / / / ) ) . . ) ) ] ] * 0 p l n n A S D D D D D D D D D D D D D D S S V C N l i 0 * & / / / ' [ / / / / / / / / / / / ' / / [ ' [ / / ",
"/ / / [ / ' [ / / / [ / / / ' [ / . / / . [ = t i l N A A D D D D D D D D D D D D D D D D D D D S S F V n l i 0 * / ) ) & ) ) ) ' . . [ ' / [ / / / / / / / / / ",
"/ ' [ / / / / / / / ' / [ / / . . [ [ / X * t j m C S S D D D D D D D D D D D D D D D D D D D D D D D F V C m j t - & ) ) ) / & / . / . / / / / / / / / / / / / ",
"/ / / / / [ ' / / / / / / / / . / / [ < @ i l N A D D D D D D D D D D D D D D D D D D D D D D D D D D D D D S N z i 7 < / / / / . . / . / / / / / / [ / / / [ / ",
"/ / ' / / / / / / [ [ / [ . . [ [ / < 0 i b n F S D D D D D D D D D D D D D D D D D D D D D D D D D D D D D S S C m i 0 < / [ . . / [ / . . / [ ' / / / ' [ / / ",
"[ / / / / [ / ' / [ / . . / / / ] > t i m V S D D D D D D D D D D D D D D D D D D D D D D D D D D D D D D D D D S A m i 0 ; / . ' / / / ' / . / / / / / / / / / ",
"/ [ / ' [ / / / [ / . & / & / / ) t a m V S D D D D D D D D D D D D D D D D D D D D D D D D D D D D D D D D D D D S A m p 0 ; . / / / / [ / . / [ / / [ / / / [ ",
"/ [ / [ ' / / / . . ) ) ) ) / ) 7 i m A D D D D D D D D D D D D D D D D D D D D D D D D D D D D D D D D D D D D D D D A m i @ % / [ / / / / / . . / / ' [ / / [ ",
"/ / / / / / / . / / ) ) & ) ) * i m A S D D D D D D D D D D D D D D D D D D D D D D D D D D D D D D D D D D D D D D D S V b p * [ / / ' / [ / ' / . / ' [ / [ [ ",
"' / / / / ' . [ ) ) ) ) ) ) = a l J S D D D D D D D D D D D D D D D D D D D D D D D D D D D D D D D D D D D D D D D D D S B l a * ) ) ) ) ) / / / / . / [ / ' / ",
"/ ' / / . . / / ) ] ) ) ) $ 0 j N S D D D D D D D D D D D D D D D D D D D D D D D D D D D D D D D D D D D D D D D D D D D S N j 0 & ) ) ) ) / & [ / . . / [ [ [ ",
"/ / / [ [ / / [ ( ( ) ) ) : i m F S D D D D D D D D D D D D D D D D D D D D D D D D D D D D D D D D D D D D D D D D D D D S F m i * ) ) & ) ) ) / [ [ . / / ' / ",
"/ [ / / / / / / ( ] ( ) : t z J D D D D D D D D D D D D D D D D D D D D D D D D D D D D D D D D D D D D D D D D D D D D D D D C l 0 < ) ) ) ) ) / / / / ' [ [ / ",
") ) ) ` / / [ / ) ) ) ) 7 i N A D D D D D D D D D D D D D D D D D D D D D D D D D D D D D D D D D D D D D D D D D D D D D D D A N i 7 ) ) ) ) ` [ / / / / / / / ",
") ) ) ) / / [ / ] ( ) > t l A D D D D D D D D D D D R | X.+.O.+.X.| R D D D D D D D K | | | R D D D D D D D D D D D D D D D D D V f 0 : ) ` ) ` / [ [ / / [ / / ",
"& ) ) ) / [ / / ) ) ] = p m F D D D D D D D D D D D | +.+.+.+.+.+.+.+.+.+.+.O.+.O.+.+.+.+.+.| D D D D D D D D D ~ +.+.+.X.| K D C n p : ) ) ) ) / / / / / / / ' ",
"` ) ) ) / / / [ ) ) ) 0 j P | X.+.X.+.X.| K D D D D | +.+.+.+.+.+.+.+.+.+.+.+.+.+.+.+.+.+.+.| D D D D D D D D D +.+.+.+.+.+.+.| T n k t $ ) ) ) [ / ' / / / ' / ",
") / / / / [ / / / / < t m | +.+.+.+.+.+.+.| D D D D | +.+.+.+.+.+.+.+.+.+.+.+.+.+.+.+.+.+.+.| D D D D D D D D D +.+.+.+.+.+.+.+.+.} P t : ( ] ) / / / / [ / [ / ",
") & / / / / [ / / [ * i I +.+.+.+.+.+.+.+.| D D D D K | X.+.O.+.+.+.+.+.+.+.+.+.+.+.+.+.+.| K D D D D D D D D D +.+.+.+.+.+.+.+.+.+.| i = ) ` ) [ / ' / / / / / ",
"/ / / / ' / / [ / / 7 h | +.+.+.+.+.+.+.+.| D D D D D D D D D D R +.+.+.+.+.O.+.X.+.X.| R D D D D D D D D D D D O.+.+.+.+.+.+.+.+.+.+.! 7 ) ] ) / [ [ / / / / / ",
"' [ / / / / / / / & 0 E +.+.+.+.+.O.+.X.| K D D D D D D D D D D D | +.+.+.+.| D D D D D D D D D D D D D D D D D +.+.+.+.+. .+.+.+.+.+. .t ] ) ) / / / / [ / / / ",
"/ / / / / / / [ [ < a | +.+.+.+.| D D D D D D D D D D D D D D D D R +.+.+.+.X.D D D D D D D D D D D D D D D D D X.+.+.+.+.R R +.+.+.+.+.W   . [ / / ' / / / ' [ ",
"[ / / [ / [ / ' ) > e | +.+.+.+.~ D D D D D D D D D D D D D D D D D +.+.+.+.+.D D D D D D D D D D D D D D D D D | +.+.+.+.| D | +.+.+.+. .  . / / / / [ / & / / ",
"/ / [ ' / / / ' ) * r } +.+.+.+.+.| R D D D D D D D D D D D D D D D O.+.+.+.X.D D D D D D D D D D D D D D D D D R +.+.+.+.X.D K +.+.+.+...o . / / / / [ ) ) ) ) ",
"/ / / / / [ / / ) * r I +.+.+.+.+.+.+.+.X.| K D D D D D D D D D D D +.+.+.+.+.D D D D D D D K | X.+.X.| K D D D D +.+.+.+.+.D D +.+.+.+.+.* [ . / / / / ) ) ` ) ",
"/ / / / [ / / / ] * r N | +.+.+.+.+.+.+.+.+.| D D D D D D D D D D D O.+.+.+.O.D D D D D K | +.+.+.+.+.+.+.| R D D X.+.+.+.O.D K +.+.+.+...= ) ) . ) ) ) ) ) ) ) ",
"/ [ / [ / [ / / ) o i N R | +.+.+.+.+.+.+.+.+.| K D D D D D D D D D +.+.+.+.+.D D D D D | +.+.+.+.+.+.+.+.+.| D D +.+.+.+.+.D | +.+.+.+.} = ) ) . ) ) ) ) ) ` ) ",
"/ / / / / / [ / ) o i N S D K | +.+.+.+.+.+.+.+.+.| K D D D D D D D X.+.+.+.X.D D D D R +.+.+.+.+.+.+.+.+.+.X.D D O.+.+.+.+.X.+.+.+.+.+.Q * ) ) ) . ` ) ) ) ` ) ",
"/ / / [ / / / / . * i N S D D D R | X.+.+.+.+.+.+.+.| D D D D D D D +.+.+.+.+.D D D D | +.+.+.+.+.+.+.+.+.+.+.D D +.+.+.+.+.+.+.+.+.+.| i * ) ) ) ) . ) ) ) ) ) ",
"[ [ / / / / / . . * i N S D D D D D D D | +.+.+.+.+.+.R D D D D D D O.+.+.+.O.D D D R +.+.+.+.+.R D O.+.+.+.X.D D O.+.+.+.+.+.+.+.+.+.I i * ) ) ) ) . ) ) ) ) ) ",
"/ / / [ / / / . ) : t m A D D D D D D D K | +.+.+.+.+.| D D D D D D +.+.+.+.+.D D D | +.+.+.+. .D D +.+.+.+.+.D D +.+.+.+.+.+.+.+.+.| m t ; ) ) ) ) ) . ) ) ) ` ",
"/ / / / / / . / / $ a m S D D D D D D D D D R +.+.+.+.X.D D D D D D O.+.+.+.X.D D D X.+.+.+.+.R D D X.+.+.+.O.D D X.+.+.+.+.O.+.X.| Y m a : ) ) ) ) ) . ) ) ) ) ",
"/ / [ / & . [ / [ [ t l A D D D D D D D D D D +.+.+.+.+.D D D D D D +.+.+.+.+.D D D +.+.+.+.+.D D D +.+.+.+.+.D D | +.+.+.+.| D D D V l 0 & ) ) ) ) ) ` . ) & ` ",
"/ / [ / . / [ ' ) & 7 h C S D D D D D D D D D X.+.+.+.O.D D D D D D X.+.+.+.O.D D D X.+.+.+.O.D D D O.+.+.+.O.D D K +.+.+.+.X.D D S C j 7 ) ) ) / / / ' . / / [ ",
"/ [ / ' . / / / ) ) * i n S D D D D D D D D D +.+.+.+.+.D D D D D D +.+.+.+.+.D D D +.+.+.+.+.D D D +.+.+.+.+.D D D +.+.+.+.+.D D S N i * ) ) ) / / / / / . [ / ",
"/ / . . / [ / / ) ) : t m A D D D D D D D D R +.+.+.+.X.D D D D D D X.+.+.+.X.D D D O.+.+.+.X.D D D O.+.+.+.X.D D D X.+.+.+.X.D D A m t ; ) . ) / [ [ / / / . / ",
"[ / / / [ / ' / ) ) & 0 j J Y | | | K D R | +.+.+.+.+.| D D D D D D  .+.+.+.| D D D +.+.+.+.+.D D D +.+.+.+.+.D D D +.+.+.+.+.D D C j 0 & ) . ) / / / / / [ / . ",
"[ / ' / / / ' . ) ) ) * i J | +.+.+.+.+.+.+.+.+.+.+.+.R D D D D D D R | | | R D D D O.+.+.+.O.D D D X.+.+.+.O.D D D O.+.+.+.O.D A N i * / . [ ' [ / / ' / / / ' ",
"/ [ / / / / [ . ) ) ) ; 0 l | +.+.+.+.+.+.+.+.+.+.+.| D D D D D D D D D D D D D D D +.+.+.+.+.D D D +.+.+.+.+.D D D +.+.+.+.+.F A l 0 > / . / / / / / / [ / / ' ",
"/ / / / / [ / . ) ) ) ) 7 i | +.+.+.+.+.+.+.+.+.+.| R D D D D D D D D D D D D D D D X.+.+.+.O.D D D O.+.+.+.X.D D D X.+.+.+.X.S M i 7 / / . / / / / / [ / [ / [ ",
"/ ' / / / ' / . ) ) ) ) : 0 L | +.+.+.+.+.+.+.| R D D D D D D H H D H H D D D D D D +.+.+.+.+.D D D +.+.+.+.+.D D D | +.+.+.| C z 0 < / ' . [ / ' / [ / / / / / ",
"/ / / / / / / . / / / / / * i m Y | X.+.X.| R D D D D D D H H H H H H H H H D H H H X.+.+.+.+.R H R +.+.+.+.X.D D D R | | | U m p * / [ / / / / / / / / ' / / / ",
"/ / / [ / / / / / / / / / ( 0 k N S D D D D D D D D D D H H H H H H H H H H H H H H | +.+.+.+.+.+.+.+.+.+.+.| D D D D D D S N j 0 & / / / [ / / [ / / / ' / / [ ",
"/ / / / / / / [ / / / [ ) . * t l C S D D D D D D D D H H H H H H H H H H H H H H H R +.+.+.+.+.+.+.+.+.+.+.R D D D D D S C l a * / / [ / ) ) / [ / / [ / / / [ ",
"/ ' [ / / ' / / [ ' / / . . ) * i m A S D D D D D D D H H H H H H H H H H H H H H H H | +.+.+.+.+.+.+.+.+.| D D D D D D A m i = / / / / ( ) ) & / / / / / / / / ",
"/ / / / / / / / / & ) & . . ) & 7 i m A D D D D D D D H H H H H H H H H H H H H H H H R X.+.+.+.+.+.+.+.| R D D D D S V m p 9 ' [ / . . / / / ' / / / ' [ / [ ' ",
"/ / / / / [ / / / ) ) ) . . ) ) > 0 i m A S D D D D H H H H H H H H H H H H H H H H H H H R | X.+.X.X.R H H D D D D A m i t & ] / . . . / [ / / / / / / / / / / ",
"[ [ ' / / / ' [ / / ) ) . & . ) ) : 0 i m A S D D D H H H H H H H H H H H H H H H H H H H H H H H H H H H H D D S A m i 0 : ) ) . . / / . / / / / [ / / / / / / ",
"/ / / / [ / / / / / ) . ) ) . ) ) ) : 0 i m C V D D D H H H H H H H H H H H H H H H H H H H H H H H H H H D D S C m i 0 : ) ) . / / / / / . / / / / / / / / / / ",
"/ [ / [ [ / / / / / / . / / . / / / / < 7 i l n V S H H H H H H H H H H H H H H H H H H H H H H H H H H H D V n l i 7 : ) ) ) . / / [ ' [ / . ' / / [ ' [ / / ' ",
"/ / / / / [ / / / [ . / [ / . / / / / [ ) * e h m C S H H H H H H H H H H H H H H H H H H H H H H H H H H A m j t * & ) ) ) . ) / / / / / / . [ / / / / / / / / ",
"/ / / / / / / ' / / . / / / . [ [ / ' / / / o 0 i l N D H H H H H H H H H H H H H H H H H H H H H H H H G z p 0 * ) ) ) ) . & ) / / / [ / / / . [ / / / / / / / ",
"/ [ / ' / / / / / . [ / [ / / . / / [ / / . [ & : t i l G H H H H H H H H H H H H H H H H H H H H H H A y 0 * / ) ) ) ) ) . ) ) ' / / / ' / / / . / / [ ' / [ / ",
"/ [ / / / / / / [ . / / / / / . / / ' / . / / & ] > 7 0 y C H H H H H H H H H H H G D H H H H H H H M + 9 < / / / / [ . . ) ) ) / / / / [ / [ / / . / / / / / / ",
"/ / / / / / [ / . / ' / / / ' . / [ / / . / / ) ) ] ] > * 0 p z J x c d x G G H H H H G g c c v k t =   / / / [ / / . / ) ) ) ) / [ / [ / ' / / / . [ / [ / / [ ",
"/ / / [ / [ ' / . / ' / [ / / . [ / / . [ / ) ` ) ) ) ) ) & > * 7 q w w w # s c c c s # w w w 2 : & ] ) . / / [ / . / / & ) & ) / ' [ / / / / / [ . . / / [ / / ",
"[ / / / / / / . [ / / [ / [ / . . / ' . / / ) ) ` ) ) ) ) ) ) ) ) 4 w w w w w w w w w w w w w 6 ) ) ) ) . / / / . / / / / ) ) ) / / / / / / / / / / . . ' / / / ",
"/ / ' / / / ' . / [ / / [ / ' / . / . / / / [ / / / / / / / / / / 1 w w w w w w w w w w w w w 6 ' ' / / . / / / . ' / / / / / / / [ / / [ / / / ' / / . . / / [ ",
"/ / ' / / / . / / / ' / / / / / . . [ / ' / / / / / [ / ' / / [ / 4 w w w w w w w w w w w w w 6 / / / [ / . . . / / / / / / / / [ / [ / ' / / / ' / / [ . [ [ / ",
"/ [ ' / / / / / / / / / / / [ / / / / [ / / / / / / / / [ / / / / 3 w w w w w w w w w w w w w 3 & / / / / . . / / [ / / [ / [ / ' / / / ' / [ / / [ [ / . . / / ",
"[ / / / / [ / [ / [ . / / / / [ / ' / / / / [ / ' / / [ / / / / / 4 w w w w w w w w w w w w w 6 / / / / / [ / / [ / / / ' / / / ' / / / / / / [ / / / / / . / / ",
"/ [ / / / [ / [ / ' . [ / ' / [ / ' [ / / / / / / / / / / [ / ' / 1 w w w w w w w w w w w w w 3 / / / / / / / / ' / [ / ' / [ / / / / [ / / / / / ' [ / / / / / ",
"/ / [ / / ' / / / ' . / / / / [ / [ / [ ' / / . / / / [ / / / [ / 4 w w w w w w w w w w w w w O [ / [ / [ / [ / / / / [ / [ / / / ' [ / . ' / [ / / / / / / / [ ",
"/ / [ / [ / / / / / . / [ [ / / [ / ' / / / / . . / / ' / / / ' & 3 w w w w w w w w w w w w w O / / / / ' / / / ' / [ / / ' [ / / / / / . / / [ / / / [ / / / / ",
"/ [ ' / / / ' / [ / ' . [ / ' / / / ' / [ / / [ . [ / [ / / / / ) 4 w w w w w w w w w w w w w 4 . / / / ' / [ / / ' / [ / / / / / / / / . / / / / / / / / ' [ / ",
"/ / / / / / / / / / [ . / [ / / / [ [ / [ / / ' / . / ' / [ / / ) 3 w w w w w w w w w w w w w 1 ' / [ / / [ / / / / / [ / / / [ / / / / . / / / [ ' / / / / / / ",
"/ [ / / / / / / / [ / . / / / / / / / / / [ / / / . / / / ' [ / ) 6 w w w w w w w w w w w w w 4 / [ / / / / / / / / / / / / / / [ ' [ / . ' [ / / / / / / / / / ",
"/ ' / / [ ' / / / ' / / [ ' / / / ' / / / ' / / / . . / / / / / ) 3 w w w w w w w w w w w w w 3 / / / [ / / / / / / / [ / ' / / / / / / . / / / / [ ' / / [ ' / ",
"/ / / [ / / / [ / / / / / / / / / / / / / / / [ / / . [ / / / / ` 6 w w w w w w w w w w w w w 4 / / / / [ ' / / / ' / / / / / / / / / / . / ' / / / / / [ / / / ",
"/ / / [ / / / / / / / / / / / / / / / / / / / / / / / / / / / [ / 6 w w w w w w w w w w w w w 1 [ ' / / / [ / / / / / / / [ ' / [ / ' / / / / / [ / / / / / / / ",
"/ / / / / / / / / / / / / / / [ / / / / / / / [ / / / [ / ' / / / 6 w w w w w w w w w w w w w 6 / / / / / / / / / / ' / [ / [ / / [ / / / [ / / / / [ ' [ / / ' ",
"[ ' / / / ' / / [ ' [ / / ' / / [ ' [ / / ' / / [ ' / / / / / / / 3 w w w w w w w w w w w w w 3 / / ' / / / ' / [ / / / / / / / / [ / ' [ / / ' / / / / / / / / ",
"/ / / / / [ / / / / / / / [ / / / / / / / / / / / / / / / / [ / / 4 w w w w w w w w w w w w w 6 / / [ / / [ [ / / [ / ' / / [ ' / / / [ / / / / / / / [ / / / [ "
};
