/* XPM */
static char *fc161c8dc50744d7a837217352459bd4Fyi6oEDc7of9KzQ7[] = {
/* columns rows colors chars-per-pixel */
"32 47 7 1 ",
"  c None",
". c #5A303F",
"X c #75224A",
"o c #974E49",
"O c #AF407F",
"+ c #D08058",
"@ c #EA6D9D",
/* pixels */
"            XXXX                ",
"      XXX XXO@@OXX   XXXX       ",
"     XOOOXOO@@@@@OXXXO@@@X      ",
"    XO@@@OO@@@@@@@@@O@@@@OX     ",
"    XXX@@@O@@@@@@@@@O@@@@@X     ",
"   XXO@O@@@O@@@@@@@@@@@@@XXX    ",
"  XOO@@@@@@@@@@@@@@@@@@@X@@X    ",
"  XO@@@@@@@@@@@@@@@@@@@@@@@OX   ",
" XOO@@@@@@@@@@@OOXO@OXO@@@@OX   ",
"XO@O@@@@@@@@@@@@@OXXXO@@@@@@OX  ",
"X@@@OO@@X@@@@@@@@@OOXO@@@@@@@X  ",
"XO@@OOOXX@@@@@@@@@@@O@@@@@@@@X  ",
"XOOOOXXXO@@@@@@@@@@@@@@@@@@@OX  ",
"XOXXXXOOOO@@@@@@@@@@@@@@@@@OX   ",
" XXOOXO@@O@@@@@@@@@@@@@@@@@OX   ",
" XO@OXO@@@O@@@@@@@@@@@@@@@@@OX  ",
"  XOOXXO@@@@@@@@@@@@@@@@@@@@OX  ",
"  XOOOXO@@@@@@O@@@@@@@@@@@@@OXX ",
"  XO@@@O@@OO@@OO@@@@@@@O@@@@@OX ",
" XO@@OOO@@@OOOO@@@@@@@OOX@@@OOX ",
" XOO@OXX@@@XOOOO@@@OO@XXXXOOOOX ",
" XXXO@@XX@@@XXOOO@@@O@@X@@OOOOX ",
"XXOXXO@@XX@@OXXOO@@OO@@@OO@@OOX ",
"X@@OOXO@@OOO@OXXOOOO@@@@OO@@OX  ",
"X@@@OOOOOOX@OO@@XOO@@@@@OOOOOX  ",
"XOOOOOOOXXXOO@@@OO@@@O@@XOOOOOX ",
" XXXOOOXX@@X@@@@@O@@@@XXOOOOOOX ",
" XOOXXXX@@@O@@@@@O@@@@X@@OOOOOX ",
"XO@@OXX@@@@OO@@@OO@@@OO@@@OOOXX ",
"XO@OXXXXO@OOO@@@OOO@XOOO@@OOOXXX",
"XOOXXX@@OOOOOOO@@@XXOO@OOOOOOXXX",
"XXXXXO@@XOO@@@OO@@@XOO@@OO@OXXXX",
" XXXOOOOXX@@@O@@O@@OOO@@OOOOOXXX",
" XXOOO@@OX@@OX@OOO@@OOOOOOOOOOXX",
"  XXXOO@OOOOOXOOXXOOXOOOOOXOOXX ",
"   XXXOOXO@OXOOOOXXXXOOXOOXXXX  ",
"    XXXXOOOOXOOOOXXXOOOOXXXX    ",
"     XXXXOOXOOXOOOXXXOOOXXX     ",
"       XXXXXXOXXOXXXXXOXX       ",
"        XXXXXXXXXXXXXXXX        ",
"          ...XX..XXX..          ",
"          .o.o.+o.+.o.          ",
"          .o+++oo++oo.          ",
"          .o+++ooo+oo.          ",
"          .oo+oo+o+oo.          ",
"           .ooo++ooo.           ",
"            ........            "
};
