/* XPM */
static char *_fd90eaa1bc54d1fb7d4cc4e77dadce2evtXu2PTyzg6a1qp[] = {
/* columns rows colors chars-per-pixel */
"85 85 234 2 ",
"   c #01031C",
".  c #030418",
"X  c #09101E",
"o  c #000621",
"O  c #020A23",
"+  c #0C0E24",
"@  c #020D2B",
"#  c #090F29",
"$  c #0E1225",
"%  c #05112C",
"&  c #0C142D",
"*  c #0E182E",
"=  c #061126",
"-  c #111227",
";  c #12142B",
":  c #14192C",
">  c #191A2F",
",  c #151826",
"<  c #0D1631",
"1  c #0F1832",
"2  c #071130",
"3  c #121731",
"4  c #141B32",
"5  c #1C1D34",
"6  c #1A1C39",
"7  c #221E37",
"8  c #331F38",
"9  c #1E2037",
"0  c #1D2138",
"q  c #222137",
"w  c #23233A",
"e  c #2B263A",
"r  c #2C2A3B",
"t  c #352B3C",
"y  c #39303E",
"u  c #4A363E",
"i  c #292746",
"p  c #3D2A42",
"a  c #34344B",
"s  c #35295D",
"d  c #332854",
"f  c #3B3B52",
"g  c #2B324B",
"h  c #392B62",
"j  c #201F4D",
"k  c #472C46",
"l  c #493446",
"z  c #5B3D4D",
"x  c #56384A",
"c  c #5C3651",
"v  c #4C3053",
"b  c #653852",
"n  c #733F56",
"m  c #49337A",
"M  c #412F77",
"N  c #3F4663",
"B  c #564448",
"V  c #46465B",
"C  c #594153",
"Z  c #62444E",
"A  c #664551",
"S  c #734A56",
"D  c #7C445B",
"F  c #695252",
"G  c #7D5656",
"H  c #6A524E",
"J  c #484A63",
"K  c #54536C",
"L  c #5D5F7B",
"P  c #565873",
"I  c #50506A",
"U  c #65596C",
"Y  c #705473",
"T  c #6E6A7F",
"R  c #676379",
"E  c #746B74",
"W  c #8B375A",
"Q  c #832B51",
"!  c #8B3E65",
"~  c #863B63",
"^  c #81455D",
"/  c #87565C",
"(  c #935B5E",
")  c #98455E",
"_  c #966F5D",
"`  c #8E4365",
"'  c #884561",
"]  c #924566",
"[  c #954967",
"{  c #9A4964",
"}  c #964968",
"|  c #9A4C69",
" . c #944669",
".. c #8A5862",
"X. c #9F526A",
"o. c #995C66",
"O. c #864573",
"+. c #9D5975",
"@. c #A24D6D",
"#. c #A4546C",
"$. c #AD5C6E",
"%. c #A7566D",
"&. c #A85874",
"*. c #AE5970",
"=. c #9B7663",
"-. c #9E6365",
";. c #AC656D",
":. c #A66669",
">. c #B2696E",
",. c #B76B6C",
"<. c #A47963",
"1. c #B9726F",
"2. c #B7726F",
"3. c #AA6574",
"4. c #B46371",
"5. c #BC6C73",
"6. c #B66B72",
"7. c #BD7371",
"8. c #C37374",
"9. c #CA7576",
"0. c #C47973",
"q. c #CE7978",
"w. c #CB7878",
"e. c #D37D7A",
"r. c #D37674",
"t. c #C96F6D",
"y. c #B28368",
"u. c #D5817A",
"i. c #DC857D",
"p. c #DE897C",
"a. c #D08377",
"s. c #CE8D6F",
"d. c #E28A7E",
"f. c #E88678",
"g. c #E9967E",
"h. c #EB9C7E",
"j. c #E5947B",
"k. c #F09578",
"l. c #FEAC76",
"z. c #FCAF7D",
"x. c #F3A67E",
"c. c #FCB27E",
"v. c #FDB379",
"b. c #D8A479",
"n. c #4C3499",
"m. c #543895",
"M. c #5A3B95",
"N. c #57399A",
"B. c #4E348A",
"V. c #623E9E",
"C. c #613F92",
"Z. c #643C8C",
"A. c #5A3AA1",
"S. c #613EA1",
"D. c #71478C",
"F. c #797A98",
"G. c #727087",
"H. c #6641A7",
"J. c #88538D",
"K. c #887984",
"L. c #AA708D",
"P. c #C17682",
"I. c #7F809F",
"U. c #8A859A",
"Y. c #8788A8",
"T. c #9994A5",
"R. c #9B9BBD",
"E. c #9292B3",
"W. c #948FA6",
"Q. c #A39DB2",
"!. c #A29BAF",
"~. c #ADA5B9",
"^. c #DF8782",
"/. c #E68B80",
"(. c #EB8D82",
"). c #E48780",
"_. c #EC9381",
"`. c #EF9B80",
"'. c #F39385",
"]. c #FA9B89",
"[. c #F18F84",
"{. c #F4A480",
"}. c #FAAE81",
"|. c #F7AA83",
" X c #FEB482",
".X c #FEBB84",
"XX c #FEBC89",
"oX c #FFA192",
"OX c #C59AA9",
"+X c #EBB4AA",
"@X c #CAA2B0",
"#X c #FFC186",
"$X c #FFC389",
"%X c #FFCA8C",
"&X c #FFD392",
"*X c #FFC798",
"=X c #FDCAAA",
"-X c #FDD5B9",
";X c #FED0B0",
":X c #9F9FC0",
">X c #A4A4C6",
",X c #A7A7C9",
"<X c #AAAACA",
"1X c #A8A7C9",
"2X c #B5AEC4",
"3X c #BBB2C5",
"4X c #BFB6C9",
"5X c #AEAED1",
"6X c #B2B2D5",
"7X c #B5B5D8",
"8X c #BBBADD",
"9X c #AFB0D4",
"0X c #BFBFE2",
"qX c #C4BBCE",
"wX c #C1B7CA",
"eX c #C6BDD0",
"rX c #C8BED1",
"tX c #C0BFE3",
"yX c #CBC1D2",
"uX c #D1C6D9",
"iX c #D5CADD",
"pX c #D9CAD9",
"aX c #DCC3CD",
"sX c #EDD1D0",
"dX c #FBE7DB",
"fX c #C3C2E6",
"gX c #D9CEE1",
"hX c #DBD0E2",
"jX c #E6D9EB",
"kX c #FCEBE1",
"lX c #F8E9E7",
"zX c #FCFDFD",
"xX c #FBF7F5",
"cX c #FFF4E7",
/* pixels */
",X,X,X,X,X,X,X,X,X,X,X,X,X,X,X,X,X,X,X,X,X,X,X,X,X,X,X,X,X,X,X,X,X,X,X,X,X,X,X,X,X<XrXeXrXrXrXrXrXrXrXrXrXrXrXrXrXrXrXrXrXrXrXrXrXrXrXrXrXrXrXrXrXrXrXrXrXrXrXrXrXrXrXeXyX",
",X,X,X,X,X,X,X,X,X,X,X,X,X,X,X,X,X,X,X,X,X,X,X,X,X,X,X,X,X,X,X,X,X,X,X,X,X,X,X,X,X<XrXeXrXrXrXrXrXrXrXrXrXrXrXrXrXrXrXrXrXrXrXrXrXrXrXrXrXrXrXrXrXrXrXrXrXrXrXrXrXrXrXeXyX",
",X,X,X,X,X,X,X,X,X,X,X,X,X,X,X,X,X,X,X,X,X,X,X,X,X,X,X,X,X,X,X,X,X,X,X,X,X,X,X,X,X<XrXeXrXrXrXrXrXrXrXrXrXrXrXrXrXrXrXrXrXrXrXrXrXrXrXrXrXrXrXrXrXrXrXrXrXrXrXrXrXrXrXeXyX",
",X,X,X,X,X,X,X,X,X,X,X,X,X,X,X,X,X,X,X,X,X,X,X,X,X,X,X,X,X,X,X,X,X,X,X,X,X,X,X,X,X<XrXeXrXrXrXrXrXrXrXrXrXrXrXrXrXrXrXrXrXrXrXrXrXrXrXrXrXrXrXrXrXrXrXrXrXrXrXrXrXrXrXeXyX",
",X,X,X,X,X,X,X,X,X,X,X,X,X,X,X,X,X,X,X,X,X,X,X,X,X,X,X,X,X,X,X,X,X,X,X,X,X,X,X,X,X<XrXeXrXrXrXrXrXrXrXrXrXrXrXrXrXrXrXrXrXrXrXrXrXrXrXrXrXrXrXrXrXrXrXrXrXrXrXrXrXrXrXeXyX",
",X,X,X,X,X,X,X,X,X,X,X,X,X,X,X,X,X,X,X,X,X,X,X,X,X,X,X,X,X,X,X,X,X,X,X,X,X,X,X,X,X<XrXeXrXrXrXrXrXrXrXrXrXrXrXrXrXrXrXrXrXrXrXrXrXrXrXrXrXrXrXrXrXrXrXrXrXrXrXrXrXrXrXeXyX",
",X,X,X,X,X,X,X,X,X,X,X,X,X,X,X,X,X,X,X,X,X,X,X,X,X,X,X,X,X,X,X,X,X,X,X,X,X,X,X,X,X<XrXeXrXrXrXrXrXrXrXrXrXrXrXrXrXrXrXrXrXrXrXrXrXrXrXrXrXrXrXrXrXrXrXrXrXrXrXrXrXrXrXeXyX",
",X,X,X,X,X,X,X,X,X,X,X,X,X,X,X,X,X,X,X,X,X,X,X,X,X,X,X,X,X,X,X,X,X,X,X,X,X,X,X,X,X<XrXeXrXrXrXrXrXrXrXrXrXrXrXrXrXrXrXrXrXrXrXrXrXrXrXrXrXrXrXrXrXrXrXrXrXrXrXrXrXrXrXeXyX",
",X,X,X,X,X,X,X,X,X,X,X,X,X,X,X,X,X,X,X,X,X,X,X,X,X,X,X,X,X,X,X,X,X,X,X,X,X,X,X,X,X<XrXeXrXrXrXrXrXrXrXrXrXrXrXrXrXrXrXrXrXrXrXrXrXrXrXrXrXrXrXrXrXrXrXrXrXrXrXrXrXrXrXeXyX",
",X,X,X,X,X,X,X,X,X,X,X,X,X,X,X,X,X,X,X,X,X,X,X,X,X,X,X,X,X,X,X,X,X,X,X,X,X,X,X,X,X<XrXeXrXrXrXrXrXrXrXrXrXrXrXrXrXrXrXrXrXrXrXrXrXrXrXrXrXrXrXrXrXrXrXrXrXrXrXrXrXrXrXeXyX",
",X,X,X,X,X,X,X,X,X,X,X,X,X,X,X,X,X,X,X,X,X,X,X,X,X,X,X,X,X,X,X,X,X,X,X,X,X,X,X,X,X<XrXeXrXrXrXrXrXrXrXrXrXrXrXrXrXrXrXrXrXrXrXrXrXrXrXrXrXrXrXrXrXrXrXrXrXrXrXrXrXrXrXeXyX",
",X,X,X,X,X,X,X,X,X,X,X,X,X,X,X,X,X,X,X,X,X,X,X,X,X,X,X,X,X,X,X,X,X,X,X,X,X,X,X,X,X<XrXeXrXrXrXrXrXrXrXrXrXrXrXrXrXrXrXrXrXrXrXrXrXrXrXrXrXrXrXrXrXrXrXrXrXrXrXrXrXrXrXeXyX",
",X,X,X,X,X,X,X,X,X,X,X,X,X,X,X,X,X,X,X,X,X,X,X,X,X,X,X,X,X,X,X,X,X,X,X,X,X,X,X,X,X<XrXeXrXrXrXrXrXrXrXrXrXrXrXrXrXrXrXrXrXrXrXrXrXrXrXrXrXrXrXrXrXrXrXrXrXrXrXrXrXrXrXeXyX",
",X,X,X,X,X,X,X,X,X,X,X,X,X,X,X,X,X,X,X,X,X,X,X,X,X,X,X,X,X,X,X,X,X,X,X,X,X,X,X,X,X<XrXeXrXrXrXrXrXrXrXrXrXrXrXrXrXrXrXrXrXrXrXrXrXrXrXrXrXrXrXrXrXrXrXrXrXrXrXrXrXrXrXeXyX",
",X,X,X,X,X,X,X,X,X,X,X,X,X,X,X,X,X,X,X,X,X,X,X,X,X,X,X,X,X,X,X,X,X,X,X,X,X,X,X,X,X<XrXeXrXrXrXrXrXrXrXrXrXrXrXrXrXrXrXrXrXrXrXrXrXrXrXrXrXrXrXrXrXrXrXrXrXrXrXrXrXrXrXeXyX",
",X,X,X,X,X,X,X,X,X,X,X,X,X,X,X,X,X,X,X,X,X,X,X,X,X,X,X,X,X,X,X,X,X,X,X,X,X,X,X,X,X<XrXeXrXrXrXrXrXrXrXrXrXrXrXrXrXrXrXrXrXrXrXrXrXrXrXrXrXrXrXrXrXrXrXrXrXrXrXrXrXrXrXeXyX",
",X,X,X,X,X,X,X,X,X,X,X,X,X,X,X,X,X,X,X,X,X,X,X,X,X,X,X,X,X,X,X,X,X,X,X,X,X,X,X,X,X<XrXeXrXrXrXrXrXrXrXrXrXrXrXrXrXrXrXrXrXrXrXrXrXrXrXrXrXrXrXrXrXrXrXrXrXrXrXrXrXrXrXeXyX",
",X,X,X,X,X,X,X,X,X,X,X,X,X,X,X,X,X,X,X,X,X,X,X,X,X,X,X,X,X,X,X,X,X,X,X,X,X,X,X,X,X<XrXeXrXrXrXrXrXrXrXrXrXrXrXrXrXrXrXrXrXrXrXrXrXrXrXrXrXrXrXrXrXrXrXrXrXrXrXrXrXrXrXeXyX",
",X,X,X,X,X,X,X,X,X,X,X,X,X,X,X,X,X,X,X,X,X,X,X,X,X,X,X,X,X,X,X,X,X,X,X,X,X,X,X,X,X<XrXeXrXrXrXrXrXrXrXrXrXrXrXrXrXrXrXrXrXrXrXrXrXrXrXrXrXrXrXrXrXrXrXrXrXrXrXrXrXrXrXeXyX",
",X,X,X,X,X,X,X,X,X,X,X,X,X,X,X,X,X,X,X,X,X,X,X,X,X,X,X,X,X,X,X,X,X,X,X,X,X,X,X,X,X<XrXeXrXrXrXrXrXrXrXrXrXrXrXrXrXrXrXrXrXrXrXrXrXrXrXrXrXrXrXrXrXrXrXrXrXrXrXrXrXrXrXeXyX",
",X,X,X,X,X,X,X,X,X,X,X,X,X,X,X,X,X,X,X,X,X,X,X,X,X,X,X,X,X,X,X,X,X,X,X,X,X,X,X,X,X<XrXeXrXrXrXrXrXrXrXrXrXrXrXrXrXrXrXrXrXrXrXrXrXrXrXrXrXrXrXrXrXrXrXrXrXrXrXrXrXrXrXeXyX",
",X,X,X,X,X,X,X,X,X,X,X,X,X,X,X,X,X,X,X,X,X,X,X,X,X,X,X,X,X,X,X,X,X,X,X,X,X,X,X,X,X<XrXeXeXrXrXrXrXrXrXrXrXrXrXrXrXrXrXrXrXrXrXrXrXrXrXrXrXrXrXrXrXrXrXrXrXrXrXrXrXrXrXeXrX",
",X,X,X,X,X,X,X,X,X,X,X,X,X,X,X,X,X,X,X,X,X,X,X,X,X,X,X,X,X,X,X>X>X>X>X>X>X>X>X>X>X>XqXqXqXqXqXqXqXqXqXqXqXqXqXqXrXeXrXrXrXrXrXrXrXrXrXrXrXrXrXrXrXrXrXrXrXrXrXrXrXrXrXeXrX",
",X,X,X,X,X,X,X,X,X,X,X,X,X,X,X,X,X,X,X,X,X,X,X,X,X,X,X,X,X,X,X7X7X7X7X7X7X7X7X7X7X7XgXgXgXgXgXgXgXgXgXgXgXgXhXyXqXrXrXrXrXrXrXrXrXrXrXrXrXrXrXrXrXrXrXrXrXrXrXrXrXrXrXeXrX",
",X,X,X,X,X,X,X,X,X,X,X,X,X,X,X,X,X,X,X,X,X,X,X,X,X,X,X,X,X,X,XR L L L L L L L L L R T T T T T T T T T T T G.R !.uXqXrXrXrXrXrXrXrXrXrXrXrXrXrXrXrXrXrXrXrXrXrXrXrXrXrXeXyX",
",X,X,X,X,X,X,X,X,X,X,X,X,X,X,X,X,X,X,X,X,X,X,X>X>X>X>X>X>X>X>X: + - - - - - - - - - + + + + + + + + + + + ; . G.iXwXeXrXeXrXrXrXrXrXrXrXrXrXrXrXrXrXrXrXrXrXrXrXrXrXrXeXyX",
",X,X,X,X,X,X,X,X,X,X,X,X,X,X,X,X,X,X,X,X,X,X,X6X6X6X6X6X6X6X6X4 & 1 1 1 1 1 1 1 1 1 3 1 1 3 1 4 4 4 4 4 4 0 O U.jXuXrXeXrXrXrXrXrXrXrXrXrXrXrXrXrXrXrXrXrXrXrXrXrXrXrXeXyX",
",X,X,X,X,X,X,X,X,X,X,X,X,X,X,X,X,X,X,X,X,X<XR.g a a a a a a a 2.7.7.7.7.7.7.7.7.7.7.7.7.7.7.0.[ n ^ ^ ^ ^ D ' c a a 2XyXeXeXeXeXeXeXeXrXeXrXrXrXrXrXrXrXrXrXrXrXrXrXrXeXyX",
",X,X,X,X,X,X,X,X,X,X,X,X,X,X,X<X<X<X<X<X<X5XR.+ : ; & & & & & i././././././././././.(.(.(./._.*. .| | | | } @.k = O 2XiXyXyXyXyXyXyXrXeXrXrXrXrXrXrXrXrXrXrXrXrXrXrXrXeXyX",
",X,X,X,X,X,X,X,X,X,X,X,X,X,X>XR.R.R.R.R.R.:XE.6 w w e e e r r i.d.p.p.p.p.p.p.i.i.i.u.u.u.e.i.%.] } | | | | #.c w 7 Q.4X3X3X3X3X3X2XqXrXeXrXrXrXrXrXrXrXrXrXrXrXrXrXrXeXyX",
",X,X,X,X,X,X,X,X,X>X>X>X>X<XY.+ 5 > > > > : 6 H.N.J.k.^.|.XX.X X X X X X X X.Xd.i.e.` [ ] ] ] } } } p.d.d.d.p.d.d.'.e ; > > > > 5   T.uXqXeXrXrXrXrXrXrXrXrXrXrXrXrXrXeXyX",
",X,X,X,X,X,X,X,X>X5X6X6X6X8XE.o 1 & & & 3 : 6 N.n.J.f.r.k.l.l.l.l.l. X X X X.Xj.d.i.] } } } } } } } u.u.u.u.u.u.e.).7 @ & & & & 3   Q.jXiXrXeXrXrXrXrXrXrXrXrXrXrXrXrXeXyX",
",X,X,X,X,X,X,X,X<XY.G.F.G.F.G.z Z Z Z A l k v J.J.L.+X+X=X;X;X;X;X=Xc. X|.{.|.9.8.5.] } } } } } } } g.g.g.g.g.g.g.`.G H H Z Z Z Z z G.U.U.eXrXeXrXrXrXrXrXrXrXrXrXrXrXeXyX",
",X,X,X,X,X,X>XR.6XV . ; - O u ].(.[.(.'.*.| %._.f.+XzXzXzXzXzXzXzXkXl.XXg.e.i.| ! ` } } } } } | | | .X.X.X.X.X.X.X.X$X$XXX[.'.'.(.].u   : qXqXqXrXeXrXrXrXrXrXrXrXrXrXeXyX",
",X,X,X,X,X>X<X6XfXJ O 1 2 @ p /.q.i.p.d.#.` | r.t.+XzXxXxXzXzXxXzXdXl..X`.d._.#.} | } } } } } W W W l.l.l.l.l.z. X X}.c.x.e.e.u.a.(.p @ 4 gXhXiXqXrXrXrXrXrXrXrXrXrXrXeXyX",
",X,X,X,X>X5XY.f N ..:.-.y.y.s.|.}.q.#.$.| ] +.dXsXlXzXxXzXzXzXzXzXdXl.XXa.#.$.| } } } } } | W @XpXaXdXdXdXdXdX=Xl. X X X X{.|.g.u.d.>.-.:.I V G.iXqXrXrXrXrXrXrXrXrXrXeXyX",
",X,X,X,X>X6XG.. O :.]./..XXXXX X#X0.~ ] } ] +.zXzXzXxXzXzXzXzXzXzXdXl.#X8.~ ] } } } } } } | W pXzXzXzXzXzXzXzX;Xl. X X X X X.X{.u.i./.(./.;   V gXqXrXrXrXrXrXrXrXrXrXeXyX",
",X,X,X,X,X7XF.- < -.d.u.z.c.c. XXX0.! | } ] +.zXxXxXzXzXzXzXzXzXzXkXl.#X0.! | } } } } } } | W aXzXxXzXzXzXxXzX;Xl. X X X X X.Xx.u.i.i.i.u.9 & J gXqXrXrXrXrXrXrXrXyXrXeXyX",
"1X>X<XR.q 4 Z (.t.sXzXxXxXzXdXl.#X0.! | } ] +.zXxXzXzXzXzXzXzXXX X X XXX0.! | } } } } } } | W pXzXxXzXzXzXxXzXF.+ e q 5 y (.i.i.i.i.i.i.i.a.d.:.4 e q w w w w w e ; T iXqX",
">X<X6X>X$ @ x '.r.sXzXzXzXzXkXl.#X0.! | } ] +.zXzXzXzXzXzXzXzX Xc. X XXX0.! | } } } } } [  .Q pXzXzXzXzXzXxXzXG.  5 4 & t './.d.i.i.i.i.i.i.'.:.@ 4 & & & + + + 3   R jXuX",
"5XE.Y.Y.l p G ].u.sXzXxXxXzXkXx. X0.! | } ] +.cXdXkXkXkXkXkXkX Xc. X XXX0.! | } } } } ] X.4.#.aXcXdXkXkXkXdXxXE O 9 5 4 e 7.;.8.d.i.i.i.i.e.i.:.7 p k l l V J V l y R ~.T.",
"iXa   > '.(.`.XXl.dXzXxXxXzXdXr.^.4.` } } ] X.l.l.l.l.l.l.l.l. X X X XXX0.! | } } } | ! 8.$X.Xv.l.l.l.l.l.l.v.G < q 7 q 5 & O Z (.a.i.i.i.;.;.$.@.| q.].f.xXzXlXf.oX/     ",
"iXf ; r i.e.j..Xl.dXzXzXzXzXlXf._.6.` } } ] X..X X X X X X X X X X X XXX0.! | } } } | ! 8.#X X X X X X X X X%XH o & % % & w & G ].(.d.d.d.>.6.$.! ~ 6.i.r.xXzXlXt.f./ 4 : ",
"iXf & e {.h.|. Xc.=X-X-X;X-X+X$.5.%.] } } ] X..X X X X X X X X X X X XXX0.! | } } } } ` 6.|.g.}. X X X X X X.Xs._ =./ / S 4 4 k G A >.w.8.>.>.6.5.6.p.{.h.OXOX@XsXsXK.# ; ",
"uXf ; r XX X X X Xl.l.l.l.l.j.~ ] ] } } } ] X..X X X X X X X X X X X XXX0.! | } } } } ` *.d.e.|. X X X X X X X.X$X$X'.'.u.3 q 4 & @ / 6.;.>.;.7._.i.|..XXX) Q +.zXzXT.O ; ",
"jXa O 9 .X X X X X X X X X.Xh.` | } } } } ] X..X X X X X X X X X X X X#X0.! | } } } } ` 4.d.u.|..X X X X X X X X X Xp.i.7.@ ; & 4 = / 5.>.>.>.7.d.e.h. X X#.] L.zXzXT.+ ; ",
"g :.0.0. X X X X X X X X X.Xh.! | } } } } ] X..X X X X X X X X X X|.p._.6.` } } } } } ` 4.d.u.d.d.d.d.d.d.d.d.d.d.d.i.i.i.7.8.8.8.8.>.>.>.>.;.7.d.e.{. X.X#.` %.*X*X=.& ; ",
"% 7.(.d. X X X X X X X X X.Xh.! | } } } } ] X..X X X X X X X X X.Xx.e.d.4.` } } } } } ` 4.d.i.i.u.i.i.i.i.i.i.i.i.u.i.i.i./././.d.(.7.;.>.>.;.7.d.u.{..X.XX.! #.v..X_ & - ",
"1 1./.i. X}.}.}.}.}.}.}.}. Xh.` | } } } } ] X. X}.}.}.}.}.}.}.}. X|.u.d.4.` } } } } } ` 4.d.i.i.i.i.i.i.i.i.i.i.i.i.i.i.i.i.i.i.i.p.7.;.>.;.;.5.i.e.h. X X$.| ;. XXX_ % - ",
"1 1./.i.u.u.u.u.i.i.i.i.u.i.w.` } } } } } [ | i.u.u.u.u.u.u.u.u.u.u.i.d.6.` } } } } } ` 4.d.i.i.i.i.i.i.i.i.i.i.i.i.i.i.i.i.i.i.i.d.7.;.>.[ ] | >.:.8.i.e. X.X}.e.(./ 1 ; ",
"1 1./.i.i.i.i.i.i.i.i.i.i.d.q.` } } } } } [ | d.i.i.i.i.i.i.i.i.i.i.i.d.6.` } } } } } ` 4._.d.i.i.i.i.i.i.i.i.i.i.i.i.i.i.i.i.i.i.d.7.;.>.} ] #.8.6.i.'.(.XX$X.X/.]./ o   ",
"1 1./.i.i.i.i.i.i.i.i.i.i.d.q.` } } } } } [ | d.i.i.i.i.i.i.i.i.i.i.i.d.6.` } } } } } ] %.9.5.e.i.i.i.i.i.i.i.i.i.i.i.i.i.i.i.i.i.d.7.;.>.} | ` S S / ....<.<.<...( Y K J ",
"1 1./.i.i.i.i.i.i.i.i.i.i.d.q.` } } } } } [ | i.u.i.i.i.i.i.i.i.i.i.i.d.6.] | } } } } } ] ` ~ 9.d.i.i.i.i.i.i.i.i.i.i.i.i.i.i.i.i.d.5.;.>.] | b @ & & < < % % % 1 o L fX9X",
"1 1./.i.i.i.i.i.i.i.i.i.i.d.q.] { { } } } ] | /.d.d.i.i.i.i.i.i.i.i.i.d.4.~ ] } } } } } } | ] 9.d.i.i.i.i.i.i.i.i.i.i.i.i.i.i.i.i.d.7.>.>.@.%.D : w : - - - - - : . K 6XR.",
"1 1./.i.i.i.i.i.i.i.i.i.i.d.w.Z.Z.O.{ } } } } $.%.5.d.i.i.i.i.i.i.i.i.i.e.9.q.| ] } } } } } ` 9.d.i.i.i.i.i.i.i.i.i.i.i.i.i.i.i.i.d.$.| X.p p t 5 ; P Y.F.I.I.I.Y.F.E.<X>X",
"1 1./.i.i.i.i.i.i.i.i.i.i.d.P.n.N.Y { } } } } ] ! $.d.i.i.i.i.i.i.i.i.i.p.d./.#.] } } } } } ` 9.d.i.i.i.i.i.i.i.i.i.i.i.i.i.i.i.i./.%.] ] 3 : 4 9 + F.0X5X6X6X6X6X6X<X,X,X",
"1 1./.i.i.i.i.i.i.i.i.i.i.d.P.n.m.Y { } } } } | ] 4.d.i.i.i.p.i.i.i.i.i.i.i.d.X.] } } } } } ` 9.d.i.i.i.i.i.i.i.i.i.i.i.i.i.i.i.i.d.%.] } 5 5 5 9 + G.6X>X>X>X>X>X>X>X1X>X",
"5 B.M.C.,.;.7.d.i.i.i.i.6.,.&.N.M.M.M.M.M.M.M.M.N.D.,.;.>.>.>.i.i.i.i.d.8.;.,.D.N.C.{ } } } } } } } i.i.i.i.i.i.i.i.i.i.i.u.(./ & q 5 5 5 5 ; V 5XR.>X,X,X,X,X,X,X,X,X,X>X",
"$ B.A.V.,.>.0.d.i.i.i.d.>.,.&.A.V.M.M.M.M.M.M.M.N.D.t.,.5.5.5.i.d.i.i.d.8.;.,.C.n.M.{ { { { { { { { d.d.d.i.i.i.i.i.i.i.d./.]...= 5 > > > 5 ; J tX5X<X,X,X,X,X,X,X,X,X,X>X",
"V m m m +.+.3.i.e.e.e.e.>.,.+.M m B.M.M.M.M.M.M.m.D.3.+.../ ..e.e.e.e.u.8.;.,.D.D.D.O.O.O.O.O.O.O.O.9.9.q.e.e.e.e.e.e.e.q.:.7.S & 5 i i i 5 ; f E.F.R.<X,X,X,X,X,X,X,X,X>X",
"jXf X 5 N.n.D.,.;.;.;.;.;.6.( = , h N.m.M.M.M.M.M.N.n.A.j = & :.;.;.;.;.;.>.>.,.,.;.n.m.m.m.m.m.m.m.` ! [ ;.;.;.;.;.;.;.o.@ & 3 7 > B.H.M.5 5 4 : . G.6X>X,X,X,X,X,X,X,X>X",
"uXf ; w H.A.J.9.8.8.8.8.8.9.-.1 > M H.N.V.V.V.V.A.V.V.H.d > 5 5.9.8.8.9.5.>.>.5.8.6.A.V.V.V.V.V.V.V.@.@.$.8.8.8.8.8.8.9.;.4 q 5 : $ m N.m.& & & 4 O F.fX6X<X,X,X,X,X,X,X>X",
"iXf ; 5 s s v z z z z z z z l 4 5 i h s s s s s s s s h i 4 5 z z z z x ^ %.%.A z z s s s s s s s s l l x z z z z z z z x 4 > i M h B.M.M.S S S S S U P K :X<X,X,X,X,X,X>X",
"iXf ; 5 : : : & & & & & & & & 5 5 > : : : : : : : : : : 4 5 5 & & & ; = x | | 7 & ; : : : : : : : : * * * & & & & & & & & 5 : h H.M.M.M.M.7.5.5.5.e.x O X R.<X,X,X,X,X,X>X",
"iXf ; 5 5 5 5 4 4 5 5 5 5 5 5 5 5 4 3 4 4 3 4 5 5 5 5 5 5 5 5 5 5 5 7 : b | | e : 4 5 5 5 5 5 5 5 5 5 5 5 5 5 5 4 4 5 5 5 5 : s S.M.m.N.N.;.;.;.;.5.x 3 4 R.<X,X,X,X,X,X>X",
"iXf ; 5 5 3 k ` ` p 3 5 5 5 5 5 * x ] ' ' ' D 4 5 5 5 5 5 5 5 5 5 5 5 * c @.} ' ' n 4 5 5 5 5 5 5 5 5 5 5 5 : c ` ' e 5 5 5 5 6 i 6 ..3.3.>.>.>.;.8.x 1 > R.<X,X,X,X,X,X>X",
"iXa + > 5 : k @.@.p % 4 5 5 5 5 * c @.[ } | ` & 3 4 5 5 5 5 5 5 5 5 5 * c | ]  .| ' & 3 4 5 5 5 5 5 5 5 5 5 & b @.| 7 & 4 3 3 4 5 $ ( 8.,.6.6.6.>.9.x $ ; R.<X,X,X,X,X,X>X",
"iXJ i g 5 : k %.#.x r y 5 5 5 5 & b %.| X.#.[ t y r 4 5 5 5 5 5 5 5 5 & b %.| #.%.| r y e 4 5 5 5 5 5 5 5 r 5 n #.#.p e t t y e 5 & G :.o.o.o.o.o.;.C i e R.<X,X,X,X,X,X>X",
"eXuXiXqX> & Z '.i.|.#XXXw 4 5 q < / '.i.d.d.d.XX%Xy.@ q 5 9 9 9 9 5 5 % / '.u. XXX.X.X%X<.@ q 5 9 5 5 4 p %.` 8./.p.(./._.XX%X=.@ q 4 4 4 4 4 4 5 O G.8X<X,X,X,X,X,X,X,X>X",
"eXqXrX3X4 & z (.q.x. X Xw 4 4 $   / ].(.i.e.i.c.XX<.@ q & + + + + & q % / (.e.}. X Xx.XX<.@ q ; + $ $ O 8 *. .8.d.i.u.e.i.c.XX=.@ q ; $ - - - - : . G.6X>X,X,X,X,X,X,X,X>X",
"eXeXyX3X4 & Z |.j.|. X Xw ; i R L Y ( / p.h.h. X$X<.@ > J R R R R I > & / '.u.}. X X X$X<.@ > J P P P P K b v ;.(.i.g.g.h. X$X=.@ 4 J P P P P P P I Y.5X>X,X,X,X,X,X,X,X>X",
"eXrXyX3X5 1 F $Xc. Xz. Xr ; V jXjXG.o @ b..Xc.x.XX<.< ; !.jXiXiXjX~.; 4 / (.e.x. Xz.x.XX<.< : E.tX6X6XtXY.+ % / (.e.z. X Xx.XX=.< : E.0X6X7X7X7X7X7X<X>X,X,X,X,X,X,X,X,X>X",
"eXeXyX3X+   B &XXX$X$X$X:   a yXuXR   o b.%X$XXX&X<.  . U.uXwXwXyXT..   / ]./.XX$X$X#X&X=.  . F.5X>X>X<XF.. o ( ]./.XX$X$XXX&X_   . F.<X>X>X>X>X>X>X>X,X,X,X,X,X,X,X,X,X>X",
"eXeXrXqXT.!.K.u B B B B T.T.Q.yXyX~.W.!.F x B B u E Q.W.3XyXeXrXyX4XW.Q.R u l B B B B u U Y.F.R.<X,X,X<XR.F.Y.U u l B B B B u U Y.F.R.<X,X,X,X,X,X,X,X,X,X,X,X,X,X,X,X,X>X",
"eXrXeXrXuXjXU.  3 & & # rXiXuXeXeXyXuXjXg O & 1   K jXyXyXeXrXrXeXyXyXjXR   3 & & & 1   I fX<X<X,X,X,X,X<X<XfXP   3 & & & 1   P fX<X<X,X,X,X,X,X,X,X,X,X,X,X,X,X,X,X,X,X>X",
"eXeXrXeXqXiXU.$ w q q 5 4XrXqXrXrXeXqXuXf 4 q w ; P iXwXeXrXeXeXrXeXwXiXR ; w q q q q ; P 6X>X,X,X,X,X,X,X>X6XP ; q 9 q 9 q ; P 6X>X,X1X,X,X,X,X,X,X,X,X,X,X,X,X,X,X,X,X>X",
"eXrXrXrXeXrXeXqXqXqXqXqXeXrXrXrXrXrXeXrXeXqXqXqXqXeXrXeXrXrXrXrXrXrXeXrXeXqXqXqXeXqX>X>X,X,X,X,X,X,X,X,X,X,X,X,X>X>X>X>X>X>X>X,X1X,X,X,X,X,X,X,X,X,X,X,X,X,X,X,X,X,X,X,X>X",
"eXrXrXrXrXeXrXrXrXrXrXrXrXeXrXrXrXrXrXeXrXrXrXrXrXrXeXrXrXrXrXrXrXrXrXeXrXrXrXrXrXeX,X<X,X,X,X,X,X,X,X,X,X,X,X,X,X,X,X,X,X,X,X,X,X<X,X,X,X,X,X,X,X,X,X,X,X,X,X,X,X,X,X,X>X",
"eXrXrXrXrXrXeXeXeXeXeXeXrXrXrXrXrXrXrXrXeXeXeXeXeXeXrXrXrXrXrXrXrXrXrXrXeXeXeXeXrXeX,X,X,X,X,X,X,X,X,X,X,X,X,X,X,X,X,X,X,X,X,X,X,X,X,X,X,X,X,X,X,X,X,X,X,X,X,X,X,X,X,X,X>X",
"eXrXrXrXrXrXrXrXrXrXrXrXrXrXrXrXrXrXrXrXrXrXrXrXrXrXrXrXrXrXrXrXrXrXrXrXrXrXrXeXrXeX,X,X,X,X,X,X,X,X,X,X,X,X,X,X,X,X,X,X,X,X,X,X,X,X,X,X,X,X,X,X,X,X,X,X,X,X,X,X,X,X,X,X>X",
"eXrXrXrXrXrXrXrXrXrXrXrXrXrXrXrXrXrXrXrXrXrXrXrXrXrXrXrXrXrXrXrXrXrXrXrXrXrXrXeXrXeX,X,X,X,X,X,X,X,X,X,X,X,X,X,X,X,X,X,X,X,X,X,X,X,X,X,X,X,X,X,X,X,X,X,X,X,X,X,X,X,X,X,X>X",
"eXrXrXrXrXrXrXrXrXrXrXrXrXrXrXrXrXrXrXrXrXrXrXrXrXrXrXrXrXrXrXrXrXrXrXrXrXrXrXeXrXeX,X,X,X,X,X,X,X,X,X,X,X,X,X,X,X,X,X,X,X,X,X,X,X,X,X,X,X,X,X,X,X,X,X,X,X,X,X,X,X,X,X,X>X",
"eXeXeXeXeXeXeXeXeXeXeXeXeXeXeXeXeXeXeXeXeXeXeXeXeXeXeXeXeXeXeXeXeXeXeXeXeXeXeXeXrXeX,X,X,X,X,X,X,X,X,X,X,X,X,X,X,X,X,X,X,X,X,X,X,X,X,X,X,X,X,X,X,X,X,X,X,X,X,X,X,X,X,X1X,X",
"rXrXrXrXrXrXrXrXrXrXrXrXrXrXrXrXrXrXrXrXrXrXrXrXrXrXrXrXrXrXrXrXrXrXrXrXrXrXrXrXyXeX>X,X,X,X,X,X,X,X,X,X,X,X,X,X,X,X,X,X,X,X,X,X,X,X,X,X,X,X,X,X,X,X,X,X,X,X,X,X,X,X,X,X>X",
"<X<X<X<X<X<X<X<X<X<X<X<X<X<X<X<X<X<X<X<X<X<X<X<X<X<X<X<X<X<X<X<X<X<X<X<X<X<X<X<X<X<XeXeXeXeXeXeXeXeXeXeXeXeXeXeXeXeXeXeXeXeXeXeXeXeXeXeXeXeXeXeXeXeXeXeXeXeXeXeXeXeXeXqXeX"
};
